<ttFont>
    <TTGlyph name="A" xMin="25" yMin="-61" xMax="601" yMax="694">
      <contour>
        <pt x="385" y="224" on="1"/>
        <pt x="371" y="225" on="0"/>
        <pt x="227" y="225" on="0"/>
        <pt x="215" y="221" on="1"/>
        <pt x="162" y="47" on="0"/>
        <pt x="155" y="-30" on="1"/>
        <pt x="155" y="-31" on="0"/>
        <pt x="106" y="-31" on="0"/>
        <pt x="80" y="-28" on="1"/>
        <pt x="25" y="-20" on="0"/>
        <pt x="25" y="-14" on="1"/>
        <pt x="25" y="26" on="0"/>
        <pt x="96" y="219" on="1"/>
        <pt x="83" y="230" on="0"/>
        <pt x="49" y="299" on="0"/>
        <pt x="49" y="322" on="1"/>
        <pt x="49" y="323" on="0"/>
        <pt x="132" y="326" on="1"/>
        <pt x="214" y="564" on="0"/>
        <pt x="225" y="577" on="1"/>
        <pt x="229" y="580" on="0"/>
        <pt x="293" y="593" on="0"/>
        <pt x="302" y="593" on="1"/>
        <pt x="300" y="606" on="1"/>
        <pt x="298" y="620" on="0"/>
        <pt x="293" y="653" on="0"/>
        <pt x="293" y="658" on="1"/>
        <pt x="293" y="661" on="0"/>
        <pt x="310" y="670" on="1"/>
        <pt x="359" y="694" on="0"/>
        <pt x="411" y="694" on="1"/>
        <pt x="421" y="635" on="0"/>
        <pt x="454" y="452" on="0"/>
        <pt x="550" y="76" on="0"/>
        <pt x="594" y="2" on="1"/>
        <pt x="601" y="-10" on="1"/>
        <pt x="601" y="-15" on="0"/>
        <pt x="563" y="-39" on="0"/>
        <pt x="501" y="-61" on="0"/>
        <pt x="475" y="-61" on="1"/>
        <pt x="466" y="-61" on="0"/>
        <pt x="397" y="166" on="0"/>
      </contour>
      <contour>
        <pt x="361" y="327" on="1"/>
        <pt x="327" y="471" on="0"/>
        <pt x="321" y="505" on="0"/>
        <pt x="317" y="505" on="0"/>
        <pt x="314" y="501" on="1"/>
        <pt x="305" y="484" on="0"/>
        <pt x="256" y="354" on="0"/>
        <pt x="249" y="329" on="1"/>
        <pt x="360" y="329" on="0"/>
      </contour>
    </TTGlyph>
    <TTGlyph name="AE" xMin="25" yMin="-68" xMax="825" yMax="693">
      <contour>
        <pt x="776" y="0" on="1"/>
        <pt x="770" y="-6" on="0"/>
        <pt x="607" y="-8" on="1"/>
        <pt x="613" y="-19" on="1"/>
        <pt x="613" y="-24" on="0"/>
        <pt x="573" y="-47" on="0"/>
        <pt x="509" y="-68" on="0"/>
        <pt x="483" y="-68" on="1"/>
        <pt x="473" y="-68" on="0"/>
        <pt x="400" y="168" on="0"/>
        <pt x="388" y="224" on="1"/>
        <pt x="374" y="225" on="0"/>
        <pt x="230" y="225" on="0"/>
        <pt x="218" y="221" on="1"/>
        <pt x="162" y="35" on="0"/>
        <pt x="155" y="-50" on="1"/>
        <pt x="155" y="-51" on="0"/>
        <pt x="106" y="-51" on="0"/>
        <pt x="80" y="-48" on="1"/>
        <pt x="25" y="-41" on="0"/>
        <pt x="25" y="-34" on="1"/>
        <pt x="25" y="1" on="0"/>
        <pt x="99" y="219" on="1"/>
        <pt x="86" y="230" on="0"/>
        <pt x="51" y="298" on="0"/>
        <pt x="51" y="321" on="1"/>
        <pt x="51" y="323" on="0"/>
        <pt x="134" y="325" on="1"/>
        <pt x="219" y="567" on="0"/>
        <pt x="228" y="576" on="1"/>
        <pt x="232" y="580" on="0"/>
        <pt x="299" y="593" on="0"/>
        <pt x="305" y="593" on="1"/>
        <pt x="303" y="606" on="1"/>
        <pt x="301" y="620" on="0"/>
        <pt x="296" y="652" on="0"/>
        <pt x="296" y="661" on="0"/>
        <pt x="329" y="678" on="0"/>
        <pt x="386" y="693" on="0"/>
        <pt x="412" y="693" on="1"/>
        <pt x="429" y="591" on="0"/>
        <pt x="434" y="591" on="0"/>
        <pt x="435" y="593" on="1"/>
        <pt x="435" y="656" on="0"/>
        <pt x="441" y="662" on="1"/>
        <pt x="522" y="666" on="0"/>
        <pt x="807" y="666" on="0"/>
        <pt x="807" y="662" on="1"/>
        <pt x="807" y="641" on="0"/>
        <pt x="788" y="591" on="0"/>
        <pt x="767" y="562" on="0"/>
        <pt x="758" y="565" on="0"/>
        <pt x="687" y="565" on="0"/>
        <pt x="557" y="556" on="0"/>
        <pt x="545" y="544" on="0"/>
        <pt x="545" y="441" on="1"/>
        <pt x="546" y="399" on="1"/>
        <pt x="640" y="401" on="0"/>
        <pt x="740" y="401" on="0"/>
        <pt x="740" y="398" on="1"/>
        <pt x="740" y="359" on="0"/>
        <pt x="716" y="316" on="1"/>
        <pt x="708" y="301" on="0"/>
        <pt x="706" y="302" on="1"/>
        <pt x="699" y="302" on="1"/>
        <pt x="670" y="302" on="0"/>
        <pt x="550" y="291" on="0"/>
        <pt x="545" y="286" on="0"/>
        <pt x="545" y="120" on="0"/>
        <pt x="549" y="116" on="1"/>
        <pt x="564" y="101" on="0"/>
        <pt x="720" y="101" on="1"/>
        <pt x="774" y="101" on="0"/>
        <pt x="793" y="104" on="1"/>
        <pt x="825" y="109" on="0"/>
        <pt x="825" y="106" on="1"/>
        <pt x="825" y="83" on="0"/>
        <pt x="794" y="18" on="0"/>
      </contour>
      <contour>
        <pt x="252" y="328" on="1"/>
        <pt x="319" y="329" on="1"/>
        <pt x="362" y="329" on="0"/>
        <pt x="364" y="327" on="1"/>
        <pt x="332" y="462" on="0"/>
        <pt x="324" y="501" on="1"/>
        <pt x="322" y="504" on="0"/>
        <pt x="318" y="504" on="0"/>
        <pt x="310" y="486" on="0"/>
        <pt x="259" y="353" on="0"/>
      </contour>
    </TTGlyph>
    <TTGlyph name="Aacute" xMin="25" yMin="-61" xMax="601" yMax="819">
      <contour>
        <pt x="276" y="688" on="1"/>
        <pt x="267" y="688" on="0"/>
        <pt x="242" y="710" on="0"/>
        <pt x="240" y="719" on="1"/>
        <pt x="240" y="732" on="0"/>
        <pt x="295" y="808" on="0"/>
        <pt x="314" y="819" on="1"/>
        <pt x="330" y="819" on="0"/>
        <pt x="375" y="786" on="0"/>
        <pt x="375" y="774" on="1"/>
        <pt x="355" y="762" on="0"/>
        <pt x="286" y="700" on="0"/>
      </contour>
      <contour>
        <pt x="385" y="224" on="1"/>
        <pt x="397" y="166" on="0"/>
        <pt x="466" y="-61" on="0"/>
        <pt x="475" y="-61" on="1"/>
        <pt x="501" y="-61" on="0"/>
        <pt x="563" y="-39" on="0"/>
        <pt x="601" y="-15" on="0"/>
        <pt x="601" y="-10" on="1"/>
        <pt x="595" y="1" on="0"/>
        <pt x="594" y="2" on="1"/>
        <pt x="550" y="76" on="0"/>
        <pt x="459" y="422" on="0"/>
        <pt x="435" y="558" on="1"/>
        <pt x="411" y="694" on="1"/>
        <pt x="359" y="694" on="0"/>
        <pt x="310" y="670" on="1"/>
        <pt x="293" y="661" on="0"/>
        <pt x="293" y="658" on="1"/>
        <pt x="293" y="653" on="0"/>
        <pt x="298" y="620" on="0"/>
        <pt x="300" y="606" on="1"/>
        <pt x="302" y="593" on="1"/>
        <pt x="293" y="593" on="0"/>
        <pt x="229" y="580" on="0"/>
        <pt x="225" y="577" on="1"/>
        <pt x="214" y="564" on="0"/>
        <pt x="132" y="326" on="1"/>
        <pt x="49" y="323" on="0"/>
        <pt x="49" y="322" on="1"/>
        <pt x="49" y="299" on="0"/>
        <pt x="83" y="230" on="0"/>
        <pt x="96" y="219" on="1"/>
        <pt x="25" y="26" on="0"/>
        <pt x="25" y="-14" on="1"/>
        <pt x="25" y="-20" on="0"/>
        <pt x="106" y="-31" on="0"/>
        <pt x="155" y="-31" on="0"/>
        <pt x="155" y="-30" on="1"/>
        <pt x="162" y="47" on="0"/>
        <pt x="215" y="221" on="1"/>
        <pt x="227" y="225" on="0"/>
        <pt x="371" y="225" on="0"/>
      </contour>
      <contour>
        <pt x="321" y="502" on="1"/>
        <pt x="327" y="471" on="0"/>
        <pt x="361" y="327" on="1"/>
        <pt x="360" y="329" on="0"/>
        <pt x="249" y="329" on="1"/>
        <pt x="256" y="354" on="0"/>
        <pt x="305" y="484" on="0"/>
        <pt x="314" y="501" on="1"/>
        <pt x="317" y="505" on="0"/>
        <pt x="319" y="505" on="1"/>
      </contour>
    </TTGlyph>
    <TTGlyph name="Acircumflex" xMin="25" yMin="-61" xMax="601" yMax="841">
      <contour>
        <pt x="318" y="776" on="1"/>
        <pt x="309" y="771" on="0"/>
        <pt x="253" y="719" on="0"/>
        <pt x="246" y="710" on="1"/>
        <pt x="237" y="710" on="0"/>
        <pt x="211" y="732" on="0"/>
        <pt x="209" y="741" on="1"/>
        <pt x="209" y="754" on="0"/>
        <pt x="264" y="830" on="0"/>
        <pt x="283" y="841" on="1"/>
        <pt x="298" y="841" on="0"/>
        <pt x="318" y="828" on="1"/>
        <pt x="338" y="841" on="0"/>
        <pt x="352" y="841" on="1"/>
        <pt x="371" y="830" on="0"/>
        <pt x="426" y="754" on="0"/>
        <pt x="426" y="741" on="1"/>
        <pt x="424" y="732" on="0"/>
        <pt x="398" y="710" on="0"/>
        <pt x="389" y="710" on="1"/>
        <pt x="384" y="717" on="0"/>
        <pt x="326" y="771" on="0"/>
      </contour>
      <contour>
        <pt x="385" y="224" on="1"/>
        <pt x="371" y="225" on="0"/>
        <pt x="227" y="225" on="0"/>
        <pt x="215" y="221" on="1"/>
        <pt x="162" y="47" on="0"/>
        <pt x="155" y="-30" on="1"/>
        <pt x="155" y="-31" on="0"/>
        <pt x="106" y="-31" on="0"/>
        <pt x="80" y="-28" on="1"/>
        <pt x="25" y="-20" on="0"/>
        <pt x="25" y="-14" on="1"/>
        <pt x="25" y="26" on="0"/>
        <pt x="96" y="219" on="1"/>
        <pt x="83" y="230" on="0"/>
        <pt x="49" y="299" on="0"/>
        <pt x="49" y="322" on="1"/>
        <pt x="49" y="323" on="0"/>
        <pt x="132" y="326" on="1"/>
        <pt x="214" y="564" on="0"/>
        <pt x="225" y="577" on="1"/>
        <pt x="229" y="580" on="0"/>
        <pt x="293" y="593" on="0"/>
        <pt x="302" y="593" on="1"/>
        <pt x="300" y="606" on="1"/>
        <pt x="298" y="620" on="0"/>
        <pt x="293" y="653" on="0"/>
        <pt x="293" y="658" on="1"/>
        <pt x="293" y="661" on="0"/>
        <pt x="310" y="670" on="1"/>
        <pt x="359" y="694" on="0"/>
        <pt x="411" y="694" on="1"/>
        <pt x="421" y="635" on="0"/>
        <pt x="454" y="452" on="0"/>
        <pt x="550" y="76" on="0"/>
        <pt x="594" y="2" on="1"/>
        <pt x="601" y="-10" on="1"/>
        <pt x="601" y="-15" on="0"/>
        <pt x="563" y="-39" on="0"/>
        <pt x="501" y="-61" on="0"/>
        <pt x="475" y="-61" on="1"/>
        <pt x="466" y="-61" on="0"/>
        <pt x="397" y="166" on="0"/>
      </contour>
      <contour>
        <pt x="361" y="327" on="1"/>
        <pt x="327" y="471" on="0"/>
        <pt x="321" y="505" on="0"/>
        <pt x="317" y="505" on="0"/>
        <pt x="314" y="501" on="1"/>
        <pt x="305" y="484" on="0"/>
        <pt x="256" y="354" on="0"/>
        <pt x="249" y="329" on="1"/>
        <pt x="360" y="329" on="0"/>
      </contour>
    </TTGlyph>
    <TTGlyph name="Adieresis" xMin="25" yMin="-61" xMax="601" yMax="833">
      <contour>
        <pt x="300" y="803" on="0"/>
        <pt x="300" y="761" on="0"/>
        <pt x="268" y="729" on="0"/>
        <pt x="225" y="729" on="0"/>
        <pt x="197" y="757" on="0"/>
        <pt x="197" y="802" on="0"/>
        <pt x="228" y="833" on="0"/>
        <pt x="270" y="833" on="0"/>
      </contour>
      <contour>
        <pt x="487" y="803" on="0"/>
        <pt x="487" y="761" on="0"/>
        <pt x="456" y="729" on="0"/>
        <pt x="413" y="729" on="0"/>
        <pt x="385" y="757" on="0"/>
        <pt x="385" y="802" on="0"/>
        <pt x="416" y="833" on="0"/>
        <pt x="458" y="833" on="0"/>
      </contour>
      <contour>
        <pt x="385" y="224" on="1"/>
        <pt x="397" y="166" on="0"/>
        <pt x="466" y="-61" on="0"/>
        <pt x="475" y="-61" on="1"/>
        <pt x="501" y="-61" on="0"/>
        <pt x="563" y="-39" on="0"/>
        <pt x="601" y="-15" on="0"/>
        <pt x="601" y="-10" on="1"/>
        <pt x="595" y="1" on="0"/>
        <pt x="594" y="2" on="1"/>
        <pt x="550" y="76" on="0"/>
        <pt x="459" y="422" on="0"/>
        <pt x="435" y="558" on="1"/>
        <pt x="411" y="694" on="1"/>
        <pt x="359" y="694" on="0"/>
        <pt x="310" y="670" on="1"/>
        <pt x="293" y="661" on="0"/>
        <pt x="293" y="658" on="1"/>
        <pt x="293" y="653" on="0"/>
        <pt x="298" y="620" on="0"/>
        <pt x="300" y="606" on="1"/>
        <pt x="302" y="593" on="1"/>
        <pt x="293" y="593" on="0"/>
        <pt x="229" y="580" on="0"/>
        <pt x="225" y="577" on="1"/>
        <pt x="214" y="564" on="0"/>
        <pt x="132" y="326" on="1"/>
        <pt x="49" y="323" on="0"/>
        <pt x="49" y="322" on="1"/>
        <pt x="49" y="299" on="0"/>
        <pt x="83" y="230" on="0"/>
        <pt x="96" y="219" on="1"/>
        <pt x="25" y="26" on="0"/>
        <pt x="25" y="-14" on="1"/>
        <pt x="25" y="-20" on="0"/>
        <pt x="106" y="-31" on="0"/>
        <pt x="155" y="-31" on="0"/>
        <pt x="155" y="-30" on="1"/>
        <pt x="162" y="47" on="0"/>
        <pt x="215" y="221" on="1"/>
        <pt x="227" y="225" on="0"/>
        <pt x="371" y="225" on="0"/>
      </contour>
      <contour>
        <pt x="321" y="502" on="1"/>
        <pt x="327" y="471" on="0"/>
        <pt x="361" y="327" on="1"/>
        <pt x="360" y="329" on="0"/>
        <pt x="249" y="329" on="1"/>
        <pt x="256" y="354" on="0"/>
        <pt x="305" y="484" on="0"/>
        <pt x="314" y="501" on="1"/>
        <pt x="317" y="505" on="0"/>
        <pt x="319" y="505" on="1"/>
      </contour>
    </TTGlyph>
    <TTGlyph name="Agrave" xMin="25" yMin="-61" xMax="601" yMax="851">
      <contour>
        <pt x="357" y="720" on="1"/>
        <pt x="347" y="732" on="0"/>
        <pt x="278" y="794" on="0"/>
        <pt x="258" y="806" on="1"/>
        <pt x="258" y="818" on="0"/>
        <pt x="303" y="851" on="0"/>
        <pt x="319" y="851" on="1"/>
        <pt x="338" y="840" on="0"/>
        <pt x="393" y="764" on="0"/>
        <pt x="393" y="751" on="1"/>
        <pt x="391" y="742" on="0"/>
        <pt x="366" y="720" on="0"/>
      </contour>
      <contour>
        <pt x="385" y="224" on="1"/>
        <pt x="371" y="225" on="0"/>
        <pt x="227" y="225" on="0"/>
        <pt x="215" y="221" on="1"/>
        <pt x="162" y="47" on="0"/>
        <pt x="155" y="-30" on="1"/>
        <pt x="155" y="-31" on="0"/>
        <pt x="106" y="-31" on="0"/>
        <pt x="80" y="-28" on="1"/>
        <pt x="25" y="-20" on="0"/>
        <pt x="25" y="-14" on="1"/>
        <pt x="25" y="26" on="0"/>
        <pt x="96" y="219" on="1"/>
        <pt x="83" y="230" on="0"/>
        <pt x="49" y="299" on="0"/>
        <pt x="49" y="322" on="1"/>
        <pt x="49" y="323" on="0"/>
        <pt x="132" y="326" on="1"/>
        <pt x="214" y="564" on="0"/>
        <pt x="225" y="577" on="1"/>
        <pt x="229" y="580" on="0"/>
        <pt x="293" y="593" on="0"/>
        <pt x="302" y="593" on="1"/>
        <pt x="300" y="606" on="1"/>
        <pt x="298" y="620" on="0"/>
        <pt x="293" y="653" on="0"/>
        <pt x="293" y="658" on="1"/>
        <pt x="293" y="661" on="0"/>
        <pt x="310" y="670" on="1"/>
        <pt x="359" y="694" on="0"/>
        <pt x="411" y="694" on="1"/>
        <pt x="421" y="635" on="0"/>
        <pt x="454" y="452" on="0"/>
        <pt x="550" y="76" on="0"/>
        <pt x="594" y="2" on="1"/>
        <pt x="601" y="-10" on="1"/>
        <pt x="601" y="-15" on="0"/>
        <pt x="563" y="-39" on="0"/>
        <pt x="501" y="-61" on="0"/>
        <pt x="475" y="-61" on="1"/>
        <pt x="466" y="-61" on="0"/>
        <pt x="397" y="166" on="0"/>
      </contour>
      <contour>
        <pt x="361" y="327" on="1"/>
        <pt x="327" y="471" on="0"/>
        <pt x="321" y="505" on="0"/>
        <pt x="317" y="505" on="0"/>
        <pt x="314" y="501" on="1"/>
        <pt x="305" y="484" on="0"/>
        <pt x="256" y="354" on="0"/>
        <pt x="249" y="329" on="1"/>
        <pt x="360" y="329" on="0"/>
      </contour>
    </TTGlyph>
    <TTGlyph name="Aring" xMin="25" yMin="-61" xMax="601" yMax="852">
      <contour>
        <pt x="372" y="797" on="0"/>
        <pt x="355" y="814" on="0"/>
        <pt x="332" y="814" on="0"/>
        <pt x="314" y="796" on="0"/>
        <pt x="314" y="771" on="0"/>
        <pt x="330" y="755" on="0"/>
        <pt x="354" y="755" on="0"/>
        <pt x="372" y="773" on="0"/>
      </contour>
      <contour>
        <pt x="409" y="813" on="0"/>
        <pt x="409" y="759" on="0"/>
        <pt x="368" y="718" on="0"/>
        <pt x="314" y="718" on="0"/>
        <pt x="277" y="754" on="0"/>
        <pt x="277" y="811" on="0"/>
        <pt x="317" y="852" on="0"/>
        <pt x="371" y="852" on="0"/>
      </contour>
      <contour>
        <pt x="385" y="224" on="1"/>
        <pt x="397" y="166" on="0"/>
        <pt x="466" y="-61" on="0"/>
        <pt x="475" y="-61" on="1"/>
        <pt x="501" y="-61" on="0"/>
        <pt x="563" y="-39" on="0"/>
        <pt x="601" y="-15" on="0"/>
        <pt x="601" y="-10" on="1"/>
        <pt x="595" y="1" on="0"/>
        <pt x="594" y="2" on="1"/>
        <pt x="550" y="76" on="0"/>
        <pt x="459" y="422" on="0"/>
        <pt x="435" y="558" on="1"/>
        <pt x="411" y="694" on="1"/>
        <pt x="359" y="694" on="0"/>
        <pt x="310" y="670" on="1"/>
        <pt x="293" y="661" on="0"/>
        <pt x="293" y="658" on="1"/>
        <pt x="293" y="653" on="0"/>
        <pt x="298" y="620" on="0"/>
        <pt x="300" y="606" on="1"/>
        <pt x="302" y="593" on="1"/>
        <pt x="293" y="593" on="0"/>
        <pt x="229" y="580" on="0"/>
        <pt x="225" y="577" on="1"/>
        <pt x="214" y="564" on="0"/>
        <pt x="132" y="326" on="1"/>
        <pt x="49" y="323" on="0"/>
        <pt x="49" y="322" on="1"/>
        <pt x="49" y="299" on="0"/>
        <pt x="83" y="230" on="0"/>
        <pt x="96" y="219" on="1"/>
        <pt x="25" y="26" on="0"/>
        <pt x="25" y="-14" on="1"/>
        <pt x="25" y="-20" on="0"/>
        <pt x="106" y="-31" on="0"/>
        <pt x="155" y="-31" on="0"/>
        <pt x="155" y="-30" on="1"/>
        <pt x="162" y="47" on="0"/>
        <pt x="215" y="221" on="1"/>
        <pt x="227" y="225" on="0"/>
        <pt x="371" y="225" on="0"/>
      </contour>
      <contour>
        <pt x="321" y="502" on="1"/>
        <pt x="327" y="471" on="0"/>
        <pt x="361" y="327" on="1"/>
        <pt x="360" y="329" on="0"/>
        <pt x="249" y="329" on="1"/>
        <pt x="256" y="354" on="0"/>
        <pt x="305" y="484" on="0"/>
        <pt x="314" y="501" on="1"/>
        <pt x="317" y="505" on="0"/>
        <pt x="319" y="505" on="1"/>
      </contour>
    </TTGlyph>
    <TTGlyph name="Atilde" xMin="25" yMin="-61" xMax="601" yMax="818">
      <contour>
        <pt x="352" y="724" on="0"/>
        <pt x="305" y="738" on="0"/>
        <pt x="255" y="738" on="0"/>
        <pt x="223" y="722" on="1"/>
        <pt x="217" y="730" on="0"/>
        <pt x="217" y="790" on="0"/>
        <pt x="223" y="796" on="1"/>
        <pt x="248" y="815" on="0"/>
        <pt x="301" y="815" on="0"/>
        <pt x="343" y="801" on="0"/>
        <pt x="395" y="801" on="0"/>
        <pt x="416" y="818" on="1"/>
        <pt x="423" y="818" on="0"/>
        <pt x="423" y="792" on="1"/>
        <pt x="423" y="757" on="0"/>
        <pt x="415" y="739" on="1"/>
        <pt x="395" y="724" on="0"/>
      </contour>
      <contour>
        <pt x="385" y="224" on="1"/>
        <pt x="371" y="225" on="0"/>
        <pt x="227" y="225" on="0"/>
        <pt x="215" y="221" on="1"/>
        <pt x="162" y="47" on="0"/>
        <pt x="155" y="-30" on="1"/>
        <pt x="155" y="-31" on="0"/>
        <pt x="106" y="-31" on="0"/>
        <pt x="80" y="-28" on="1"/>
        <pt x="25" y="-20" on="0"/>
        <pt x="25" y="-14" on="1"/>
        <pt x="25" y="26" on="0"/>
        <pt x="96" y="219" on="1"/>
        <pt x="83" y="230" on="0"/>
        <pt x="49" y="299" on="0"/>
        <pt x="49" y="322" on="1"/>
        <pt x="49" y="323" on="0"/>
        <pt x="132" y="326" on="1"/>
        <pt x="214" y="564" on="0"/>
        <pt x="225" y="577" on="1"/>
        <pt x="229" y="580" on="0"/>
        <pt x="293" y="593" on="0"/>
        <pt x="302" y="593" on="1"/>
        <pt x="300" y="606" on="1"/>
        <pt x="298" y="620" on="0"/>
        <pt x="293" y="653" on="0"/>
        <pt x="293" y="658" on="1"/>
        <pt x="293" y="661" on="0"/>
        <pt x="310" y="670" on="1"/>
        <pt x="359" y="694" on="0"/>
        <pt x="411" y="694" on="1"/>
        <pt x="421" y="635" on="0"/>
        <pt x="454" y="452" on="0"/>
        <pt x="550" y="76" on="0"/>
        <pt x="594" y="2" on="1"/>
        <pt x="601" y="-10" on="1"/>
        <pt x="601" y="-15" on="0"/>
        <pt x="563" y="-39" on="0"/>
        <pt x="501" y="-61" on="0"/>
        <pt x="475" y="-61" on="1"/>
        <pt x="466" y="-61" on="0"/>
        <pt x="397" y="166" on="0"/>
      </contour>
      <contour>
        <pt x="361" y="327" on="1"/>
        <pt x="327" y="471" on="0"/>
        <pt x="321" y="505" on="0"/>
        <pt x="317" y="505" on="0"/>
        <pt x="314" y="501" on="1"/>
        <pt x="305" y="484" on="0"/>
        <pt x="256" y="354" on="0"/>
        <pt x="249" y="329" on="1"/>
        <pt x="360" y="329" on="0"/>
      </contour>
    </TTGlyph>
    <TTGlyph name="B" xMin="40" yMin="-46" xMax="549" yMax="677">
      <contour>
        <pt x="223" y="68" on="1"/>
        <pt x="290" y="68" on="0"/>
        <pt x="410" y="146" on="0"/>
        <pt x="410" y="199" on="1"/>
        <pt x="410" y="237" on="0"/>
        <pt x="380" y="262" on="1"/>
        <pt x="328" y="304" on="0"/>
        <pt x="235" y="304" on="1"/>
        <pt x="212" y="304" on="0"/>
        <pt x="209" y="302" on="0"/>
        <pt x="209" y="118" on="0"/>
        <pt x="218" y="69" on="1"/>
        <pt x="220" y="68" on="0"/>
      </contour>
      <contour>
        <pt x="327" y="436" on="0"/>
        <pt x="364" y="479" on="0"/>
        <pt x="364" y="526" on="0"/>
        <pt x="336" y="554" on="0"/>
        <pt x="294" y="568" on="0"/>
        <pt x="255" y="574" on="0"/>
        <pt x="219" y="574" on="0"/>
        <pt x="216" y="571" on="0"/>
        <pt x="211" y="410" on="0"/>
        <pt x="211" y="405" on="1"/>
        <pt x="212" y="404" on="0"/>
        <pt x="231" y="404" on="0"/>
        <pt x="275" y="415" on="0"/>
      </contour>
      <contour>
        <pt x="84" y="140" on="1"/>
        <pt x="89" y="522" on="1"/>
        <pt x="89" y="562" on="0"/>
        <pt x="87" y="564" on="1"/>
        <pt x="76" y="575" on="0"/>
        <pt x="40" y="650" on="0"/>
        <pt x="40" y="661" on="1"/>
        <pt x="41" y="664" on="1"/>
        <pt x="47" y="669" on="0"/>
        <pt x="162" y="677" on="0"/>
        <pt x="275" y="677" on="0"/>
        <pt x="369" y="663" on="0"/>
        <pt x="458" y="633" on="0"/>
        <pt x="512" y="574" on="0"/>
        <pt x="512" y="501" on="0"/>
        <pt x="481" y="442" on="0"/>
        <pt x="458" y="422" on="1"/>
        <pt x="423" y="392" on="0"/>
        <pt x="390" y="376" on="1"/>
        <pt x="388" y="374" on="0"/>
        <pt x="388" y="373" on="1"/>
        <pt x="389" y="372" on="0"/>
        <pt x="416" y="364" on="0"/>
        <pt x="441" y="353" on="0"/>
        <pt x="477" y="335" on="0"/>
        <pt x="507" y="310" on="0"/>
        <pt x="520" y="294" on="1"/>
        <pt x="549" y="260" on="0"/>
        <pt x="549" y="143" on="0"/>
        <pt x="477" y="41" on="0"/>
        <pt x="417" y="12" on="1"/>
        <pt x="297" y="-46" on="0"/>
        <pt x="144" y="-46" on="1"/>
        <pt x="93" y="-43" on="1"/>
        <pt x="90" y="-39" on="0"/>
        <pt x="84" y="98" on="0"/>
      </contour>
    </TTGlyph>
    <TTGlyph name="C" xMin="35" yMin="-31" xMax="585" yMax="679">
      <contour>
        <pt x="331" y="-31" on="1"/>
        <pt x="185" y="-31" on="0"/>
        <pt x="35" y="137" on="0"/>
        <pt x="35" y="270" on="1"/>
        <pt x="35" y="383" on="0"/>
        <pt x="85" y="480" on="1"/>
        <pt x="114" y="537" on="0"/>
        <pt x="202" y="623" on="0"/>
        <pt x="352" y="679" on="0"/>
        <pt x="447" y="679" on="1"/>
        <pt x="479" y="679" on="0"/>
        <pt x="529" y="667" on="0"/>
        <pt x="529" y="665" on="1"/>
        <pt x="529" y="617" on="0"/>
        <pt x="516" y="494" on="0"/>
        <pt x="515" y="493" on="1"/>
        <pt x="510" y="488" on="0"/>
        <pt x="437" y="466" on="0"/>
        <pt x="419" y="466" on="1"/>
        <pt x="419" y="472" on="1"/>
        <pt x="419" y="517" on="0"/>
        <pt x="393" y="553" on="0"/>
        <pt x="361" y="553" on="1"/>
        <pt x="290" y="553" on="0"/>
        <pt x="168" y="404" on="0"/>
        <pt x="168" y="274" on="1"/>
        <pt x="168" y="205" on="0"/>
        <pt x="202" y="150" on="1"/>
        <pt x="220" y="121" on="0"/>
        <pt x="289" y="85" on="0"/>
        <pt x="336" y="85" on="1"/>
        <pt x="430" y="85" on="0"/>
        <pt x="519" y="172" on="1"/>
        <pt x="523" y="172" on="0"/>
        <pt x="548" y="147" on="0"/>
        <pt x="560" y="126" on="1"/>
        <pt x="585" y="86" on="0"/>
        <pt x="585" y="68" on="0"/>
        <pt x="523" y="19" on="0"/>
        <pt x="397" y="-31" on="0"/>
      </contour>
    </TTGlyph>
    <TTGlyph name="Ccedilla" xMin="35" yMin="-192" xMax="585" yMax="679">
      <contour>
        <pt x="266" y="-157" on="1"/>
        <pt x="267" y="-151" on="1"/>
        <pt x="292" y="-151" on="0"/>
        <pt x="329" y="-131" on="0"/>
        <pt x="329" y="-108" on="0"/>
        <pt x="302" y="-91" on="0"/>
        <pt x="288" y="-88" on="1"/>
        <pt x="275" y="-86" on="1"/>
        <pt x="275" y="-63" on="0"/>
        <pt x="291" y="-29" on="1"/>
        <pt x="165" y="-17" on="0"/>
        <pt x="35" y="146" on="0"/>
        <pt x="35" y="270" on="1"/>
        <pt x="35" y="383" on="0"/>
        <pt x="85" y="480" on="1"/>
        <pt x="114" y="537" on="0"/>
        <pt x="202" y="623" on="0"/>
        <pt x="352" y="679" on="0"/>
        <pt x="447" y="679" on="1"/>
        <pt x="479" y="679" on="0"/>
        <pt x="529" y="667" on="0"/>
        <pt x="529" y="665" on="1"/>
        <pt x="529" y="617" on="0"/>
        <pt x="516" y="494" on="0"/>
        <pt x="515" y="493" on="1"/>
        <pt x="510" y="488" on="0"/>
        <pt x="437" y="466" on="0"/>
        <pt x="419" y="466" on="1"/>
        <pt x="419" y="472" on="1"/>
        <pt x="419" y="517" on="0"/>
        <pt x="393" y="553" on="0"/>
        <pt x="361" y="553" on="1"/>
        <pt x="290" y="553" on="0"/>
        <pt x="168" y="404" on="0"/>
        <pt x="168" y="274" on="1"/>
        <pt x="168" y="205" on="0"/>
        <pt x="202" y="150" on="1"/>
        <pt x="220" y="121" on="0"/>
        <pt x="289" y="85" on="0"/>
        <pt x="336" y="85" on="1"/>
        <pt x="430" y="85" on="0"/>
        <pt x="519" y="172" on="1"/>
        <pt x="523" y="172" on="0"/>
        <pt x="548" y="147" on="0"/>
        <pt x="560" y="126" on="1"/>
        <pt x="585" y="86" on="0"/>
        <pt x="585" y="68" on="0"/>
        <pt x="527" y="22" on="0"/>
        <pt x="408" y="-28" on="0"/>
        <pt x="345" y="-31" on="1"/>
        <pt x="339" y="-44" on="0"/>
        <pt x="339" y="-61" on="1"/>
        <pt x="345" y="-64" on="0"/>
        <pt x="364" y="-73" on="0"/>
        <pt x="395" y="-105" on="0"/>
        <pt x="395" y="-121" on="1"/>
        <pt x="395" y="-150" on="0"/>
        <pt x="318" y="-192" on="0"/>
        <pt x="282" y="-192" on="1"/>
        <pt x="279" y="-192" on="0"/>
        <pt x="266" y="-167" on="0"/>
      </contour>
    </TTGlyph>
    <TTGlyph name="D" xMin="41" yMin="-32" xMax="595" yMax="679">
      <contour>
        <pt x="422" y="200" on="0"/>
        <pt x="462" y="299" on="0"/>
        <pt x="462" y="411" on="0"/>
        <pt x="422" y="490" on="0"/>
        <pt x="368" y="531" on="0"/>
        <pt x="333" y="544" on="1"/>
        <pt x="279" y="564" on="0"/>
        <pt x="230" y="564" on="1"/>
        <pt x="217" y="564" on="0"/>
        <pt x="217" y="563" on="1"/>
        <pt x="210" y="556" on="0"/>
        <pt x="210" y="98" on="0"/>
        <pt x="217" y="91" on="1"/>
        <pt x="219" y="89" on="0"/>
        <pt x="244" y="89" on="0"/>
        <pt x="295" y="103" on="0"/>
        <pt x="364" y="142" on="0"/>
      </contour>
      <contour>
        <pt x="83" y="152" on="1"/>
        <pt x="86" y="547" on="1"/>
        <pt x="75" y="564" on="0"/>
        <pt x="41" y="651" on="0"/>
        <pt x="41" y="668" on="0"/>
        <pt x="42" y="669" on="1"/>
        <pt x="52" y="679" on="0"/>
        <pt x="160" y="679" on="1"/>
        <pt x="368" y="679" on="0"/>
        <pt x="595" y="505" on="0"/>
        <pt x="595" y="359" on="1"/>
        <pt x="595" y="287" on="0"/>
        <pt x="549" y="166" on="0"/>
        <pt x="472" y="83" on="0"/>
        <pt x="377" y="20" on="0"/>
        <pt x="324" y="2" on="1"/>
        <pt x="220" y="-32" on="0"/>
        <pt x="135" y="-32" on="1"/>
        <pt x="95" y="-32" on="0"/>
        <pt x="83" y="-20" on="0"/>
      </contour>
    </TTGlyph>
    <TTGlyph name="E" xMin="40" yMin="-18" xMax="500" yMax="664">
      <contour>
        <pt x="93" y="391" on="1"/>
        <pt x="94" y="499" on="1"/>
        <pt x="94" y="542" on="0"/>
        <pt x="92" y="546" on="1"/>
        <pt x="81" y="557" on="0"/>
        <pt x="46" y="641" on="0"/>
        <pt x="46" y="653" on="1"/>
        <pt x="57" y="664" on="0"/>
        <pt x="397" y="664" on="1"/>
        <pt x="481" y="664" on="0"/>
        <pt x="481" y="660" on="1"/>
        <pt x="481" y="639" on="0"/>
        <pt x="462" y="589" on="0"/>
        <pt x="441" y="559" on="0"/>
        <pt x="432" y="562" on="0"/>
        <pt x="359" y="562" on="0"/>
        <pt x="229" y="553" on="0"/>
        <pt x="217" y="541" on="0"/>
        <pt x="217" y="437" on="1"/>
        <pt x="218" y="395" on="1"/>
        <pt x="258" y="396" on="0"/>
        <pt x="414" y="396" on="0"/>
        <pt x="414" y="393" on="1"/>
        <pt x="414" y="357" on="0"/>
        <pt x="390" y="311" on="1"/>
        <pt x="381" y="295" on="0"/>
        <pt x="379" y="296" on="1"/>
        <pt x="353" y="296" on="0"/>
        <pt x="227" y="287" on="0"/>
        <pt x="217" y="281" on="1"/>
        <pt x="216" y="280" on="0"/>
        <pt x="216" y="114" on="0"/>
        <pt x="221" y="109" on="1"/>
        <pt x="237" y="93" on="0"/>
        <pt x="393" y="93" on="1"/>
        <pt x="456" y="93" on="0"/>
        <pt x="500" y="100" on="0"/>
        <pt x="500" y="99" on="1"/>
        <pt x="500" y="75" on="0"/>
        <pt x="468" y="9" on="0"/>
        <pt x="450" y="-8" on="1"/>
        <pt x="440" y="-18" on="0"/>
        <pt x="101" y="-18" on="0"/>
        <pt x="95" y="-10" on="1"/>
        <pt x="89" y="-5" on="0"/>
        <pt x="89" y="178" on="0"/>
        <pt x="91" y="280" on="1"/>
        <pt x="73" y="296" on="0"/>
        <pt x="40" y="364" on="0"/>
        <pt x="40" y="388" on="1"/>
        <pt x="40" y="389" on="0"/>
      </contour>
    </TTGlyph>
    <TTGlyph name="Eacute" xMin="40" yMin="-18" xMax="500" yMax="821">
      <contour>
        <pt x="246" y="690" on="1"/>
        <pt x="237" y="690" on="0"/>
        <pt x="212" y="712" on="0"/>
        <pt x="210" y="721" on="1"/>
        <pt x="210" y="734" on="0"/>
        <pt x="265" y="810" on="0"/>
        <pt x="284" y="821" on="1"/>
        <pt x="300" y="821" on="0"/>
        <pt x="345" y="788" on="0"/>
        <pt x="345" y="776" on="1"/>
        <pt x="325" y="764" on="0"/>
        <pt x="256" y="702" on="0"/>
      </contour>
      <contour>
        <pt x="93" y="391" on="1"/>
        <pt x="94" y="499" on="1"/>
        <pt x="94" y="542" on="0"/>
        <pt x="92" y="546" on="1"/>
        <pt x="81" y="557" on="0"/>
        <pt x="46" y="641" on="0"/>
        <pt x="46" y="653" on="1"/>
        <pt x="57" y="664" on="0"/>
        <pt x="397" y="664" on="1"/>
        <pt x="481" y="664" on="0"/>
        <pt x="481" y="660" on="1"/>
        <pt x="481" y="639" on="0"/>
        <pt x="462" y="589" on="0"/>
        <pt x="441" y="559" on="0"/>
        <pt x="432" y="562" on="0"/>
        <pt x="359" y="562" on="0"/>
        <pt x="229" y="553" on="0"/>
        <pt x="217" y="541" on="0"/>
        <pt x="217" y="437" on="1"/>
        <pt x="218" y="395" on="1"/>
        <pt x="258" y="396" on="0"/>
        <pt x="414" y="396" on="0"/>
        <pt x="414" y="393" on="1"/>
        <pt x="414" y="357" on="0"/>
        <pt x="390" y="311" on="1"/>
        <pt x="381" y="295" on="0"/>
        <pt x="379" y="296" on="1"/>
        <pt x="353" y="296" on="0"/>
        <pt x="227" y="287" on="0"/>
        <pt x="217" y="281" on="1"/>
        <pt x="216" y="280" on="0"/>
        <pt x="216" y="114" on="0"/>
        <pt x="221" y="109" on="1"/>
        <pt x="237" y="93" on="0"/>
        <pt x="393" y="93" on="1"/>
        <pt x="456" y="93" on="0"/>
        <pt x="500" y="100" on="0"/>
        <pt x="500" y="99" on="1"/>
        <pt x="500" y="75" on="0"/>
        <pt x="468" y="9" on="0"/>
        <pt x="450" y="-8" on="1"/>
        <pt x="440" y="-18" on="0"/>
        <pt x="101" y="-18" on="0"/>
        <pt x="95" y="-10" on="1"/>
        <pt x="89" y="-5" on="0"/>
        <pt x="89" y="178" on="0"/>
        <pt x="91" y="280" on="1"/>
        <pt x="73" y="296" on="0"/>
        <pt x="40" y="364" on="0"/>
        <pt x="40" y="388" on="1"/>
        <pt x="40" y="389" on="0"/>
      </contour>
    </TTGlyph>
    <TTGlyph name="Ecircumflex" xMin="40" yMin="-18" xMax="500" yMax="819">
      <contour>
        <pt x="265" y="754" on="1"/>
        <pt x="256" y="749" on="0"/>
        <pt x="200" y="697" on="0"/>
        <pt x="193" y="688" on="1"/>
        <pt x="184" y="688" on="0"/>
        <pt x="158" y="710" on="0"/>
        <pt x="156" y="719" on="1"/>
        <pt x="156" y="732" on="0"/>
        <pt x="211" y="808" on="0"/>
        <pt x="230" y="819" on="1"/>
        <pt x="245" y="819" on="0"/>
        <pt x="265" y="806" on="1"/>
        <pt x="284" y="819" on="0"/>
        <pt x="299" y="819" on="1"/>
        <pt x="318" y="808" on="0"/>
        <pt x="373" y="732" on="0"/>
        <pt x="373" y="719" on="1"/>
        <pt x="371" y="710" on="0"/>
        <pt x="345" y="688" on="0"/>
        <pt x="336" y="688" on="1"/>
        <pt x="331" y="695" on="0"/>
        <pt x="273" y="749" on="0"/>
      </contour>
      <contour>
        <pt x="93" y="391" on="1"/>
        <pt x="94" y="499" on="1"/>
        <pt x="94" y="542" on="0"/>
        <pt x="92" y="546" on="1"/>
        <pt x="81" y="557" on="0"/>
        <pt x="46" y="641" on="0"/>
        <pt x="46" y="653" on="1"/>
        <pt x="57" y="664" on="0"/>
        <pt x="397" y="664" on="1"/>
        <pt x="481" y="664" on="0"/>
        <pt x="481" y="660" on="1"/>
        <pt x="481" y="639" on="0"/>
        <pt x="462" y="589" on="0"/>
        <pt x="441" y="559" on="0"/>
        <pt x="432" y="562" on="0"/>
        <pt x="359" y="562" on="0"/>
        <pt x="229" y="553" on="0"/>
        <pt x="217" y="541" on="0"/>
        <pt x="217" y="437" on="1"/>
        <pt x="218" y="395" on="1"/>
        <pt x="258" y="396" on="0"/>
        <pt x="414" y="396" on="0"/>
        <pt x="414" y="393" on="1"/>
        <pt x="414" y="357" on="0"/>
        <pt x="390" y="311" on="1"/>
        <pt x="381" y="295" on="0"/>
        <pt x="379" y="296" on="1"/>
        <pt x="353" y="296" on="0"/>
        <pt x="227" y="287" on="0"/>
        <pt x="217" y="281" on="1"/>
        <pt x="216" y="280" on="0"/>
        <pt x="216" y="114" on="0"/>
        <pt x="221" y="109" on="1"/>
        <pt x="237" y="93" on="0"/>
        <pt x="393" y="93" on="1"/>
        <pt x="456" y="93" on="0"/>
        <pt x="500" y="100" on="0"/>
        <pt x="500" y="99" on="1"/>
        <pt x="500" y="75" on="0"/>
        <pt x="468" y="9" on="0"/>
        <pt x="450" y="-8" on="1"/>
        <pt x="440" y="-18" on="0"/>
        <pt x="101" y="-18" on="0"/>
        <pt x="95" y="-10" on="1"/>
        <pt x="89" y="-5" on="0"/>
        <pt x="89" y="178" on="0"/>
        <pt x="91" y="280" on="1"/>
        <pt x="73" y="296" on="0"/>
        <pt x="40" y="364" on="0"/>
        <pt x="40" y="388" on="1"/>
        <pt x="40" y="389" on="0"/>
      </contour>
    </TTGlyph>
    <TTGlyph name="Edieresis" xMin="40" yMin="-18" xMax="500" yMax="798">
      <contour>
        <pt x="223" y="768" on="0"/>
        <pt x="223" y="726" on="0"/>
        <pt x="191" y="694" on="0"/>
        <pt x="148" y="694" on="0"/>
        <pt x="120" y="722" on="0"/>
        <pt x="120" y="767" on="0"/>
        <pt x="151" y="798" on="0"/>
        <pt x="193" y="798" on="0"/>
      </contour>
      <contour>
        <pt x="410" y="768" on="0"/>
        <pt x="410" y="726" on="0"/>
        <pt x="379" y="694" on="0"/>
        <pt x="336" y="694" on="0"/>
        <pt x="308" y="722" on="0"/>
        <pt x="308" y="767" on="0"/>
        <pt x="339" y="798" on="0"/>
        <pt x="381" y="798" on="0"/>
      </contour>
      <contour>
        <pt x="93" y="391" on="1"/>
        <pt x="94" y="499" on="1"/>
        <pt x="94" y="542" on="0"/>
        <pt x="92" y="546" on="1"/>
        <pt x="81" y="557" on="0"/>
        <pt x="46" y="641" on="0"/>
        <pt x="46" y="653" on="1"/>
        <pt x="57" y="664" on="0"/>
        <pt x="397" y="664" on="1"/>
        <pt x="481" y="664" on="0"/>
        <pt x="481" y="660" on="1"/>
        <pt x="481" y="639" on="0"/>
        <pt x="462" y="589" on="0"/>
        <pt x="441" y="559" on="0"/>
        <pt x="432" y="562" on="0"/>
        <pt x="359" y="562" on="0"/>
        <pt x="229" y="553" on="0"/>
        <pt x="217" y="541" on="0"/>
        <pt x="217" y="437" on="1"/>
        <pt x="218" y="395" on="1"/>
        <pt x="258" y="396" on="0"/>
        <pt x="414" y="396" on="0"/>
        <pt x="414" y="393" on="1"/>
        <pt x="414" y="357" on="0"/>
        <pt x="390" y="311" on="1"/>
        <pt x="381" y="295" on="0"/>
        <pt x="379" y="296" on="1"/>
        <pt x="353" y="296" on="0"/>
        <pt x="227" y="287" on="0"/>
        <pt x="217" y="281" on="1"/>
        <pt x="216" y="280" on="0"/>
        <pt x="216" y="114" on="0"/>
        <pt x="221" y="109" on="1"/>
        <pt x="237" y="93" on="0"/>
        <pt x="393" y="93" on="1"/>
        <pt x="456" y="93" on="0"/>
        <pt x="500" y="100" on="0"/>
        <pt x="500" y="99" on="1"/>
        <pt x="500" y="75" on="0"/>
        <pt x="468" y="9" on="0"/>
        <pt x="450" y="-8" on="1"/>
        <pt x="440" y="-18" on="0"/>
        <pt x="101" y="-18" on="0"/>
        <pt x="95" y="-10" on="1"/>
        <pt x="89" y="-5" on="0"/>
        <pt x="89" y="178" on="0"/>
        <pt x="91" y="280" on="1"/>
        <pt x="73" y="296" on="0"/>
        <pt x="40" y="364" on="0"/>
        <pt x="40" y="388" on="1"/>
        <pt x="40" y="389" on="0"/>
      </contour>
    </TTGlyph>
    <TTGlyph name="Egrave" xMin="40" yMin="-18" xMax="500" yMax="819">
      <contour>
        <pt x="296" y="688" on="1"/>
        <pt x="286" y="700" on="0"/>
        <pt x="217" y="762" on="0"/>
        <pt x="197" y="774" on="1"/>
        <pt x="197" y="786" on="0"/>
        <pt x="242" y="819" on="0"/>
        <pt x="258" y="819" on="1"/>
        <pt x="277" y="808" on="0"/>
        <pt x="332" y="732" on="0"/>
        <pt x="332" y="719" on="1"/>
        <pt x="330" y="710" on="0"/>
        <pt x="305" y="688" on="0"/>
      </contour>
      <contour>
        <pt x="93" y="391" on="1"/>
        <pt x="94" y="499" on="1"/>
        <pt x="94" y="542" on="0"/>
        <pt x="92" y="546" on="1"/>
        <pt x="81" y="557" on="0"/>
        <pt x="46" y="641" on="0"/>
        <pt x="46" y="653" on="1"/>
        <pt x="57" y="664" on="0"/>
        <pt x="397" y="664" on="1"/>
        <pt x="481" y="664" on="0"/>
        <pt x="481" y="660" on="1"/>
        <pt x="481" y="639" on="0"/>
        <pt x="462" y="589" on="0"/>
        <pt x="441" y="559" on="0"/>
        <pt x="432" y="562" on="0"/>
        <pt x="359" y="562" on="0"/>
        <pt x="229" y="553" on="0"/>
        <pt x="217" y="541" on="0"/>
        <pt x="217" y="437" on="1"/>
        <pt x="218" y="395" on="1"/>
        <pt x="258" y="396" on="0"/>
        <pt x="414" y="396" on="0"/>
        <pt x="414" y="393" on="1"/>
        <pt x="414" y="357" on="0"/>
        <pt x="390" y="311" on="1"/>
        <pt x="381" y="295" on="0"/>
        <pt x="379" y="296" on="1"/>
        <pt x="353" y="296" on="0"/>
        <pt x="227" y="287" on="0"/>
        <pt x="217" y="281" on="1"/>
        <pt x="216" y="280" on="0"/>
        <pt x="216" y="114" on="0"/>
        <pt x="221" y="109" on="1"/>
        <pt x="237" y="93" on="0"/>
        <pt x="393" y="93" on="1"/>
        <pt x="456" y="93" on="0"/>
        <pt x="500" y="100" on="0"/>
        <pt x="500" y="99" on="1"/>
        <pt x="500" y="75" on="0"/>
        <pt x="468" y="9" on="0"/>
        <pt x="450" y="-8" on="1"/>
        <pt x="440" y="-18" on="0"/>
        <pt x="101" y="-18" on="0"/>
        <pt x="95" y="-10" on="1"/>
        <pt x="89" y="-5" on="0"/>
        <pt x="89" y="178" on="0"/>
        <pt x="91" y="280" on="1"/>
        <pt x="73" y="296" on="0"/>
        <pt x="40" y="364" on="0"/>
        <pt x="40" y="388" on="1"/>
        <pt x="40" y="389" on="0"/>
      </contour>
    </TTGlyph>
    <TTGlyph name="Eth" xMin="23" yMin="-32" xMax="595" yMax="679">
      <contour>
        <pt x="271" y="-15" on="0"/>
        <pt x="177" y="-32" on="0"/>
        <pt x="95" y="-32" on="0"/>
        <pt x="83" y="-20" on="0"/>
        <pt x="83" y="152" on="1"/>
        <pt x="83" y="309" on="1"/>
        <pt x="33" y="309" on="1"/>
        <pt x="23" y="322" on="0"/>
        <pt x="23" y="350" on="0"/>
        <pt x="31" y="370" on="0"/>
        <pt x="35" y="371" on="1"/>
        <pt x="84" y="371" on="1"/>
        <pt x="86" y="493" on="0"/>
        <pt x="86" y="547" on="1"/>
        <pt x="75" y="564" on="0"/>
        <pt x="41" y="651" on="0"/>
        <pt x="41" y="668" on="0"/>
        <pt x="42" y="669" on="1"/>
        <pt x="52" y="679" on="0"/>
        <pt x="160" y="679" on="1"/>
        <pt x="368" y="679" on="0"/>
        <pt x="595" y="505" on="0"/>
        <pt x="595" y="359" on="1"/>
        <pt x="595" y="287" on="0"/>
        <pt x="549" y="166" on="0"/>
        <pt x="472" y="83" on="0"/>
        <pt x="377" y="20" on="0"/>
      </contour>
      <contour>
        <pt x="422" y="200" on="0"/>
        <pt x="462" y="299" on="0"/>
        <pt x="462" y="411" on="0"/>
        <pt x="422" y="490" on="0"/>
        <pt x="368" y="531" on="0"/>
        <pt x="333" y="544" on="1"/>
        <pt x="279" y="564" on="0"/>
        <pt x="230" y="564" on="1"/>
        <pt x="217" y="564" on="0"/>
        <pt x="217" y="563" on="1"/>
        <pt x="212" y="558" on="0"/>
        <pt x="210" y="371" on="1"/>
        <pt x="304" y="371" on="1"/>
        <pt x="313" y="356" on="0"/>
        <pt x="313" y="322" on="0"/>
        <pt x="303" y="309" on="1"/>
        <pt x="210" y="309" on="1"/>
        <pt x="210" y="300" on="1"/>
        <pt x="210" y="98" on="0"/>
        <pt x="217" y="91" on="1"/>
        <pt x="219" y="89" on="0"/>
        <pt x="244" y="89" on="0"/>
        <pt x="295" y="103" on="0"/>
        <pt x="364" y="142" on="0"/>
      </contour>
    </TTGlyph>
    <TTGlyph name="Euro" xMin="20" yMin="-14" xMax="525" yMax="670">
      <contour>
        <pt x="421" y="82" on="1"/>
        <pt x="481" y="82" on="0"/>
        <pt x="521" y="93" on="1"/>
        <pt x="525" y="65" on="1"/>
        <pt x="525" y="19" on="0"/>
        <pt x="508" y="-4" on="1"/>
        <pt x="502" y="-10" on="0"/>
        <pt x="422" y="-13" on="1"/>
        <pt x="396" y="-14" on="1"/>
        <pt x="245" y="-14" on="0"/>
        <pt x="112" y="102" on="0"/>
        <pt x="99" y="224" on="1"/>
        <pt x="20" y="224" on="1"/>
        <pt x="20" y="270" on="0"/>
        <pt x="45" y="295" on="1"/>
        <pt x="94" y="295" on="1"/>
        <pt x="94" y="361" on="1"/>
        <pt x="20" y="361" on="1"/>
        <pt x="20" y="407" on="0"/>
        <pt x="45" y="432" on="1"/>
        <pt x="99" y="432" on="1"/>
        <pt x="114" y="553" on="0"/>
        <pt x="247" y="670" on="0"/>
        <pt x="396" y="670" on="1"/>
        <pt x="502" y="666" on="0"/>
        <pt x="508" y="660" on="1"/>
        <pt x="525" y="644" on="0"/>
        <pt x="525" y="591" on="1"/>
        <pt x="525" y="571" on="0"/>
        <pt x="521" y="563" on="1"/>
        <pt x="494" y="574" on="0"/>
        <pt x="421" y="574" on="1"/>
        <pt x="315" y="574" on="0"/>
        <pt x="228" y="509" on="0"/>
        <pt x="218" y="432" on="1"/>
        <pt x="418" y="432" on="1"/>
        <pt x="418" y="387" on="0"/>
        <pt x="393" y="361" on="1"/>
        <pt x="213" y="361" on="1"/>
        <pt x="213" y="295" on="1"/>
        <pt x="418" y="295" on="1"/>
        <pt x="418" y="250" on="0"/>
        <pt x="393" y="224" on="1"/>
        <pt x="218" y="224" on="1"/>
        <pt x="228" y="147" on="0"/>
        <pt x="315" y="82" on="0"/>
      </contour>
    </TTGlyph>
    <TTGlyph name="F" xMin="40" yMin="-33" xMax="477" yMax="664">
      <contour>
        <pt x="122" y="-33" on="1"/>
        <pt x="91" y="-30" on="1"/>
        <pt x="89" y="-20" on="0"/>
        <pt x="89" y="233" on="0"/>
        <pt x="90" y="284" on="1"/>
        <pt x="73" y="300" on="0"/>
        <pt x="40" y="367" on="0"/>
        <pt x="40" y="391" on="1"/>
        <pt x="40" y="392" on="0"/>
        <pt x="92" y="394" on="1"/>
        <pt x="93" y="436" on="0"/>
        <pt x="93" y="546" on="0"/>
        <pt x="92" y="547" on="1"/>
        <pt x="81" y="558" on="0"/>
        <pt x="46" y="641" on="0"/>
        <pt x="46" y="653" on="1"/>
        <pt x="57" y="664" on="0"/>
        <pt x="393" y="664" on="1"/>
        <pt x="477" y="664" on="0"/>
        <pt x="477" y="660" on="1"/>
        <pt x="477" y="639" on="0"/>
        <pt x="458" y="589" on="0"/>
        <pt x="437" y="560" on="0"/>
        <pt x="431" y="562" on="0"/>
        <pt x="365" y="562" on="0"/>
        <pt x="227" y="553" on="0"/>
        <pt x="215" y="542" on="0"/>
        <pt x="215" y="439" on="1"/>
        <pt x="216" y="397" on="1"/>
        <pt x="310" y="399" on="0"/>
        <pt x="410" y="399" on="0"/>
        <pt x="410" y="396" on="1"/>
        <pt x="410" y="357" on="0"/>
        <pt x="386" y="314" on="1"/>
        <pt x="378" y="299" on="0"/>
        <pt x="376" y="299" on="1"/>
        <pt x="366" y="299" on="1"/>
        <pt x="334" y="299" on="0"/>
        <pt x="220" y="289" on="0"/>
        <pt x="214" y="283" on="0"/>
        <pt x="214" y="39" on="0"/>
        <pt x="227" y="-5" on="1"/>
        <pt x="227" y="-18" on="0"/>
        <pt x="150" y="-33" on="0"/>
      </contour>
    </TTGlyph>
    <TTGlyph name="G" xMin="35" yMin="-39" xMax="611" yMax="671">
      <contour>
        <pt x="351" y="282" on="1"/>
        <pt x="290" y="279" on="1"/>
        <pt x="286" y="279" on="0"/>
        <pt x="286" y="305" on="0"/>
        <pt x="304" y="367" on="0"/>
        <pt x="332" y="395" on="0"/>
        <pt x="554" y="395" on="1"/>
        <pt x="611" y="395" on="0"/>
        <pt x="611" y="390" on="1"/>
        <pt x="611" y="367" on="0"/>
        <pt x="586" y="288" on="0"/>
        <pt x="577" y="275" on="1"/>
        <pt x="576" y="6" on="0"/>
        <pt x="565" y="-14" on="0"/>
        <pt x="503" y="-39" on="0"/>
        <pt x="460" y="-39" on="0"/>
        <pt x="460" y="-36" on="1"/>
        <pt x="460" y="18" on="0"/>
        <pt x="455" y="29" on="1"/>
        <pt x="453" y="31" on="1"/>
        <pt x="450" y="29" on="1"/>
        <pt x="391" y="-30" on="0"/>
        <pt x="296" y="-30" on="1"/>
        <pt x="166" y="-30" on="0"/>
        <pt x="35" y="138" on="0"/>
        <pt x="35" y="271" on="1"/>
        <pt x="35" y="383" on="0"/>
        <pt x="76" y="474" on="1"/>
        <pt x="102" y="531" on="0"/>
        <pt x="183" y="615" on="0"/>
        <pt x="326" y="671" on="0"/>
        <pt x="420" y="671" on="1"/>
        <pt x="441" y="671" on="0"/>
        <pt x="515" y="661" on="0"/>
        <pt x="520" y="655" on="0"/>
        <pt x="520" y="617" on="0"/>
        <pt x="510" y="551" on="0"/>
        <pt x="504" y="545" on="1"/>
        <pt x="473" y="561" on="0"/>
        <pt x="399" y="561" on="1"/>
        <pt x="293" y="561" on="0"/>
        <pt x="167" y="419" on="0"/>
        <pt x="167" y="282" on="1"/>
        <pt x="167" y="194" on="0"/>
        <pt x="239" y="88" on="0"/>
        <pt x="369" y="88" on="0"/>
        <pt x="450" y="152" on="0"/>
        <pt x="450" y="174" on="1"/>
        <pt x="450" y="206" on="1"/>
        <pt x="450" y="267" on="0"/>
        <pt x="444" y="273" on="1"/>
        <pt x="437" y="282" on="0"/>
      </contour>
    </TTGlyph>
    <TTGlyph name="H" xMin="40" yMin="-43" xMax="587" yMax="677">
      <contour>
        <pt x="211" y="392" on="1"/>
        <pt x="344" y="393" on="1"/>
        <pt x="418" y="393" on="0"/>
        <pt x="418" y="391" on="1"/>
        <pt x="418" y="522" on="0"/>
        <pt x="426" y="642" on="0"/>
        <pt x="426" y="646" on="0"/>
        <pt x="455" y="662" on="0"/>
        <pt x="507" y="677" on="0"/>
        <pt x="544" y="677" on="0"/>
        <pt x="544" y="673" on="1"/>
        <pt x="533" y="526" on="0"/>
        <pt x="533" y="193" on="0"/>
        <pt x="553" y="31" on="0"/>
        <pt x="587" y="-3" on="1"/>
        <pt x="587" y="-5" on="0"/>
        <pt x="568" y="-21" on="0"/>
        <pt x="497" y="-43" on="0"/>
        <pt x="466" y="-43" on="1"/>
        <pt x="454" y="-41" on="1"/>
        <pt x="435" y="-22" on="0"/>
        <pt x="420" y="97" on="0"/>
        <pt x="419" y="288" on="1"/>
        <pt x="402" y="289" on="0"/>
        <pt x="219" y="289" on="0"/>
        <pt x="210" y="286" on="1"/>
        <pt x="209" y="258" on="0"/>
        <pt x="209" y="67" on="0"/>
        <pt x="217" y="3" on="1"/>
        <pt x="217" y="-8" on="0"/>
        <pt x="153" y="-23" on="0"/>
        <pt x="98" y="-23" on="0"/>
        <pt x="87" y="-12" on="0"/>
        <pt x="87" y="166" on="1"/>
        <pt x="87" y="284" on="1"/>
        <pt x="74" y="296" on="0"/>
        <pt x="40" y="364" on="0"/>
        <pt x="40" y="386" on="1"/>
        <pt x="40" y="389" on="0"/>
        <pt x="89" y="389" on="1"/>
        <pt x="90" y="460" on="0"/>
        <pt x="90" y="552" on="1"/>
        <pt x="90" y="573" on="1"/>
        <pt x="64" y="621" on="0"/>
        <pt x="64" y="668" on="1"/>
        <pt x="64" y="672" on="0"/>
        <pt x="65" y="673" on="1"/>
        <pt x="71" y="674" on="0"/>
        <pt x="81" y="674" on="0"/>
        <pt x="116" y="674" on="0"/>
        <pt x="180" y="661" on="0"/>
        <pt x="218" y="645" on="0"/>
        <pt x="218" y="640" on="1"/>
        <pt x="211" y="591" on="0"/>
        <pt x="211" y="412" on="1"/>
      </contour>
    </TTGlyph>
    <TTGlyph name="I" xMin="45" yMin="-24" xMax="262" yMax="667">
      <contour>
        <pt x="258" y="89" on="1"/>
        <pt x="262" y="89" on="0"/>
        <pt x="262" y="-10" on="0"/>
        <pt x="256" y="-10" on="1"/>
        <pt x="111" y="-10" on="0"/>
        <pt x="48" y="-24" on="1"/>
        <pt x="45" y="-24" on="0"/>
        <pt x="45" y="64" on="0"/>
        <pt x="52" y="73" on="1"/>
        <pt x="64" y="79" on="0"/>
        <pt x="91" y="79" on="1"/>
        <pt x="89" y="113" on="0"/>
        <pt x="89" y="530" on="0"/>
        <pt x="94" y="560" on="1"/>
        <pt x="92" y="560" on="1"/>
        <pt x="65" y="560" on="0"/>
        <pt x="47" y="554" on="1"/>
        <pt x="45" y="554" on="0"/>
        <pt x="45" y="645" on="0"/>
        <pt x="51" y="651" on="1"/>
        <pt x="57" y="657" on="0"/>
        <pt x="205" y="667" on="0"/>
        <pt x="255" y="667" on="1"/>
        <pt x="258" y="667" on="0"/>
        <pt x="258" y="651" on="1"/>
        <pt x="255" y="577" on="1"/>
        <pt x="255" y="573" on="0"/>
        <pt x="252" y="573" on="1"/>
        <pt x="218" y="573" on="0"/>
        <pt x="214" y="570" on="0"/>
        <pt x="213" y="530" on="1"/>
        <pt x="209" y="372" on="0"/>
        <pt x="209" y="141" on="0"/>
        <pt x="217" y="88" on="1"/>
        <pt x="230" y="89" on="0"/>
      </contour>
    </TTGlyph>
    <TTGlyph name="Iacute" xMin="45" yMin="-24" xMax="262" yMax="819">
      <contour>
        <pt x="255" y="577" on="1"/>
        <pt x="258" y="651" on="1"/>
        <pt x="258" y="667" on="0"/>
        <pt x="255" y="667" on="1"/>
        <pt x="150" y="667" on="0"/>
        <pt x="52" y="652" on="0"/>
        <pt x="51" y="651" on="1"/>
        <pt x="45" y="645" on="0"/>
        <pt x="45" y="554" on="0"/>
        <pt x="47" y="554" on="1"/>
        <pt x="65" y="560" on="0"/>
        <pt x="92" y="560" on="1"/>
        <pt x="94" y="560" on="1"/>
        <pt x="89" y="530" on="0"/>
        <pt x="89" y="113" on="0"/>
        <pt x="91" y="79" on="1"/>
        <pt x="64" y="79" on="0"/>
        <pt x="52" y="73" on="1"/>
        <pt x="45" y="64" on="0"/>
        <pt x="45" y="-24" on="0"/>
        <pt x="48" y="-24" on="1"/>
        <pt x="111" y="-10" on="0"/>
        <pt x="256" y="-10" on="1"/>
        <pt x="259" y="-7" on="1"/>
        <pt x="262" y="20" on="0"/>
        <pt x="262" y="89" on="0"/>
        <pt x="258" y="89" on="1"/>
        <pt x="230" y="89" on="0"/>
        <pt x="217" y="88" on="1"/>
        <pt x="209" y="141" on="0"/>
        <pt x="209" y="357" on="0"/>
        <pt x="210" y="424" on="1"/>
        <pt x="214" y="570" on="0"/>
        <pt x="218" y="573" on="0"/>
        <pt x="252" y="573" on="1"/>
        <pt x="255" y="573" on="0"/>
      </contour>
      <contour>
        <pt x="122" y="688" on="1"/>
        <pt x="113" y="688" on="0"/>
        <pt x="88" y="710" on="0"/>
        <pt x="86" y="719" on="1"/>
        <pt x="86" y="732" on="0"/>
        <pt x="141" y="808" on="0"/>
        <pt x="160" y="819" on="1"/>
        <pt x="176" y="819" on="0"/>
        <pt x="221" y="786" on="0"/>
        <pt x="221" y="774" on="1"/>
        <pt x="201" y="762" on="0"/>
        <pt x="132" y="700" on="0"/>
      </contour>
    </TTGlyph>
    <TTGlyph name="Icircumflex" xMin="45" yMin="-24" xMax="262" yMax="819">
      <contour>
        <pt x="258" y="89" on="1"/>
        <pt x="262" y="89" on="0"/>
        <pt x="262" y="-10" on="0"/>
        <pt x="256" y="-10" on="1"/>
        <pt x="111" y="-10" on="0"/>
        <pt x="48" y="-24" on="1"/>
        <pt x="45" y="-24" on="0"/>
        <pt x="45" y="64" on="0"/>
        <pt x="52" y="73" on="1"/>
        <pt x="64" y="79" on="0"/>
        <pt x="91" y="79" on="1"/>
        <pt x="89" y="113" on="0"/>
        <pt x="89" y="530" on="0"/>
        <pt x="94" y="560" on="1"/>
        <pt x="92" y="560" on="1"/>
        <pt x="65" y="560" on="0"/>
        <pt x="47" y="554" on="1"/>
        <pt x="45" y="554" on="0"/>
        <pt x="45" y="645" on="0"/>
        <pt x="51" y="651" on="1"/>
        <pt x="57" y="657" on="0"/>
        <pt x="205" y="667" on="0"/>
        <pt x="255" y="667" on="1"/>
        <pt x="258" y="667" on="0"/>
        <pt x="258" y="651" on="1"/>
        <pt x="255" y="577" on="1"/>
        <pt x="255" y="573" on="0"/>
        <pt x="252" y="573" on="1"/>
        <pt x="218" y="573" on="0"/>
        <pt x="214" y="570" on="0"/>
        <pt x="213" y="530" on="1"/>
        <pt x="209" y="372" on="0"/>
        <pt x="209" y="141" on="0"/>
        <pt x="217" y="88" on="1"/>
        <pt x="230" y="89" on="0"/>
      </contour>
      <contour>
        <pt x="154" y="754" on="1"/>
        <pt x="145" y="749" on="0"/>
        <pt x="89" y="697" on="0"/>
        <pt x="82" y="688" on="1"/>
        <pt x="73" y="688" on="0"/>
        <pt x="47" y="710" on="0"/>
        <pt x="45" y="719" on="1"/>
        <pt x="45" y="732" on="0"/>
        <pt x="100" y="808" on="0"/>
        <pt x="119" y="819" on="1"/>
        <pt x="134" y="819" on="0"/>
        <pt x="154" y="806" on="1"/>
        <pt x="173" y="819" on="0"/>
        <pt x="188" y="819" on="1"/>
        <pt x="207" y="808" on="0"/>
        <pt x="262" y="732" on="0"/>
        <pt x="262" y="719" on="1"/>
        <pt x="260" y="710" on="0"/>
        <pt x="234" y="688" on="0"/>
        <pt x="225" y="688" on="1"/>
        <pt x="220" y="695" on="0"/>
        <pt x="162" y="749" on="0"/>
      </contour>
    </TTGlyph>
    <TTGlyph name="Idieresis" xMin="9" yMin="-24" xMax="299" yMax="798">
      <contour>
        <pt x="255" y="577" on="1"/>
        <pt x="258" y="651" on="1"/>
        <pt x="258" y="667" on="0"/>
        <pt x="255" y="667" on="1"/>
        <pt x="150" y="667" on="0"/>
        <pt x="52" y="652" on="0"/>
        <pt x="51" y="651" on="1"/>
        <pt x="45" y="645" on="0"/>
        <pt x="45" y="554" on="0"/>
        <pt x="47" y="554" on="1"/>
        <pt x="65" y="560" on="0"/>
        <pt x="92" y="560" on="1"/>
        <pt x="94" y="560" on="1"/>
        <pt x="89" y="530" on="0"/>
        <pt x="89" y="113" on="0"/>
        <pt x="91" y="79" on="1"/>
        <pt x="64" y="79" on="0"/>
        <pt x="52" y="73" on="1"/>
        <pt x="45" y="64" on="0"/>
        <pt x="45" y="-24" on="0"/>
        <pt x="48" y="-24" on="1"/>
        <pt x="111" y="-10" on="0"/>
        <pt x="256" y="-10" on="1"/>
        <pt x="259" y="-7" on="1"/>
        <pt x="262" y="20" on="0"/>
        <pt x="262" y="89" on="0"/>
        <pt x="258" y="89" on="1"/>
        <pt x="230" y="89" on="0"/>
        <pt x="217" y="88" on="1"/>
        <pt x="209" y="141" on="0"/>
        <pt x="209" y="357" on="0"/>
        <pt x="210" y="424" on="1"/>
        <pt x="214" y="570" on="0"/>
        <pt x="218" y="573" on="0"/>
        <pt x="252" y="573" on="1"/>
        <pt x="255" y="573" on="0"/>
      </contour>
      <contour>
        <pt x="112" y="768" on="0"/>
        <pt x="112" y="726" on="0"/>
        <pt x="80" y="694" on="0"/>
        <pt x="37" y="694" on="0"/>
        <pt x="9" y="722" on="0"/>
        <pt x="9" y="767" on="0"/>
        <pt x="40" y="798" on="0"/>
        <pt x="82" y="798" on="0"/>
      </contour>
      <contour>
        <pt x="299" y="768" on="0"/>
        <pt x="299" y="726" on="0"/>
        <pt x="268" y="694" on="0"/>
        <pt x="225" y="694" on="0"/>
        <pt x="197" y="722" on="0"/>
        <pt x="197" y="767" on="0"/>
        <pt x="228" y="798" on="0"/>
        <pt x="270" y="798" on="0"/>
      </contour>
    </TTGlyph>
    <TTGlyph name="Igrave" xMin="45" yMin="-24" xMax="262" yMax="819">
      <contour>
        <pt x="258" y="89" on="1"/>
        <pt x="262" y="89" on="0"/>
        <pt x="262" y="-10" on="0"/>
        <pt x="256" y="-10" on="1"/>
        <pt x="111" y="-10" on="0"/>
        <pt x="48" y="-24" on="1"/>
        <pt x="45" y="-24" on="0"/>
        <pt x="45" y="64" on="0"/>
        <pt x="52" y="73" on="1"/>
        <pt x="64" y="79" on="0"/>
        <pt x="91" y="79" on="1"/>
        <pt x="89" y="113" on="0"/>
        <pt x="89" y="530" on="0"/>
        <pt x="94" y="560" on="1"/>
        <pt x="92" y="560" on="1"/>
        <pt x="65" y="560" on="0"/>
        <pt x="47" y="554" on="1"/>
        <pt x="45" y="554" on="0"/>
        <pt x="45" y="645" on="0"/>
        <pt x="51" y="651" on="1"/>
        <pt x="57" y="657" on="0"/>
        <pt x="205" y="667" on="0"/>
        <pt x="255" y="667" on="1"/>
        <pt x="258" y="667" on="0"/>
        <pt x="258" y="651" on="1"/>
        <pt x="255" y="577" on="1"/>
        <pt x="255" y="573" on="0"/>
        <pt x="252" y="573" on="1"/>
        <pt x="218" y="573" on="0"/>
        <pt x="214" y="570" on="0"/>
        <pt x="213" y="530" on="1"/>
        <pt x="209" y="372" on="0"/>
        <pt x="209" y="141" on="0"/>
        <pt x="217" y="88" on="1"/>
        <pt x="230" y="89" on="0"/>
      </contour>
      <contour>
        <pt x="185" y="688" on="1"/>
        <pt x="175" y="700" on="0"/>
        <pt x="106" y="762" on="0"/>
        <pt x="86" y="774" on="1"/>
        <pt x="86" y="786" on="0"/>
        <pt x="131" y="819" on="0"/>
        <pt x="147" y="819" on="1"/>
        <pt x="166" y="808" on="0"/>
        <pt x="221" y="732" on="0"/>
        <pt x="221" y="719" on="1"/>
        <pt x="219" y="710" on="0"/>
        <pt x="194" y="688" on="0"/>
      </contour>
    </TTGlyph>
    <TTGlyph name="J" xMin="20" yMin="-26" xMax="476" yMax="674">
      <contour>
        <pt x="450" y="573" on="1"/>
        <pt x="452" y="382" on="1"/>
        <pt x="452" y="181" on="0"/>
        <pt x="442" y="140" on="1"/>
        <pt x="422" y="59" on="0"/>
        <pt x="306" y="-24" on="0"/>
        <pt x="227" y="-24" on="1"/>
        <pt x="193" y="-24" on="0"/>
        <pt x="138" y="-12" on="0"/>
        <pt x="128" y="-6" on="1"/>
        <pt x="118" y="1" on="1"/>
        <pt x="83" y="-26" on="0"/>
        <pt x="35" y="-26" on="1"/>
        <pt x="25" y="-26" on="0"/>
        <pt x="24" y="-25" on="1"/>
        <pt x="20" y="26" on="1"/>
        <pt x="20" y="159" on="0"/>
        <pt x="31" y="218" on="1"/>
        <pt x="35" y="240" on="1"/>
        <pt x="41" y="248" on="0"/>
        <pt x="103" y="267" on="0"/>
        <pt x="127" y="267" on="1"/>
        <pt x="127" y="157" on="0"/>
        <pt x="179" y="82" on="0"/>
        <pt x="232" y="82" on="1"/>
        <pt x="327" y="82" on="0"/>
        <pt x="327" y="259" on="1"/>
        <pt x="328" y="416" on="1"/>
        <pt x="328" y="538" on="0"/>
        <pt x="317" y="549" on="1"/>
        <pt x="297" y="569" on="0"/>
        <pt x="234" y="569" on="1"/>
        <pt x="230" y="569" on="1"/>
        <pt x="226" y="571" on="0"/>
        <pt x="226" y="607" on="0"/>
        <pt x="236" y="645" on="0"/>
        <pt x="243" y="652" on="0"/>
        <pt x="271" y="658" on="1"/>
        <pt x="355" y="674" on="0"/>
        <pt x="462" y="674" on="1"/>
        <pt x="476" y="674" on="0"/>
        <pt x="476" y="672" on="1"/>
        <pt x="476" y="648" on="0"/>
        <pt x="450" y="574" on="0"/>
      </contour>
    </TTGlyph>
    <TTGlyph name="K" xMin="40" yMin="-44" xMax="557" yMax="691">
      <contour>
        <pt x="65" y="20" on="1"/>
        <pt x="76" y="487" on="1"/>
        <pt x="76" y="558" on="0"/>
        <pt x="66" y="573" on="0"/>
        <pt x="40" y="634" on="0"/>
        <pt x="40" y="643" on="1"/>
        <pt x="40" y="647" on="0"/>
        <pt x="60" y="654" on="1"/>
        <pt x="114" y="674" on="0"/>
        <pt x="197" y="674" on="0"/>
        <pt x="201" y="669" on="0"/>
        <pt x="201" y="596" on="0"/>
        <pt x="196" y="446" on="1"/>
        <pt x="196" y="440" on="0"/>
        <pt x="200" y="440" on="0"/>
        <pt x="203" y="444" on="1"/>
        <pt x="259" y="518" on="0"/>
        <pt x="417" y="691" on="0"/>
        <pt x="450" y="691" on="0"/>
        <pt x="502" y="669" on="0"/>
        <pt x="537" y="644" on="0"/>
        <pt x="537" y="640" on="1"/>
        <pt x="537" y="639" on="1"/>
        <pt x="498" y="614" on="0"/>
        <pt x="402" y="526" on="0"/>
        <pt x="342" y="460" on="0"/>
        <pt x="342" y="455" on="1"/>
        <pt x="342" y="418" on="0"/>
        <pt x="505" y="61" on="0"/>
        <pt x="557" y="8" on="1"/>
        <pt x="558" y="7" on="0"/>
        <pt x="547" y="-4" on="0"/>
        <pt x="523" y="-19" on="0"/>
        <pt x="508" y="-26" on="1"/>
        <pt x="473" y="-44" on="0"/>
        <pt x="434" y="-44" on="1"/>
        <pt x="398" y="-8" on="0"/>
        <pt x="310" y="189" on="0"/>
        <pt x="253" y="349" on="0"/>
        <pt x="251" y="349" on="1"/>
        <pt x="246" y="349" on="0"/>
        <pt x="193" y="266" on="0"/>
        <pt x="193" y="258" on="1"/>
        <pt x="193" y="193" on="1"/>
        <pt x="193" y="21" on="0"/>
        <pt x="199" y="-8" on="1"/>
        <pt x="200" y="-11" on="0"/>
        <pt x="188" y="-17" on="1"/>
        <pt x="154" y="-34" on="0"/>
        <pt x="102" y="-34" on="1"/>
        <pt x="68" y="-29" on="1"/>
        <pt x="65" y="-26" on="0"/>
      </contour>
    </TTGlyph>
    <TTGlyph name="L" xMin="40" yMin="-28" xMax="522" yMax="688">
      <contour>
        <pt x="206" y="625" on="1"/>
        <pt x="200" y="213" on="1"/>
        <pt x="200" y="136" on="0"/>
        <pt x="203" y="99" on="1"/>
        <pt x="219" y="95" on="0"/>
        <pt x="290" y="95" on="0"/>
        <pt x="341" y="107" on="0"/>
        <pt x="376" y="138" on="0"/>
        <pt x="398" y="165" on="0"/>
        <pt x="406" y="192" on="1"/>
        <pt x="418" y="228" on="0"/>
        <pt x="430" y="287" on="1"/>
        <pt x="430" y="288" on="0"/>
        <pt x="459" y="288" on="0"/>
        <pt x="522" y="261" on="0"/>
        <pt x="522" y="254" on="1"/>
        <pt x="522" y="177" on="0"/>
        <pt x="514" y="80" on="1"/>
        <pt x="506" y="-28" on="0"/>
        <pt x="483" y="-28" on="0"/>
        <pt x="417" y="-11" on="0"/>
        <pt x="400" y="-4" on="1"/>
        <pt x="310" y="-19" on="0"/>
        <pt x="167" y="-20" on="1"/>
        <pt x="117" y="-21" on="1"/>
        <pt x="77" y="-16" on="1"/>
        <pt x="73" y="-12" on="0"/>
        <pt x="73" y="72" on="1"/>
        <pt x="77" y="455" on="1"/>
        <pt x="77" y="572" on="0"/>
        <pt x="66" y="587" on="0"/>
        <pt x="40" y="648" on="0"/>
        <pt x="40" y="657" on="1"/>
        <pt x="40" y="661" on="0"/>
        <pt x="62" y="668" on="1"/>
        <pt x="117" y="688" on="0"/>
        <pt x="201" y="688" on="0"/>
        <pt x="206" y="682" on="0"/>
      </contour>
    </TTGlyph>
    <TTGlyph name="Lslash" xMin="23" yMin="-28" xMax="522" yMax="688">
      <contour>
        <pt x="203" y="447" on="1"/>
        <pt x="254" y="477" on="1"/>
        <pt x="272" y="452" on="0"/>
        <pt x="272" y="423" on="0"/>
        <pt x="271" y="420" on="1"/>
        <pt x="202" y="378" on="1"/>
        <pt x="200" y="262" on="0"/>
        <pt x="200" y="136" on="0"/>
        <pt x="203" y="99" on="1"/>
        <pt x="219" y="95" on="0"/>
        <pt x="290" y="95" on="0"/>
        <pt x="341" y="107" on="0"/>
        <pt x="376" y="138" on="0"/>
        <pt x="398" y="165" on="0"/>
        <pt x="406" y="192" on="1"/>
        <pt x="418" y="228" on="0"/>
        <pt x="430" y="287" on="1"/>
        <pt x="430" y="288" on="0"/>
        <pt x="459" y="288" on="0"/>
        <pt x="522" y="261" on="0"/>
        <pt x="522" y="254" on="1"/>
        <pt x="522" y="177" on="0"/>
        <pt x="514" y="80" on="1"/>
        <pt x="506" y="-28" on="0"/>
        <pt x="483" y="-28" on="0"/>
        <pt x="417" y="-11" on="0"/>
        <pt x="400" y="-4" on="1"/>
        <pt x="310" y="-19" on="0"/>
        <pt x="167" y="-20" on="1"/>
        <pt x="117" y="-21" on="1"/>
        <pt x="77" y="-16" on="1"/>
        <pt x="73" y="-12" on="0"/>
        <pt x="73" y="108" on="0"/>
        <pt x="76" y="282" on="0"/>
        <pt x="76" y="303" on="1"/>
        <pt x="41" y="283" on="1"/>
        <pt x="23" y="307" on="0"/>
        <pt x="23" y="330" on="1"/>
        <pt x="23" y="337" on="0"/>
        <pt x="24" y="340" on="1"/>
        <pt x="76" y="371" on="1"/>
        <pt x="77" y="401" on="0"/>
        <pt x="77" y="572" on="0"/>
        <pt x="66" y="587" on="0"/>
        <pt x="40" y="648" on="0"/>
        <pt x="40" y="657" on="1"/>
        <pt x="40" y="661" on="0"/>
        <pt x="62" y="668" on="1"/>
        <pt x="117" y="688" on="0"/>
        <pt x="201" y="688" on="0"/>
        <pt x="206" y="682" on="0"/>
        <pt x="206" y="599" on="0"/>
        <pt x="203" y="471" on="0"/>
      </contour>
    </TTGlyph>
    <TTGlyph name="M" xMin="40" yMin="-46" xMax="694" yMax="665">
      <contour>
        <pt x="77" y="-41" on="1"/>
        <pt x="55" y="-41" on="0"/>
        <pt x="41" y="-35" on="1"/>
        <pt x="41" y="133" on="0"/>
        <pt x="70" y="444" on="1"/>
        <pt x="79" y="547" on="1"/>
        <pt x="65" y="564" on="0"/>
        <pt x="40" y="634" on="0"/>
        <pt x="40" y="648" on="1"/>
        <pt x="41" y="651" on="1"/>
        <pt x="44" y="655" on="0"/>
        <pt x="138" y="661" on="0"/>
        <pt x="251" y="661" on="0"/>
        <pt x="261" y="651" on="0"/>
        <pt x="347" y="410" on="0"/>
        <pt x="368" y="344" on="1"/>
        <pt x="370" y="339" on="0"/>
        <pt x="376" y="339" on="0"/>
        <pt x="390" y="382" on="0"/>
        <pt x="492" y="639" on="0"/>
        <pt x="509" y="656" on="1"/>
        <pt x="518" y="665" on="0"/>
        <pt x="694" y="665" on="0"/>
        <pt x="694" y="660" on="1"/>
        <pt x="694" y="643" on="0"/>
        <pt x="667" y="559" on="0"/>
        <pt x="658" y="542" on="1"/>
        <pt x="693" y="225" on="0"/>
        <pt x="693" y="-19" on="1"/>
        <pt x="693" y="-29" on="0"/>
        <pt x="612" y="-46" on="0"/>
        <pt x="560" y="-46" on="0"/>
        <pt x="560" y="-42" on="1"/>
        <pt x="563" y="-1" on="0"/>
        <pt x="563" y="182" on="0"/>
        <pt x="558" y="308" on="1"/>
        <pt x="553" y="465" on="0"/>
        <pt x="546" y="465" on="1"/>
        <pt x="540" y="459" on="1"/>
        <pt x="520" y="422" on="0"/>
        <pt x="457" y="246" on="0"/>
        <pt x="436" y="176" on="1"/>
        <pt x="415" y="107" on="1"/>
        <pt x="410" y="96" on="0"/>
        <pt x="361" y="96" on="0"/>
        <pt x="330" y="102" on="0"/>
        <pt x="329" y="105" on="1"/>
        <pt x="326" y="116" on="0"/>
        <pt x="208" y="445" on="0"/>
        <pt x="199" y="456" on="1"/>
        <pt x="196" y="462" on="0"/>
        <pt x="192" y="462" on="0"/>
        <pt x="191" y="455" on="1"/>
        <pt x="173" y="364" on="0"/>
        <pt x="173" y="11" on="0"/>
        <pt x="178" y="-17" on="1"/>
        <pt x="153" y="-41" on="0"/>
      </contour>
    </TTGlyph>
    <TTGlyph name="N" xMin="40" yMin="-30" xMax="573" yMax="685">
      <contour>
        <pt x="100" y="-30" on="1"/>
        <pt x="80" y="-30" on="0"/>
        <pt x="64" y="-24" on="1"/>
        <pt x="64" y="6" on="1"/>
        <pt x="64" y="159" on="0"/>
        <pt x="74" y="450" on="1"/>
        <pt x="78" y="547" on="1"/>
        <pt x="65" y="564" on="0"/>
        <pt x="40" y="637" on="0"/>
        <pt x="40" y="654" on="0"/>
        <pt x="44" y="658" on="0"/>
        <pt x="141" y="665" on="0"/>
        <pt x="244" y="665" on="0"/>
        <pt x="250" y="660" on="1"/>
        <pt x="427" y="264" on="0"/>
        <pt x="434" y="248" on="0"/>
        <pt x="436" y="248" on="1"/>
        <pt x="440" y="255" on="1"/>
        <pt x="440" y="283" on="1"/>
        <pt x="440" y="368" on="0"/>
        <pt x="429" y="622" on="0"/>
        <pt x="423" y="653" on="1"/>
        <pt x="437" y="666" on="0"/>
        <pt x="512" y="685" on="0"/>
        <pt x="573" y="685" on="0"/>
        <pt x="573" y="680" on="1"/>
        <pt x="573" y="660" on="0"/>
        <pt x="559" y="606" on="0"/>
        <pt x="559" y="605" on="1"/>
        <pt x="552" y="560" on="0"/>
        <pt x="552" y="369" on="0"/>
        <pt x="553" y="285" on="0"/>
        <pt x="554" y="208" on="0"/>
        <pt x="556" y="133" on="0"/>
        <pt x="556" y="102" on="1"/>
        <pt x="558" y="36" on="0"/>
        <pt x="558" y="10" on="1"/>
        <pt x="559" y="-4" on="1"/>
        <pt x="559" y="-7" on="0"/>
        <pt x="546" y="-12" on="1"/>
        <pt x="507" y="-28" on="0"/>
        <pt x="441" y="-28" on="1"/>
        <pt x="404" y="-24" on="1"/>
        <pt x="364" y="89" on="0"/>
        <pt x="210" y="433" on="0"/>
        <pt x="192" y="460" on="0"/>
        <pt x="190" y="460" on="1"/>
        <pt x="187" y="453" on="1"/>
        <pt x="183" y="425" on="0"/>
        <pt x="183" y="240" on="0"/>
        <pt x="192" y="22" on="0"/>
        <pt x="198" y="-6" on="1"/>
        <pt x="171" y="-30" on="0"/>
      </contour>
    </TTGlyph>
    <TTGlyph name="Ntilde" xMin="40" yMin="-30" xMax="573" yMax="789">
      <contour>
        <pt x="100" y="-30" on="1"/>
        <pt x="80" y="-30" on="0"/>
        <pt x="64" y="-24" on="1"/>
        <pt x="64" y="6" on="1"/>
        <pt x="64" y="159" on="0"/>
        <pt x="74" y="450" on="1"/>
        <pt x="78" y="547" on="1"/>
        <pt x="65" y="564" on="0"/>
        <pt x="40" y="637" on="0"/>
        <pt x="40" y="654" on="0"/>
        <pt x="44" y="658" on="0"/>
        <pt x="141" y="665" on="0"/>
        <pt x="244" y="665" on="0"/>
        <pt x="250" y="660" on="1"/>
        <pt x="427" y="264" on="0"/>
        <pt x="434" y="248" on="0"/>
        <pt x="436" y="248" on="1"/>
        <pt x="440" y="255" on="1"/>
        <pt x="440" y="283" on="1"/>
        <pt x="440" y="368" on="0"/>
        <pt x="429" y="622" on="0"/>
        <pt x="423" y="653" on="1"/>
        <pt x="437" y="666" on="0"/>
        <pt x="512" y="685" on="0"/>
        <pt x="573" y="685" on="0"/>
        <pt x="573" y="680" on="1"/>
        <pt x="573" y="660" on="0"/>
        <pt x="559" y="606" on="0"/>
        <pt x="559" y="605" on="1"/>
        <pt x="552" y="560" on="0"/>
        <pt x="552" y="369" on="0"/>
        <pt x="553" y="285" on="0"/>
        <pt x="554" y="208" on="0"/>
        <pt x="556" y="133" on="0"/>
        <pt x="556" y="102" on="1"/>
        <pt x="558" y="36" on="0"/>
        <pt x="558" y="10" on="1"/>
        <pt x="559" y="-4" on="1"/>
        <pt x="559" y="-7" on="0"/>
        <pt x="546" y="-12" on="1"/>
        <pt x="507" y="-28" on="0"/>
        <pt x="441" y="-28" on="1"/>
        <pt x="404" y="-24" on="1"/>
        <pt x="364" y="89" on="0"/>
        <pt x="210" y="433" on="0"/>
        <pt x="192" y="460" on="0"/>
        <pt x="190" y="460" on="1"/>
        <pt x="187" y="453" on="1"/>
        <pt x="183" y="425" on="0"/>
        <pt x="183" y="240" on="0"/>
        <pt x="192" y="22" on="0"/>
        <pt x="198" y="-6" on="1"/>
        <pt x="171" y="-30" on="0"/>
      </contour>
      <contour>
        <pt x="372" y="767" on="1"/>
        <pt x="409" y="767" on="0"/>
        <pt x="435" y="789" on="1"/>
        <pt x="439" y="789" on="0"/>
        <pt x="439" y="719" on="0"/>
        <pt x="435" y="715" on="1"/>
        <pt x="413" y="694" on="0"/>
        <pt x="379" y="694" on="1"/>
        <pt x="366" y="694" on="0"/>
        <pt x="310" y="710" on="0"/>
        <pt x="278" y="710" on="0"/>
        <pt x="253" y="703" on="0"/>
        <pt x="239" y="698" on="0"/>
        <pt x="238" y="698" on="1"/>
        <pt x="234" y="702" on="0"/>
        <pt x="234" y="758" on="0"/>
        <pt x="240" y="764" on="1"/>
        <pt x="267" y="782" on="0"/>
        <pt x="311" y="782" on="0"/>
        <pt x="362" y="767" on="0"/>
      </contour>
    </TTGlyph>
    <TTGlyph name="O" xMin="30" yMin="-30" xMax="634" yMax="675">
      <contour>
        <pt x="322" y="-30" on="1"/>
        <pt x="173" y="-30" on="0"/>
        <pt x="30" y="142" on="0"/>
        <pt x="30" y="272" on="1"/>
        <pt x="30" y="335" on="0"/>
        <pt x="60" y="445" on="0"/>
        <pt x="86" y="491" on="0"/>
        <pt x="102" y="500" on="0"/>
        <pt x="157" y="500" on="1"/>
        <pt x="176" y="500" on="1"/>
        <pt x="176" y="550" on="0"/>
        <pt x="215" y="624" on="0"/>
        <pt x="246" y="642" on="1"/>
        <pt x="304" y="675" on="0"/>
        <pt x="356" y="675" on="1"/>
        <pt x="634" y="675" on="0"/>
        <pt x="634" y="325" on="1"/>
        <pt x="634" y="216" on="0"/>
        <pt x="597" y="131" on="1"/>
        <pt x="576" y="83" on="0"/>
        <pt x="508" y="14" on="0"/>
        <pt x="395" y="-30" on="0"/>
      </contour>
      <contour>
        <pt x="505" y="333" on="1"/>
        <pt x="505" y="568" on="0"/>
        <pt x="365" y="568" on="1"/>
        <pt x="325" y="568" on="0"/>
        <pt x="282" y="522" on="0"/>
        <pt x="282" y="451" on="0"/>
        <pt x="327" y="355" on="0"/>
        <pt x="350" y="327" on="1"/>
        <pt x="372" y="299" on="1"/>
        <pt x="372" y="287" on="0"/>
        <pt x="298" y="266" on="0"/>
        <pt x="276" y="266" on="1"/>
        <pt x="271" y="266" on="0"/>
        <pt x="240" y="304" on="0"/>
        <pt x="199" y="383" on="0"/>
        <pt x="190" y="427" on="1"/>
        <pt x="175" y="412" on="0"/>
        <pt x="157" y="320" on="0"/>
        <pt x="157" y="277" on="1"/>
        <pt x="157" y="193" on="0"/>
        <pt x="251" y="74" on="0"/>
        <pt x="323" y="74" on="1"/>
        <pt x="505" y="74" on="0"/>
      </contour>
    </TTGlyph>
    <TTGlyph name="OE" xMin="30" yMin="-30" xMax="916" yMax="675">
      <contour>
        <pt x="505" y="333" on="1"/>
        <pt x="505" y="568" on="0"/>
        <pt x="365" y="568" on="1"/>
        <pt x="325" y="568" on="0"/>
        <pt x="282" y="522" on="0"/>
        <pt x="282" y="451" on="0"/>
        <pt x="327" y="355" on="0"/>
        <pt x="350" y="327" on="1"/>
        <pt x="372" y="299" on="1"/>
        <pt x="372" y="287" on="0"/>
        <pt x="298" y="266" on="0"/>
        <pt x="276" y="266" on="1"/>
        <pt x="271" y="266" on="0"/>
        <pt x="240" y="304" on="0"/>
        <pt x="199" y="383" on="0"/>
        <pt x="190" y="427" on="1"/>
        <pt x="175" y="412" on="0"/>
        <pt x="157" y="320" on="0"/>
        <pt x="157" y="277" on="1"/>
        <pt x="157" y="193" on="0"/>
        <pt x="251" y="74" on="0"/>
        <pt x="323" y="74" on="1"/>
        <pt x="505" y="74" on="0"/>
      </contour>
      <contour>
        <pt x="809" y="93" on="1"/>
        <pt x="872" y="93" on="0"/>
        <pt x="916" y="100" on="0"/>
        <pt x="916" y="99" on="1"/>
        <pt x="916" y="75" on="0"/>
        <pt x="884" y="9" on="0"/>
        <pt x="866" y="-8" on="1"/>
        <pt x="856" y="-18" on="0"/>
        <pt x="517" y="-18" on="0"/>
        <pt x="511" y="-10" on="1"/>
        <pt x="509" y="-9" on="0"/>
        <pt x="507" y="20" on="1"/>
        <pt x="434" y="-30" on="0"/>
        <pt x="322" y="-30" on="1"/>
        <pt x="173" y="-30" on="0"/>
        <pt x="30" y="142" on="0"/>
        <pt x="30" y="272" on="1"/>
        <pt x="30" y="335" on="0"/>
        <pt x="60" y="445" on="0"/>
        <pt x="86" y="491" on="0"/>
        <pt x="102" y="500" on="0"/>
        <pt x="157" y="500" on="1"/>
        <pt x="176" y="500" on="1"/>
        <pt x="176" y="550" on="0"/>
        <pt x="215" y="624" on="0"/>
        <pt x="246" y="642" on="1"/>
        <pt x="304" y="675" on="0"/>
        <pt x="356" y="675" on="1"/>
        <pt x="446" y="675" on="0"/>
        <pt x="508" y="637" on="1"/>
        <pt x="508" y="658" on="1"/>
        <pt x="628" y="664" on="0"/>
        <pt x="897" y="664" on="0"/>
        <pt x="897" y="660" on="1"/>
        <pt x="897" y="639" on="0"/>
        <pt x="878" y="589" on="0"/>
        <pt x="857" y="559" on="0"/>
        <pt x="848" y="562" on="0"/>
        <pt x="775" y="562" on="0"/>
        <pt x="645" y="553" on="0"/>
        <pt x="633" y="541" on="0"/>
        <pt x="633" y="437" on="1"/>
        <pt x="634" y="395" on="1"/>
        <pt x="674" y="396" on="0"/>
        <pt x="830" y="396" on="0"/>
        <pt x="830" y="393" on="1"/>
        <pt x="830" y="357" on="0"/>
        <pt x="806" y="311" on="1"/>
        <pt x="797" y="295" on="0"/>
        <pt x="795" y="296" on="1"/>
        <pt x="769" y="296" on="0"/>
        <pt x="643" y="287" on="0"/>
        <pt x="633" y="281" on="1"/>
        <pt x="632" y="280" on="0"/>
        <pt x="632" y="114" on="0"/>
        <pt x="637" y="109" on="1"/>
        <pt x="653" y="93" on="0"/>
      </contour>
    </TTGlyph>
    <TTGlyph name="Oacute" xMin="30" yMin="-30" xMax="634" yMax="819">
      <contour>
        <pt x="322" y="-30" on="1"/>
        <pt x="173" y="-30" on="0"/>
        <pt x="30" y="142" on="0"/>
        <pt x="30" y="272" on="1"/>
        <pt x="30" y="335" on="0"/>
        <pt x="60" y="445" on="0"/>
        <pt x="86" y="491" on="0"/>
        <pt x="102" y="500" on="0"/>
        <pt x="157" y="500" on="1"/>
        <pt x="176" y="500" on="1"/>
        <pt x="176" y="550" on="0"/>
        <pt x="215" y="624" on="0"/>
        <pt x="246" y="642" on="1"/>
        <pt x="304" y="675" on="0"/>
        <pt x="356" y="675" on="1"/>
        <pt x="634" y="675" on="0"/>
        <pt x="634" y="325" on="1"/>
        <pt x="634" y="216" on="0"/>
        <pt x="597" y="131" on="1"/>
        <pt x="576" y="83" on="0"/>
        <pt x="508" y="14" on="0"/>
        <pt x="395" y="-30" on="0"/>
      </contour>
      <contour>
        <pt x="505" y="333" on="1"/>
        <pt x="505" y="568" on="0"/>
        <pt x="365" y="568" on="1"/>
        <pt x="325" y="568" on="0"/>
        <pt x="282" y="522" on="0"/>
        <pt x="282" y="451" on="0"/>
        <pt x="327" y="355" on="0"/>
        <pt x="350" y="327" on="1"/>
        <pt x="372" y="299" on="1"/>
        <pt x="372" y="287" on="0"/>
        <pt x="298" y="266" on="0"/>
        <pt x="276" y="266" on="1"/>
        <pt x="271" y="266" on="0"/>
        <pt x="240" y="304" on="0"/>
        <pt x="199" y="383" on="0"/>
        <pt x="190" y="427" on="1"/>
        <pt x="175" y="412" on="0"/>
        <pt x="157" y="320" on="0"/>
        <pt x="157" y="277" on="1"/>
        <pt x="157" y="193" on="0"/>
        <pt x="251" y="74" on="0"/>
        <pt x="323" y="74" on="1"/>
        <pt x="505" y="74" on="0"/>
      </contour>
      <contour>
        <pt x="300" y="688" on="1"/>
        <pt x="291" y="688" on="0"/>
        <pt x="266" y="710" on="0"/>
        <pt x="264" y="719" on="1"/>
        <pt x="264" y="732" on="0"/>
        <pt x="319" y="808" on="0"/>
        <pt x="338" y="819" on="1"/>
        <pt x="354" y="819" on="0"/>
        <pt x="399" y="786" on="0"/>
        <pt x="399" y="774" on="1"/>
        <pt x="379" y="762" on="0"/>
        <pt x="310" y="700" on="0"/>
      </contour>
    </TTGlyph>
    <TTGlyph name="Ocircumflex" xMin="30" yMin="-30" xMax="634" yMax="819">
      <contour>
        <pt x="322" y="-30" on="1"/>
        <pt x="173" y="-30" on="0"/>
        <pt x="30" y="142" on="0"/>
        <pt x="30" y="272" on="1"/>
        <pt x="30" y="335" on="0"/>
        <pt x="60" y="445" on="0"/>
        <pt x="86" y="491" on="0"/>
        <pt x="102" y="500" on="0"/>
        <pt x="157" y="500" on="1"/>
        <pt x="176" y="500" on="1"/>
        <pt x="176" y="550" on="0"/>
        <pt x="215" y="624" on="0"/>
        <pt x="246" y="642" on="1"/>
        <pt x="304" y="675" on="0"/>
        <pt x="356" y="675" on="1"/>
        <pt x="634" y="675" on="0"/>
        <pt x="634" y="325" on="1"/>
        <pt x="634" y="216" on="0"/>
        <pt x="597" y="131" on="1"/>
        <pt x="576" y="83" on="0"/>
        <pt x="508" y="14" on="0"/>
        <pt x="395" y="-30" on="0"/>
      </contour>
      <contour>
        <pt x="505" y="333" on="1"/>
        <pt x="505" y="568" on="0"/>
        <pt x="365" y="568" on="1"/>
        <pt x="325" y="568" on="0"/>
        <pt x="282" y="522" on="0"/>
        <pt x="282" y="451" on="0"/>
        <pt x="327" y="355" on="0"/>
        <pt x="350" y="327" on="1"/>
        <pt x="372" y="299" on="1"/>
        <pt x="372" y="287" on="0"/>
        <pt x="298" y="266" on="0"/>
        <pt x="276" y="266" on="1"/>
        <pt x="271" y="266" on="0"/>
        <pt x="240" y="304" on="0"/>
        <pt x="199" y="383" on="0"/>
        <pt x="190" y="427" on="1"/>
        <pt x="175" y="412" on="0"/>
        <pt x="157" y="320" on="0"/>
        <pt x="157" y="277" on="1"/>
        <pt x="157" y="193" on="0"/>
        <pt x="251" y="74" on="0"/>
        <pt x="323" y="74" on="1"/>
        <pt x="505" y="74" on="0"/>
      </contour>
      <contour>
        <pt x="332" y="754" on="1"/>
        <pt x="323" y="749" on="0"/>
        <pt x="267" y="697" on="0"/>
        <pt x="260" y="688" on="1"/>
        <pt x="251" y="688" on="0"/>
        <pt x="225" y="710" on="0"/>
        <pt x="223" y="719" on="1"/>
        <pt x="223" y="732" on="0"/>
        <pt x="278" y="808" on="0"/>
        <pt x="297" y="819" on="1"/>
        <pt x="312" y="819" on="0"/>
        <pt x="332" y="806" on="1"/>
        <pt x="351" y="819" on="0"/>
        <pt x="366" y="819" on="1"/>
        <pt x="385" y="808" on="0"/>
        <pt x="440" y="732" on="0"/>
        <pt x="440" y="719" on="1"/>
        <pt x="438" y="710" on="0"/>
        <pt x="412" y="688" on="0"/>
        <pt x="403" y="688" on="1"/>
        <pt x="398" y="695" on="0"/>
        <pt x="340" y="749" on="0"/>
      </contour>
    </TTGlyph>
    <TTGlyph name="Odieresis" xMin="30" yMin="-30" xMax="634" yMax="798">
      <contour>
        <pt x="322" y="-30" on="1"/>
        <pt x="173" y="-30" on="0"/>
        <pt x="30" y="142" on="0"/>
        <pt x="30" y="272" on="1"/>
        <pt x="30" y="335" on="0"/>
        <pt x="60" y="445" on="0"/>
        <pt x="86" y="491" on="0"/>
        <pt x="102" y="500" on="0"/>
        <pt x="157" y="500" on="1"/>
        <pt x="176" y="500" on="1"/>
        <pt x="176" y="550" on="0"/>
        <pt x="215" y="624" on="0"/>
        <pt x="246" y="642" on="1"/>
        <pt x="304" y="675" on="0"/>
        <pt x="356" y="675" on="1"/>
        <pt x="634" y="675" on="0"/>
        <pt x="634" y="325" on="1"/>
        <pt x="634" y="216" on="0"/>
        <pt x="597" y="131" on="1"/>
        <pt x="576" y="83" on="0"/>
        <pt x="508" y="14" on="0"/>
        <pt x="395" y="-30" on="0"/>
      </contour>
      <contour>
        <pt x="505" y="333" on="1"/>
        <pt x="505" y="568" on="0"/>
        <pt x="365" y="568" on="1"/>
        <pt x="325" y="568" on="0"/>
        <pt x="282" y="522" on="0"/>
        <pt x="282" y="451" on="0"/>
        <pt x="327" y="355" on="0"/>
        <pt x="350" y="327" on="1"/>
        <pt x="372" y="299" on="1"/>
        <pt x="372" y="287" on="0"/>
        <pt x="298" y="266" on="0"/>
        <pt x="276" y="266" on="1"/>
        <pt x="271" y="266" on="0"/>
        <pt x="240" y="304" on="0"/>
        <pt x="199" y="383" on="0"/>
        <pt x="190" y="427" on="1"/>
        <pt x="175" y="412" on="0"/>
        <pt x="157" y="320" on="0"/>
        <pt x="157" y="277" on="1"/>
        <pt x="157" y="193" on="0"/>
        <pt x="251" y="74" on="0"/>
        <pt x="323" y="74" on="1"/>
        <pt x="505" y="74" on="0"/>
      </contour>
      <contour>
        <pt x="290" y="768" on="0"/>
        <pt x="290" y="726" on="0"/>
        <pt x="258" y="694" on="0"/>
        <pt x="215" y="694" on="0"/>
        <pt x="187" y="722" on="0"/>
        <pt x="187" y="767" on="0"/>
        <pt x="218" y="798" on="0"/>
        <pt x="260" y="798" on="0"/>
      </contour>
      <contour>
        <pt x="477" y="768" on="0"/>
        <pt x="477" y="726" on="0"/>
        <pt x="446" y="694" on="0"/>
        <pt x="403" y="694" on="0"/>
        <pt x="375" y="722" on="0"/>
        <pt x="375" y="767" on="0"/>
        <pt x="406" y="798" on="0"/>
        <pt x="448" y="798" on="0"/>
      </contour>
    </TTGlyph>
    <TTGlyph name="Ograve" xMin="30" yMin="-30" xMax="634" yMax="819">
      <contour>
        <pt x="322" y="-30" on="1"/>
        <pt x="173" y="-30" on="0"/>
        <pt x="30" y="142" on="0"/>
        <pt x="30" y="272" on="1"/>
        <pt x="30" y="335" on="0"/>
        <pt x="60" y="445" on="0"/>
        <pt x="86" y="491" on="0"/>
        <pt x="102" y="500" on="0"/>
        <pt x="157" y="500" on="1"/>
        <pt x="176" y="500" on="1"/>
        <pt x="176" y="550" on="0"/>
        <pt x="215" y="624" on="0"/>
        <pt x="246" y="642" on="1"/>
        <pt x="304" y="675" on="0"/>
        <pt x="356" y="675" on="1"/>
        <pt x="634" y="675" on="0"/>
        <pt x="634" y="325" on="1"/>
        <pt x="634" y="216" on="0"/>
        <pt x="597" y="131" on="1"/>
        <pt x="576" y="83" on="0"/>
        <pt x="508" y="14" on="0"/>
        <pt x="395" y="-30" on="0"/>
      </contour>
      <contour>
        <pt x="505" y="333" on="1"/>
        <pt x="505" y="568" on="0"/>
        <pt x="365" y="568" on="1"/>
        <pt x="325" y="568" on="0"/>
        <pt x="282" y="522" on="0"/>
        <pt x="282" y="451" on="0"/>
        <pt x="327" y="355" on="0"/>
        <pt x="350" y="327" on="1"/>
        <pt x="372" y="299" on="1"/>
        <pt x="372" y="287" on="0"/>
        <pt x="298" y="266" on="0"/>
        <pt x="276" y="266" on="1"/>
        <pt x="271" y="266" on="0"/>
        <pt x="240" y="304" on="0"/>
        <pt x="199" y="383" on="0"/>
        <pt x="190" y="427" on="1"/>
        <pt x="175" y="412" on="0"/>
        <pt x="157" y="320" on="0"/>
        <pt x="157" y="277" on="1"/>
        <pt x="157" y="193" on="0"/>
        <pt x="251" y="74" on="0"/>
        <pt x="323" y="74" on="1"/>
        <pt x="505" y="74" on="0"/>
      </contour>
      <contour>
        <pt x="363" y="688" on="1"/>
        <pt x="353" y="700" on="0"/>
        <pt x="284" y="762" on="0"/>
        <pt x="264" y="774" on="1"/>
        <pt x="264" y="786" on="0"/>
        <pt x="309" y="819" on="0"/>
        <pt x="325" y="819" on="1"/>
        <pt x="344" y="808" on="0"/>
        <pt x="399" y="732" on="0"/>
        <pt x="399" y="719" on="1"/>
        <pt x="397" y="710" on="0"/>
        <pt x="372" y="688" on="0"/>
      </contour>
    </TTGlyph>
    <TTGlyph name="Oslash" xMin="30" yMin="-48" xMax="634" yMax="688">
      <contour>
        <pt x="75" y="-29" on="1"/>
        <pt x="118" y="39" on="1"/>
        <pt x="30" y="120" on="0"/>
        <pt x="30" y="272" on="1"/>
        <pt x="30" y="335" on="0"/>
        <pt x="60" y="445" on="0"/>
        <pt x="86" y="491" on="0"/>
        <pt x="102" y="500" on="0"/>
        <pt x="157" y="500" on="1"/>
        <pt x="176" y="500" on="1"/>
        <pt x="176" y="550" on="0"/>
        <pt x="215" y="624" on="0"/>
        <pt x="246" y="642" on="1"/>
        <pt x="304" y="675" on="0"/>
        <pt x="356" y="675" on="1"/>
        <pt x="442" y="675" on="0"/>
        <pt x="501" y="642" on="1"/>
        <pt x="529" y="686" on="1"/>
        <pt x="539" y="688" on="0"/>
        <pt x="548" y="688" on="1"/>
        <pt x="570" y="688" on="0"/>
        <pt x="602" y="669" on="1"/>
        <pt x="556" y="597" on="1"/>
        <pt x="634" y="510" on="0"/>
        <pt x="634" y="325" on="1"/>
        <pt x="634" y="216" on="0"/>
        <pt x="597" y="131" on="1"/>
        <pt x="576" y="83" on="0"/>
        <pt x="508" y="14" on="0"/>
        <pt x="395" y="-30" on="0"/>
        <pt x="239" y="-30" on="0"/>
        <pt x="177" y="0" on="1"/>
        <pt x="148" y="-46" on="1"/>
        <pt x="138" y="-48" on="0"/>
        <pt x="130" y="-48" on="1"/>
        <pt x="109" y="-48" on="0"/>
      </contour>
      <contour>
        <pt x="505" y="333" on="1"/>
        <pt x="505" y="424" on="0"/>
        <pt x="483" y="481" on="1"/>
        <pt x="240" y="99" on="1"/>
        <pt x="278" y="74" on="0"/>
        <pt x="323" y="74" on="1"/>
        <pt x="505" y="74" on="0"/>
      </contour>
      <contour>
        <pt x="157" y="277" on="1"/>
        <pt x="157" y="207" on="0"/>
        <pt x="190" y="152" on="1"/>
        <pt x="439" y="544" on="1"/>
        <pt x="408" y="568" on="0"/>
        <pt x="326" y="568" on="0"/>
        <pt x="282" y="523" on="0"/>
        <pt x="282" y="494" on="1"/>
        <pt x="282" y="492" on="1"/>
        <pt x="283" y="460" on="0"/>
        <pt x="299" y="413" on="0"/>
        <pt x="306" y="406" on="1"/>
        <pt x="313" y="398" on="1"/>
        <pt x="313" y="386" on="0"/>
        <pt x="239" y="365" on="0"/>
        <pt x="217" y="365" on="1"/>
        <pt x="201" y="387" on="0"/>
        <pt x="193" y="416" on="1"/>
        <pt x="190" y="427" on="1"/>
        <pt x="175" y="412" on="0"/>
        <pt x="157" y="320" on="0"/>
      </contour>
    </TTGlyph>
    <TTGlyph name="Otilde" xMin="30" yMin="-30" xMax="634" yMax="804">
      <contour>
        <pt x="322" y="-30" on="1"/>
        <pt x="173" y="-30" on="0"/>
        <pt x="30" y="142" on="0"/>
        <pt x="30" y="272" on="1"/>
        <pt x="30" y="335" on="0"/>
        <pt x="60" y="445" on="0"/>
        <pt x="86" y="491" on="0"/>
        <pt x="102" y="500" on="0"/>
        <pt x="157" y="500" on="1"/>
        <pt x="176" y="500" on="1"/>
        <pt x="176" y="550" on="0"/>
        <pt x="215" y="624" on="0"/>
        <pt x="246" y="642" on="1"/>
        <pt x="304" y="675" on="0"/>
        <pt x="356" y="675" on="1"/>
        <pt x="634" y="675" on="0"/>
        <pt x="634" y="325" on="1"/>
        <pt x="634" y="216" on="0"/>
        <pt x="597" y="131" on="1"/>
        <pt x="576" y="83" on="0"/>
        <pt x="508" y="14" on="0"/>
        <pt x="395" y="-30" on="0"/>
      </contour>
      <contour>
        <pt x="505" y="333" on="1"/>
        <pt x="505" y="568" on="0"/>
        <pt x="365" y="568" on="1"/>
        <pt x="325" y="568" on="0"/>
        <pt x="282" y="522" on="0"/>
        <pt x="282" y="451" on="0"/>
        <pt x="327" y="355" on="0"/>
        <pt x="350" y="327" on="1"/>
        <pt x="372" y="299" on="1"/>
        <pt x="372" y="287" on="0"/>
        <pt x="298" y="266" on="0"/>
        <pt x="276" y="266" on="1"/>
        <pt x="271" y="266" on="0"/>
        <pt x="240" y="304" on="0"/>
        <pt x="199" y="383" on="0"/>
        <pt x="190" y="427" on="1"/>
        <pt x="175" y="412" on="0"/>
        <pt x="157" y="320" on="0"/>
        <pt x="157" y="277" on="1"/>
        <pt x="157" y="193" on="0"/>
        <pt x="251" y="74" on="0"/>
        <pt x="323" y="74" on="1"/>
        <pt x="505" y="74" on="0"/>
      </contour>
      <contour>
        <pt x="379" y="710" on="0"/>
        <pt x="332" y="724" on="0"/>
        <pt x="282" y="724" on="0"/>
        <pt x="250" y="708" on="1"/>
        <pt x="244" y="716" on="0"/>
        <pt x="244" y="776" on="0"/>
        <pt x="250" y="782" on="1"/>
        <pt x="275" y="801" on="0"/>
        <pt x="328" y="801" on="0"/>
        <pt x="370" y="787" on="0"/>
        <pt x="422" y="787" on="0"/>
        <pt x="443" y="804" on="1"/>
        <pt x="450" y="804" on="0"/>
        <pt x="450" y="778" on="1"/>
        <pt x="450" y="743" on="0"/>
        <pt x="442" y="725" on="1"/>
        <pt x="422" y="710" on="0"/>
      </contour>
    </TTGlyph>
    <TTGlyph name="P" xMin="40" yMin="-30" xMax="555" yMax="672">
      <contour>
        <pt x="199" y="339" on="1"/>
        <pt x="423" y="359" on="0"/>
        <pt x="423" y="482" on="1"/>
        <pt x="423" y="522" on="0"/>
        <pt x="340" y="567" on="0"/>
        <pt x="276" y="567" on="1"/>
        <pt x="204" y="561" on="1"/>
        <pt x="199" y="525" on="0"/>
      </contour>
      <contour>
        <pt x="198" y="-17" on="0"/>
        <pt x="133" y="-30" on="0"/>
        <pt x="87" y="-30" on="0"/>
        <pt x="73" y="-24" on="1"/>
        <pt x="79" y="553" on="1"/>
        <pt x="65" y="569" on="0"/>
        <pt x="40" y="643" on="0"/>
        <pt x="40" y="660" on="0"/>
        <pt x="45" y="665" on="0"/>
        <pt x="168" y="672" on="0"/>
        <pt x="293" y="672" on="0"/>
        <pt x="391" y="658" on="0"/>
        <pt x="494" y="621" on="0"/>
        <pt x="555" y="544" on="0"/>
        <pt x="555" y="424" on="0"/>
        <pt x="482" y="324" on="0"/>
        <pt x="430" y="298" on="1"/>
        <pt x="322" y="243" on="0"/>
        <pt x="236" y="232" on="1"/>
        <pt x="199" y="228" on="1"/>
        <pt x="203" y="24" on="0"/>
        <pt x="209" y="-6" on="1"/>
      </contour>
    </TTGlyph>
    <TTGlyph name="Q" xMin="30" yMin="-97" xMax="634" yMax="677">
      <contour>
        <pt x="544" y="-52" on="1"/>
        <pt x="532" y="-71" on="0"/>
        <pt x="469" y="-97" on="0"/>
        <pt x="446" y="-97" on="1"/>
        <pt x="442" y="-97" on="1"/>
        <pt x="442" y="-73" on="0"/>
        <pt x="428" y="-30" on="1"/>
        <pt x="423" y="-16" on="1"/>
        <pt x="379" y="-28" on="0"/>
        <pt x="322" y="-28" on="1"/>
        <pt x="173" y="-28" on="0"/>
        <pt x="30" y="144" on="0"/>
        <pt x="30" y="274" on="1"/>
        <pt x="30" y="337" on="0"/>
        <pt x="60" y="447" on="0"/>
        <pt x="86" y="494" on="0"/>
        <pt x="104" y="503" on="0"/>
        <pt x="172" y="503" on="0"/>
        <pt x="176" y="502" on="1"/>
        <pt x="176" y="552" on="0"/>
        <pt x="215" y="625" on="0"/>
        <pt x="245" y="643" on="1"/>
        <pt x="302" y="677" on="0"/>
        <pt x="356" y="677" on="1"/>
        <pt x="634" y="677" on="0"/>
        <pt x="634" y="327" on="1"/>
        <pt x="634" y="119" on="0"/>
        <pt x="517" y="29" on="1"/>
        <pt x="544" y="-26" on="0"/>
      </contour>
      <contour>
        <pt x="461" y="142" on="1"/>
        <pt x="505" y="206" on="0"/>
        <pt x="505" y="335" on="1"/>
        <pt x="505" y="571" on="0"/>
        <pt x="364" y="571" on="1"/>
        <pt x="325" y="571" on="0"/>
        <pt x="282" y="524" on="0"/>
        <pt x="282" y="453" on="0"/>
        <pt x="327" y="357" on="0"/>
        <pt x="350" y="329" on="1"/>
        <pt x="372" y="301" on="1"/>
        <pt x="372" y="289" on="0"/>
        <pt x="298" y="268" on="0"/>
        <pt x="276" y="268" on="1"/>
        <pt x="271" y="268" on="0"/>
        <pt x="239" y="306" on="0"/>
        <pt x="199" y="385" on="0"/>
        <pt x="190" y="429" on="1"/>
        <pt x="174" y="413" on="0"/>
        <pt x="157" y="322" on="0"/>
        <pt x="157" y="279" on="1"/>
        <pt x="157" y="195" on="0"/>
        <pt x="251" y="76" on="0"/>
        <pt x="323" y="76" on="1"/>
        <pt x="355" y="76" on="0"/>
        <pt x="382" y="84" on="1"/>
        <pt x="349" y="151" on="0"/>
        <pt x="335" y="170" on="1"/>
        <pt x="367" y="196" on="0"/>
        <pt x="422" y="196" on="1"/>
        <pt x="431" y="191" on="0"/>
        <pt x="454" y="154" on="1"/>
      </contour>
    </TTGlyph>
    <TTGlyph name="R" xMin="40" yMin="-51" xMax="567" yMax="672">
      <contour>
        <pt x="198" y="339" on="1"/>
        <pt x="316" y="350" on="0"/>
        <pt x="427" y="439" on="0"/>
        <pt x="427" y="526" on="0"/>
        <pt x="341" y="567" on="0"/>
        <pt x="275" y="567" on="1"/>
        <pt x="240" y="567" on="0"/>
        <pt x="204" y="561" on="1"/>
        <pt x="198" y="518" on="0"/>
      </contour>
      <contour>
        <pt x="198" y="-17" on="0"/>
        <pt x="132" y="-30" on="0"/>
        <pt x="88" y="-30" on="0"/>
        <pt x="72" y="-24" on="1"/>
        <pt x="78" y="553" on="1"/>
        <pt x="65" y="569" on="0"/>
        <pt x="40" y="643" on="0"/>
        <pt x="40" y="660" on="0"/>
        <pt x="44" y="665" on="0"/>
        <pt x="167" y="672" on="0"/>
        <pt x="293" y="672" on="0"/>
        <pt x="391" y="658" on="0"/>
        <pt x="497" y="623" on="0"/>
        <pt x="559" y="547" on="0"/>
        <pt x="559" y="428" on="0"/>
        <pt x="475" y="326" on="0"/>
        <pt x="403" y="291" on="1"/>
        <pt x="403" y="275" on="0"/>
        <pt x="529" y="20" on="0"/>
        <pt x="566" y="-17" on="1"/>
        <pt x="567" y="-18" on="0"/>
        <pt x="567" y="-23" on="0"/>
        <pt x="551" y="-30" on="1"/>
        <pt x="507" y="-51" on="0"/>
        <pt x="456" y="-51" on="1"/>
        <pt x="431" y="-49" on="1"/>
        <pt x="409" y="-27" on="0"/>
        <pt x="300" y="221" on="0"/>
        <pt x="294" y="249" on="1"/>
        <pt x="282" y="242" on="0"/>
        <pt x="199" y="228" on="1"/>
        <pt x="201" y="27" on="0"/>
        <pt x="209" y="-6" on="1"/>
      </contour>
    </TTGlyph>
    <TTGlyph name="S" xMin="30" yMin="-33" xMax="489" yMax="680">
      <contour>
        <pt x="413" y="571" on="1"/>
        <pt x="397" y="573" on="0"/>
        <pt x="356" y="573" on="0"/>
        <pt x="297" y="565" on="0"/>
        <pt x="234" y="548" on="0"/>
        <pt x="194" y="512" on="0"/>
        <pt x="194" y="461" on="0"/>
        <pt x="255" y="422" on="0"/>
        <pt x="341" y="389" on="0"/>
        <pt x="428" y="347" on="0"/>
        <pt x="489" y="266" on="0"/>
        <pt x="489" y="209" on="1"/>
        <pt x="489" y="108" on="0"/>
        <pt x="296" y="-33" on="0"/>
        <pt x="149" y="-33" on="1"/>
        <pt x="75" y="-33" on="0"/>
        <pt x="39" y="-25" on="1"/>
        <pt x="30" y="-16" on="0"/>
        <pt x="30" y="181" on="0"/>
        <pt x="34" y="201" on="1"/>
        <pt x="37" y="210" on="0"/>
        <pt x="101" y="236" on="0"/>
        <pt x="131" y="236" on="1"/>
        <pt x="131" y="118" on="0"/>
        <pt x="156" y="93" on="1"/>
        <pt x="166" y="83" on="0"/>
        <pt x="194" y="83" on="1"/>
        <pt x="258" y="83" on="0"/>
        <pt x="353" y="155" on="0"/>
        <pt x="353" y="204" on="1"/>
        <pt x="353" y="237" on="0"/>
        <pt x="291" y="287" on="0"/>
        <pt x="202" y="324" on="0"/>
        <pt x="114" y="365" on="0"/>
        <pt x="52" y="437" on="0"/>
        <pt x="52" y="486" on="1"/>
        <pt x="52" y="559" on="0"/>
        <pt x="227" y="680" on="0"/>
        <pt x="393" y="680" on="1"/>
        <pt x="432" y="680" on="0"/>
        <pt x="437" y="675" on="1"/>
        <pt x="438" y="672" on="0"/>
        <pt x="438" y="649" on="0"/>
        <pt x="424" y="583" on="0"/>
      </contour>
    </TTGlyph>
    <TTGlyph name="Scaron" xMin="30" yMin="-33" xMax="489" yMax="844">
      <contour>
        <pt x="270" y="778" on="1"/>
        <pt x="279" y="783" on="0"/>
        <pt x="333" y="834" on="0"/>
        <pt x="342" y="844" on="1"/>
        <pt x="351" y="844" on="0"/>
        <pt x="377" y="822" on="0"/>
        <pt x="379" y="813" on="1"/>
        <pt x="379" y="801" on="0"/>
        <pt x="323" y="725" on="0"/>
        <pt x="305" y="713" on="1"/>
        <pt x="289" y="713" on="0"/>
        <pt x="270" y="727" on="1"/>
        <pt x="249" y="713" on="0"/>
        <pt x="236" y="713" on="1"/>
        <pt x="217" y="725" on="0"/>
        <pt x="162" y="801" on="0"/>
        <pt x="162" y="813" on="1"/>
        <pt x="164" y="822" on="0"/>
        <pt x="189" y="844" on="0"/>
        <pt x="198" y="844" on="1"/>
        <pt x="206" y="835" on="0"/>
        <pt x="262" y="783" on="0"/>
      </contour>
      <contour>
        <pt x="413" y="571" on="1"/>
        <pt x="397" y="573" on="0"/>
        <pt x="356" y="573" on="0"/>
        <pt x="297" y="565" on="0"/>
        <pt x="234" y="548" on="0"/>
        <pt x="194" y="512" on="0"/>
        <pt x="194" y="461" on="0"/>
        <pt x="255" y="422" on="0"/>
        <pt x="341" y="389" on="0"/>
        <pt x="428" y="347" on="0"/>
        <pt x="489" y="266" on="0"/>
        <pt x="489" y="209" on="1"/>
        <pt x="489" y="108" on="0"/>
        <pt x="296" y="-33" on="0"/>
        <pt x="149" y="-33" on="1"/>
        <pt x="75" y="-33" on="0"/>
        <pt x="39" y="-25" on="1"/>
        <pt x="30" y="-16" on="0"/>
        <pt x="30" y="181" on="0"/>
        <pt x="34" y="201" on="1"/>
        <pt x="37" y="210" on="0"/>
        <pt x="101" y="236" on="0"/>
        <pt x="131" y="236" on="1"/>
        <pt x="131" y="118" on="0"/>
        <pt x="156" y="93" on="1"/>
        <pt x="166" y="83" on="0"/>
        <pt x="194" y="83" on="1"/>
        <pt x="258" y="83" on="0"/>
        <pt x="353" y="155" on="0"/>
        <pt x="353" y="204" on="1"/>
        <pt x="353" y="237" on="0"/>
        <pt x="291" y="287" on="0"/>
        <pt x="202" y="324" on="0"/>
        <pt x="114" y="365" on="0"/>
        <pt x="52" y="437" on="0"/>
        <pt x="52" y="486" on="1"/>
        <pt x="52" y="559" on="0"/>
        <pt x="227" y="680" on="0"/>
        <pt x="393" y="680" on="1"/>
        <pt x="432" y="680" on="0"/>
        <pt x="437" y="675" on="1"/>
        <pt x="438" y="672" on="0"/>
        <pt x="438" y="649" on="0"/>
        <pt x="424" y="583" on="0"/>
      </contour>
    </TTGlyph>
    <TTGlyph name="T" xMin="10" yMin="-43" xMax="466" yMax="672">
      <contour>
        <pt x="162" y="80" on="1"/>
        <pt x="169" y="496" on="1"/>
        <pt x="169" y="547" on="0"/>
        <pt x="164" y="552" on="0"/>
        <pt x="150" y="552" on="1"/>
        <pt x="119" y="552" on="0"/>
        <pt x="40" y="542" on="1"/>
        <pt x="13" y="538" on="1"/>
        <pt x="10" y="564" on="1"/>
        <pt x="10" y="612" on="0"/>
        <pt x="26" y="648" on="1"/>
        <pt x="32" y="660" on="1"/>
        <pt x="110" y="661" on="0"/>
        <pt x="307" y="672" on="0"/>
        <pt x="466" y="672" on="0"/>
        <pt x="466" y="668" on="1"/>
        <pt x="466" y="639" on="0"/>
        <pt x="456" y="558" on="0"/>
        <pt x="449" y="551" on="1"/>
        <pt x="426" y="556" on="0"/>
        <pt x="302" y="556" on="0"/>
        <pt x="299" y="553" on="1"/>
        <pt x="292" y="546" on="0"/>
        <pt x="292" y="38" on="0"/>
        <pt x="322" y="-17" on="1"/>
        <pt x="322" y="-18" on="1"/>
        <pt x="322" y="-27" on="0"/>
        <pt x="244" y="-43" on="0"/>
        <pt x="221" y="-43" on="1"/>
        <pt x="189" y="-43" on="0"/>
        <pt x="169" y="-34" on="1"/>
        <pt x="162" y="-26" on="0"/>
      </contour>
    </TTGlyph>
    <TTGlyph name="Thorn" xMin="40" yMin="-30" xMax="555" yMax="688">
      <contour>
        <pt x="203" y="452" on="1"/>
        <pt x="200" y="233" on="1"/>
        <pt x="323" y="244" on="0"/>
        <pt x="423" y="323" on="0"/>
        <pt x="423" y="376" on="1"/>
        <pt x="423" y="416" on="0"/>
        <pt x="340" y="461" on="0"/>
        <pt x="276" y="461" on="1"/>
        <pt x="204" y="455" on="1"/>
      </contour>
      <contour>
        <pt x="73" y="-24" on="1"/>
        <pt x="78" y="459" on="1"/>
        <pt x="78" y="570" on="0"/>
        <pt x="66" y="587" on="0"/>
        <pt x="40" y="648" on="0"/>
        <pt x="40" y="657" on="1"/>
        <pt x="40" y="661" on="0"/>
        <pt x="62" y="668" on="1"/>
        <pt x="117" y="688" on="0"/>
        <pt x="201" y="688" on="0"/>
        <pt x="206" y="682" on="0"/>
        <pt x="206" y="589" on="0"/>
        <pt x="205" y="568" on="1"/>
        <pt x="213" y="569" on="0"/>
        <pt x="289" y="569" on="0"/>
        <pt x="398" y="549" on="0"/>
        <pt x="496" y="508" on="0"/>
        <pt x="555" y="432" on="0"/>
        <pt x="555" y="318" on="0"/>
        <pt x="482" y="218" on="0"/>
        <pt x="430" y="192" on="1"/>
        <pt x="322" y="137" on="0"/>
        <pt x="236" y="126" on="1"/>
        <pt x="199" y="122" on="1"/>
        <pt x="200" y="90" on="0"/>
        <pt x="201" y="48" on="0"/>
        <pt x="203" y="22" on="0"/>
        <pt x="204" y="18" on="1"/>
        <pt x="205" y="6" on="0"/>
        <pt x="209" y="-6" on="1"/>
        <pt x="198" y="-17" on="0"/>
        <pt x="133" y="-30" on="0"/>
        <pt x="87" y="-30" on="0"/>
      </contour>
    </TTGlyph>
    <TTGlyph name="U" xMin="30" yMin="-33" xMax="551" yMax="695">
      <contour>
        <pt x="186" y="624" on="1"/>
        <pt x="178" y="349" on="1"/>
        <pt x="178" y="89" on="0"/>
        <pt x="288" y="89" on="1"/>
        <pt x="321" y="89" on="0"/>
        <pt x="367" y="116" on="0"/>
        <pt x="386" y="152" on="1"/>
        <pt x="425" y="222" on="0"/>
        <pt x="425" y="623" on="0"/>
        <pt x="414" y="690" on="1"/>
        <pt x="425" y="695" on="0"/>
        <pt x="442" y="695" on="1"/>
        <pt x="517" y="695" on="0"/>
        <pt x="542" y="669" on="1"/>
        <pt x="551" y="624" on="0"/>
        <pt x="551" y="384" on="1"/>
        <pt x="551" y="139" on="0"/>
        <pt x="470" y="48" on="1"/>
        <pt x="430" y="3" on="0"/>
        <pt x="337" y="-33" on="0"/>
        <pt x="276" y="-33" on="1"/>
        <pt x="157" y="-33" on="0"/>
        <pt x="49" y="148" on="0"/>
        <pt x="49" y="370" on="1"/>
        <pt x="49" y="454" on="0"/>
        <pt x="54" y="548" on="0"/>
        <pt x="53" y="549" on="1"/>
        <pt x="47" y="560" on="0"/>
        <pt x="30" y="614" on="0"/>
        <pt x="30" y="626" on="1"/>
        <pt x="30" y="630" on="0"/>
        <pt x="49" y="638" on="1"/>
        <pt x="98" y="657" on="0"/>
        <pt x="182" y="657" on="0"/>
        <pt x="186" y="653" on="0"/>
      </contour>
    </TTGlyph>
    <TTGlyph name="Uacute" xMin="30" yMin="-33" xMax="551" yMax="819">
      <contour>
        <pt x="264" y="688" on="1"/>
        <pt x="255" y="688" on="0"/>
        <pt x="230" y="710" on="0"/>
        <pt x="228" y="719" on="1"/>
        <pt x="228" y="732" on="0"/>
        <pt x="283" y="808" on="0"/>
        <pt x="302" y="819" on="1"/>
        <pt x="318" y="819" on="0"/>
        <pt x="363" y="786" on="0"/>
        <pt x="363" y="774" on="1"/>
        <pt x="343" y="762" on="0"/>
        <pt x="274" y="700" on="0"/>
      </contour>
      <contour>
        <pt x="186" y="624" on="1"/>
        <pt x="178" y="349" on="1"/>
        <pt x="178" y="89" on="0"/>
        <pt x="288" y="89" on="1"/>
        <pt x="321" y="89" on="0"/>
        <pt x="367" y="116" on="0"/>
        <pt x="386" y="152" on="1"/>
        <pt x="425" y="222" on="0"/>
        <pt x="425" y="623" on="0"/>
        <pt x="414" y="690" on="1"/>
        <pt x="425" y="695" on="0"/>
        <pt x="442" y="695" on="1"/>
        <pt x="517" y="695" on="0"/>
        <pt x="542" y="669" on="1"/>
        <pt x="551" y="624" on="0"/>
        <pt x="551" y="384" on="1"/>
        <pt x="551" y="139" on="0"/>
        <pt x="470" y="48" on="1"/>
        <pt x="430" y="3" on="0"/>
        <pt x="337" y="-33" on="0"/>
        <pt x="276" y="-33" on="1"/>
        <pt x="157" y="-33" on="0"/>
        <pt x="49" y="148" on="0"/>
        <pt x="49" y="370" on="1"/>
        <pt x="49" y="454" on="0"/>
        <pt x="54" y="548" on="0"/>
        <pt x="53" y="549" on="1"/>
        <pt x="47" y="560" on="0"/>
        <pt x="30" y="614" on="0"/>
        <pt x="30" y="626" on="1"/>
        <pt x="30" y="630" on="0"/>
        <pt x="49" y="638" on="1"/>
        <pt x="98" y="657" on="0"/>
        <pt x="182" y="657" on="0"/>
        <pt x="186" y="653" on="0"/>
      </contour>
    </TTGlyph>
    <TTGlyph name="Ucircumflex" xMin="30" yMin="-33" xMax="551" yMax="828">
      <contour>
        <pt x="294" y="763" on="1"/>
        <pt x="285" y="758" on="0"/>
        <pt x="229" y="706" on="0"/>
        <pt x="222" y="697" on="1"/>
        <pt x="213" y="697" on="0"/>
        <pt x="187" y="719" on="0"/>
        <pt x="185" y="728" on="1"/>
        <pt x="185" y="741" on="0"/>
        <pt x="240" y="817" on="0"/>
        <pt x="259" y="828" on="1"/>
        <pt x="274" y="828" on="0"/>
        <pt x="294" y="815" on="1"/>
        <pt x="314" y="828" on="0"/>
        <pt x="328" y="828" on="1"/>
        <pt x="347" y="817" on="0"/>
        <pt x="402" y="741" on="0"/>
        <pt x="402" y="728" on="1"/>
        <pt x="400" y="719" on="0"/>
        <pt x="374" y="697" on="0"/>
        <pt x="365" y="697" on="1"/>
        <pt x="360" y="704" on="0"/>
        <pt x="302" y="758" on="0"/>
      </contour>
      <contour>
        <pt x="186" y="624" on="1"/>
        <pt x="178" y="349" on="1"/>
        <pt x="178" y="89" on="0"/>
        <pt x="288" y="89" on="1"/>
        <pt x="321" y="89" on="0"/>
        <pt x="367" y="116" on="0"/>
        <pt x="386" y="152" on="1"/>
        <pt x="425" y="222" on="0"/>
        <pt x="425" y="623" on="0"/>
        <pt x="414" y="690" on="1"/>
        <pt x="425" y="695" on="0"/>
        <pt x="442" y="695" on="1"/>
        <pt x="517" y="695" on="0"/>
        <pt x="542" y="669" on="1"/>
        <pt x="551" y="624" on="0"/>
        <pt x="551" y="384" on="1"/>
        <pt x="551" y="139" on="0"/>
        <pt x="470" y="48" on="1"/>
        <pt x="430" y="3" on="0"/>
        <pt x="337" y="-33" on="0"/>
        <pt x="276" y="-33" on="1"/>
        <pt x="157" y="-33" on="0"/>
        <pt x="49" y="148" on="0"/>
        <pt x="49" y="370" on="1"/>
        <pt x="49" y="454" on="0"/>
        <pt x="54" y="548" on="0"/>
        <pt x="53" y="549" on="1"/>
        <pt x="47" y="560" on="0"/>
        <pt x="30" y="614" on="0"/>
        <pt x="30" y="626" on="1"/>
        <pt x="30" y="630" on="0"/>
        <pt x="49" y="638" on="1"/>
        <pt x="98" y="657" on="0"/>
        <pt x="182" y="657" on="0"/>
        <pt x="186" y="653" on="0"/>
      </contour>
    </TTGlyph>
    <TTGlyph name="Udieresis" xMin="30" yMin="-33" xMax="551" yMax="816">
      <contour>
        <pt x="250" y="786" on="0"/>
        <pt x="250" y="744" on="0"/>
        <pt x="218" y="712" on="0"/>
        <pt x="175" y="712" on="0"/>
        <pt x="147" y="740" on="0"/>
        <pt x="147" y="785" on="0"/>
        <pt x="178" y="816" on="0"/>
        <pt x="220" y="816" on="0"/>
      </contour>
      <contour>
        <pt x="437" y="786" on="0"/>
        <pt x="437" y="744" on="0"/>
        <pt x="406" y="712" on="0"/>
        <pt x="363" y="712" on="0"/>
        <pt x="335" y="740" on="0"/>
        <pt x="335" y="785" on="0"/>
        <pt x="366" y="816" on="0"/>
        <pt x="408" y="816" on="0"/>
      </contour>
      <contour>
        <pt x="186" y="624" on="1"/>
        <pt x="178" y="349" on="1"/>
        <pt x="178" y="89" on="0"/>
        <pt x="288" y="89" on="1"/>
        <pt x="321" y="89" on="0"/>
        <pt x="367" y="116" on="0"/>
        <pt x="386" y="152" on="1"/>
        <pt x="425" y="222" on="0"/>
        <pt x="425" y="623" on="0"/>
        <pt x="414" y="690" on="1"/>
        <pt x="425" y="695" on="0"/>
        <pt x="442" y="695" on="1"/>
        <pt x="517" y="695" on="0"/>
        <pt x="542" y="669" on="1"/>
        <pt x="551" y="624" on="0"/>
        <pt x="551" y="384" on="1"/>
        <pt x="551" y="139" on="0"/>
        <pt x="470" y="48" on="1"/>
        <pt x="430" y="3" on="0"/>
        <pt x="337" y="-33" on="0"/>
        <pt x="276" y="-33" on="1"/>
        <pt x="157" y="-33" on="0"/>
        <pt x="49" y="148" on="0"/>
        <pt x="49" y="370" on="1"/>
        <pt x="49" y="454" on="0"/>
        <pt x="54" y="548" on="0"/>
        <pt x="53" y="549" on="1"/>
        <pt x="47" y="560" on="0"/>
        <pt x="30" y="614" on="0"/>
        <pt x="30" y="626" on="1"/>
        <pt x="30" y="630" on="0"/>
        <pt x="49" y="638" on="1"/>
        <pt x="98" y="657" on="0"/>
        <pt x="182" y="657" on="0"/>
        <pt x="186" y="653" on="0"/>
      </contour>
    </TTGlyph>
    <TTGlyph name="Ugrave" xMin="30" yMin="-33" xMax="551" yMax="819">
      <contour>
        <pt x="327" y="688" on="1"/>
        <pt x="317" y="700" on="0"/>
        <pt x="248" y="762" on="0"/>
        <pt x="228" y="774" on="1"/>
        <pt x="228" y="786" on="0"/>
        <pt x="273" y="819" on="0"/>
        <pt x="289" y="819" on="1"/>
        <pt x="308" y="808" on="0"/>
        <pt x="363" y="732" on="0"/>
        <pt x="363" y="719" on="1"/>
        <pt x="361" y="710" on="0"/>
        <pt x="336" y="688" on="0"/>
      </contour>
      <contour>
        <pt x="186" y="624" on="1"/>
        <pt x="178" y="349" on="1"/>
        <pt x="178" y="89" on="0"/>
        <pt x="288" y="89" on="1"/>
        <pt x="321" y="89" on="0"/>
        <pt x="367" y="116" on="0"/>
        <pt x="386" y="152" on="1"/>
        <pt x="425" y="222" on="0"/>
        <pt x="425" y="623" on="0"/>
        <pt x="414" y="690" on="1"/>
        <pt x="425" y="695" on="0"/>
        <pt x="442" y="695" on="1"/>
        <pt x="517" y="695" on="0"/>
        <pt x="542" y="669" on="1"/>
        <pt x="551" y="624" on="0"/>
        <pt x="551" y="384" on="1"/>
        <pt x="551" y="139" on="0"/>
        <pt x="470" y="48" on="1"/>
        <pt x="430" y="3" on="0"/>
        <pt x="337" y="-33" on="0"/>
        <pt x="276" y="-33" on="1"/>
        <pt x="157" y="-33" on="0"/>
        <pt x="49" y="148" on="0"/>
        <pt x="49" y="370" on="1"/>
        <pt x="49" y="454" on="0"/>
        <pt x="54" y="548" on="0"/>
        <pt x="53" y="549" on="1"/>
        <pt x="47" y="560" on="0"/>
        <pt x="30" y="614" on="0"/>
        <pt x="30" y="626" on="1"/>
        <pt x="30" y="630" on="0"/>
        <pt x="49" y="638" on="1"/>
        <pt x="98" y="657" on="0"/>
        <pt x="182" y="657" on="0"/>
        <pt x="186" y="653" on="0"/>
      </contour>
    </TTGlyph>
    <TTGlyph name="V" xMin="10" yMin="-48" xMax="589" yMax="693">
      <contour>
        <pt x="235" y="-48" on="1"/>
        <pt x="225" y="-48" on="0"/>
        <pt x="223" y="-46" on="1"/>
        <pt x="190" y="-16" on="0"/>
        <pt x="10" y="526" on="0"/>
        <pt x="10" y="627" on="1"/>
        <pt x="10" y="629" on="0"/>
        <pt x="24" y="635" on="1"/>
        <pt x="66" y="654" on="0"/>
        <pt x="135" y="654" on="0"/>
        <pt x="135" y="651" on="1"/>
        <pt x="139" y="602" on="0"/>
        <pt x="250" y="182" on="0"/>
        <pt x="290" y="101" on="1"/>
        <pt x="299" y="83" on="0"/>
        <pt x="308" y="92" on="1"/>
        <pt x="311" y="95" on="0"/>
        <pt x="312" y="99" on="1"/>
        <pt x="339" y="150" on="0"/>
        <pt x="440" y="463" on="0"/>
        <pt x="440" y="564" on="1"/>
        <pt x="440" y="576" on="0"/>
        <pt x="395" y="604" on="0"/>
        <pt x="377" y="606" on="1"/>
        <pt x="376" y="608" on="0"/>
        <pt x="376" y="626" on="0"/>
        <pt x="386" y="665" on="0"/>
        <pt x="390" y="668" on="1"/>
        <pt x="482" y="693" on="0"/>
        <pt x="574" y="693" on="1"/>
        <pt x="589" y="691" on="0"/>
        <pt x="589" y="689" on="1"/>
        <pt x="589" y="603" on="0"/>
        <pt x="496" y="260" on="0"/>
        <pt x="398" y="-9" on="0"/>
        <pt x="383" y="-24" on="1"/>
        <pt x="339" y="-48" on="0"/>
      </contour>
    </TTGlyph>
    <TTGlyph name="W" xMin="10" yMin="-51" xMax="774" yMax="689">
      <contour>
        <pt x="774" y="686" on="1"/>
        <pt x="774" y="587" on="0"/>
        <pt x="698" y="244" on="0"/>
        <pt x="618" y="-10" on="0"/>
        <pt x="594" y="-33" on="0"/>
        <pt x="507" y="-51" on="0"/>
        <pt x="461" y="-51" on="0"/>
        <pt x="461" y="-48" on="1"/>
        <pt x="459" y="-40" on="0"/>
        <pt x="442" y="54" on="1"/>
        <pt x="392" y="317" on="0"/>
        <pt x="378" y="350" on="0"/>
        <pt x="376" y="350" on="1"/>
        <pt x="371" y="344" on="1"/>
        <pt x="346" y="282" on="0"/>
        <pt x="283" y="19" on="0"/>
        <pt x="283" y="0" on="1"/>
        <pt x="283" y="-4" on="0"/>
        <pt x="264" y="-11" on="1"/>
        <pt x="212" y="-30" on="0"/>
        <pt x="162" y="-30" on="1"/>
        <pt x="151" y="-30" on="0"/>
        <pt x="148" y="-27" on="1"/>
        <pt x="121" y="0" on="0"/>
        <pt x="10" y="535" on="0"/>
        <pt x="10" y="644" on="1"/>
        <pt x="10" y="646" on="0"/>
        <pt x="20" y="652" on="1"/>
        <pt x="54" y="669" on="0"/>
        <pt x="135" y="668" on="0"/>
        <pt x="135" y="666" on="1"/>
        <pt x="142" y="536" on="0"/>
        <pt x="187" y="249" on="0"/>
        <pt x="208" y="196" on="1"/>
        <pt x="210" y="189" on="0"/>
        <pt x="215" y="189" on="0"/>
        <pt x="218" y="196" on="1"/>
        <pt x="300" y="513" on="0"/>
        <pt x="318" y="532" on="1"/>
        <pt x="354" y="546" on="0"/>
        <pt x="419" y="546" on="1"/>
        <pt x="455" y="544" on="0"/>
        <pt x="461" y="538" on="0"/>
        <pt x="495" y="377" on="0"/>
        <pt x="535" y="182" on="0"/>
        <pt x="544" y="143" on="0"/>
        <pt x="552" y="164" on="1"/>
        <pt x="569" y="211" on="0"/>
        <pt x="621" y="459" on="0"/>
        <pt x="621" y="569" on="1"/>
        <pt x="621" y="580" on="0"/>
        <pt x="584" y="601" on="0"/>
        <pt x="565" y="603" on="1"/>
        <pt x="564" y="606" on="0"/>
        <pt x="564" y="625" on="0"/>
        <pt x="573" y="662" on="0"/>
        <pt x="576" y="665" on="1"/>
        <pt x="667" y="689" on="0"/>
        <pt x="758" y="689" on="1"/>
        <pt x="774" y="687" on="0"/>
      </contour>
    </TTGlyph>
    <TTGlyph name="X" xMin="5" yMin="-54" xMax="621" yMax="675">
      <contour>
        <pt x="310" y="233" on="1"/>
        <pt x="156" y="-14" on="0"/>
        <pt x="142" y="-33" on="0"/>
        <pt x="137" y="-33" on="1"/>
        <pt x="97" y="-33" on="0"/>
        <pt x="31" y="-11" on="0"/>
        <pt x="5" y="9" on="0"/>
        <pt x="5" y="16" on="0"/>
        <pt x="13" y="23" on="1"/>
        <pt x="89" y="100" on="0"/>
        <pt x="247" y="346" on="1"/>
        <pt x="133" y="551" on="0"/>
        <pt x="111" y="570" on="1"/>
        <pt x="103" y="577" on="0"/>
        <pt x="63" y="593" on="0"/>
        <pt x="47" y="593" on="1"/>
        <pt x="46" y="595" on="0"/>
        <pt x="46" y="614" on="0"/>
        <pt x="59" y="653" on="0"/>
        <pt x="65" y="659" on="0"/>
        <pt x="81" y="662" on="1"/>
        <pt x="124" y="670" on="0"/>
        <pt x="213" y="670" on="0"/>
        <pt x="218" y="666" on="0"/>
        <pt x="230" y="642" on="1"/>
        <pt x="286" y="533" on="0"/>
        <pt x="322" y="464" on="1"/>
        <pt x="456" y="675" on="0"/>
        <pt x="469" y="675" on="1"/>
        <pt x="497" y="675" on="0"/>
        <pt x="557" y="651" on="0"/>
        <pt x="591" y="624" on="0"/>
        <pt x="591" y="618" on="1"/>
        <pt x="521" y="559" on="0"/>
        <pt x="384" y="350" on="1"/>
        <pt x="543" y="67" on="0"/>
        <pt x="621" y="10" on="1"/>
        <pt x="621" y="-3" on="0"/>
        <pt x="526" y="-54" on="0"/>
        <pt x="490" y="-54" on="1"/>
        <pt x="486" y="-54" on="1"/>
        <pt x="449" y="-18" on="0"/>
      </contour>
    </TTGlyph>
    <TTGlyph name="Y" xMin="5" yMin="-38" xMax="618" yMax="677">
      <contour>
        <pt x="243" y="-30" on="1"/>
        <pt x="246" y="245" on="1"/>
        <pt x="246" y="258" on="1"/>
        <pt x="218" y="297" on="0"/>
        <pt x="75" y="554" on="0"/>
        <pt x="69" y="562" on="1"/>
        <pt x="46" y="585" on="0"/>
        <pt x="6" y="585" on="1"/>
        <pt x="5" y="587" on="0"/>
        <pt x="5" y="605" on="0"/>
        <pt x="18" y="644" on="0"/>
        <pt x="23" y="649" on="0"/>
        <pt x="39" y="652" on="1"/>
        <pt x="82" y="660" on="0"/>
        <pt x="170" y="660" on="0"/>
        <pt x="175" y="656" on="0"/>
        <pt x="200" y="603" on="1"/>
        <pt x="278" y="437" on="0"/>
        <pt x="315" y="381" on="1"/>
        <pt x="317" y="381" on="1"/>
        <pt x="323" y="403" on="0"/>
        <pt x="482" y="677" on="0"/>
        <pt x="495" y="677" on="1"/>
        <pt x="525" y="677" on="0"/>
        <pt x="585" y="661" on="0"/>
        <pt x="619" y="642" on="0"/>
        <pt x="618" y="636" on="1"/>
        <pt x="565" y="577" on="0"/>
        <pt x="390" y="316" on="0"/>
        <pt x="374" y="258" on="1"/>
        <pt x="372" y="238" on="0"/>
        <pt x="372" y="20" on="0"/>
        <pt x="380" y="-14" on="1"/>
        <pt x="380" y="-26" on="0"/>
        <pt x="316" y="-38" on="0"/>
        <pt x="255" y="-38" on="0"/>
      </contour>
    </TTGlyph>
    <TTGlyph name="Yacute" xMin="5" yMin="-38" xMax="618" yMax="823">
      <contour>
        <pt x="243" y="-30" on="1"/>
        <pt x="246" y="245" on="1"/>
        <pt x="246" y="258" on="1"/>
        <pt x="218" y="297" on="0"/>
        <pt x="75" y="554" on="0"/>
        <pt x="69" y="562" on="1"/>
        <pt x="46" y="585" on="0"/>
        <pt x="6" y="585" on="1"/>
        <pt x="5" y="587" on="0"/>
        <pt x="5" y="605" on="0"/>
        <pt x="18" y="644" on="0"/>
        <pt x="23" y="649" on="0"/>
        <pt x="39" y="652" on="1"/>
        <pt x="82" y="660" on="0"/>
        <pt x="170" y="660" on="0"/>
        <pt x="175" y="656" on="0"/>
        <pt x="200" y="603" on="1"/>
        <pt x="278" y="437" on="0"/>
        <pt x="315" y="381" on="1"/>
        <pt x="317" y="381" on="1"/>
        <pt x="323" y="403" on="0"/>
        <pt x="482" y="677" on="0"/>
        <pt x="495" y="677" on="1"/>
        <pt x="525" y="677" on="0"/>
        <pt x="585" y="661" on="0"/>
        <pt x="619" y="642" on="0"/>
        <pt x="618" y="636" on="1"/>
        <pt x="565" y="577" on="0"/>
        <pt x="390" y="316" on="0"/>
        <pt x="374" y="258" on="1"/>
        <pt x="372" y="238" on="0"/>
        <pt x="372" y="20" on="0"/>
        <pt x="380" y="-14" on="1"/>
        <pt x="380" y="-26" on="0"/>
        <pt x="316" y="-38" on="0"/>
        <pt x="255" y="-38" on="0"/>
      </contour>
      <contour>
        <pt x="306" y="692" on="1"/>
        <pt x="297" y="692" on="0"/>
        <pt x="272" y="714" on="0"/>
        <pt x="270" y="723" on="1"/>
        <pt x="270" y="736" on="0"/>
        <pt x="325" y="812" on="0"/>
        <pt x="344" y="823" on="1"/>
        <pt x="360" y="823" on="0"/>
        <pt x="405" y="790" on="0"/>
        <pt x="405" y="778" on="1"/>
        <pt x="385" y="766" on="0"/>
        <pt x="316" y="704" on="0"/>
      </contour>
    </TTGlyph>
    <TTGlyph name="Ydieresis" xMin="5" yMin="-38" xMax="618" yMax="798">
      <contour>
        <pt x="243" y="-30" on="1"/>
        <pt x="246" y="245" on="1"/>
        <pt x="246" y="258" on="1"/>
        <pt x="218" y="297" on="0"/>
        <pt x="75" y="554" on="0"/>
        <pt x="69" y="562" on="1"/>
        <pt x="46" y="585" on="0"/>
        <pt x="6" y="585" on="1"/>
        <pt x="5" y="587" on="0"/>
        <pt x="5" y="605" on="0"/>
        <pt x="18" y="644" on="0"/>
        <pt x="23" y="649" on="0"/>
        <pt x="39" y="652" on="1"/>
        <pt x="82" y="660" on="0"/>
        <pt x="170" y="660" on="0"/>
        <pt x="175" y="656" on="0"/>
        <pt x="200" y="603" on="1"/>
        <pt x="278" y="437" on="0"/>
        <pt x="315" y="381" on="1"/>
        <pt x="317" y="381" on="1"/>
        <pt x="323" y="403" on="0"/>
        <pt x="482" y="677" on="0"/>
        <pt x="495" y="677" on="1"/>
        <pt x="525" y="677" on="0"/>
        <pt x="585" y="661" on="0"/>
        <pt x="619" y="642" on="0"/>
        <pt x="618" y="636" on="1"/>
        <pt x="565" y="577" on="0"/>
        <pt x="390" y="316" on="0"/>
        <pt x="374" y="258" on="1"/>
        <pt x="372" y="238" on="0"/>
        <pt x="372" y="20" on="0"/>
        <pt x="380" y="-14" on="1"/>
        <pt x="380" y="-26" on="0"/>
        <pt x="316" y="-38" on="0"/>
        <pt x="255" y="-38" on="0"/>
      </contour>
      <contour>
        <pt x="270" y="768" on="0"/>
        <pt x="270" y="726" on="0"/>
        <pt x="238" y="694" on="0"/>
        <pt x="195" y="694" on="0"/>
        <pt x="167" y="722" on="0"/>
        <pt x="167" y="767" on="0"/>
        <pt x="198" y="798" on="0"/>
        <pt x="240" y="798" on="0"/>
      </contour>
      <contour>
        <pt x="457" y="768" on="0"/>
        <pt x="457" y="726" on="0"/>
        <pt x="426" y="694" on="0"/>
        <pt x="383" y="694" on="0"/>
        <pt x="355" y="722" on="0"/>
        <pt x="355" y="767" on="0"/>
        <pt x="386" y="798" on="0"/>
        <pt x="428" y="798" on="0"/>
      </contour>
    </TTGlyph>
    <TTGlyph name="Z" xMin="20" yMin="-20" xMax="554" yMax="678">
      <contour>
        <pt x="554" y="199" on="1"/>
        <pt x="554" y="154" on="0"/>
        <pt x="514" y="-9" on="0"/>
        <pt x="505" y="-17" on="1"/>
        <pt x="502" y="-20" on="0"/>
        <pt x="491" y="-20" on="1"/>
        <pt x="469" y="-20" on="0"/>
        <pt x="422" y="-10" on="1"/>
        <pt x="407" y="-6" on="1"/>
        <pt x="399" y="-5" on="0"/>
        <pt x="366" y="-5" on="1"/>
        <pt x="53" y="-14" on="1"/>
        <pt x="43" y="-14" on="0"/>
        <pt x="20" y="42" on="0"/>
        <pt x="20" y="76" on="0"/>
        <pt x="21" y="80" on="1"/>
        <pt x="37" y="114" on="0"/>
        <pt x="204" y="340" on="0"/>
        <pt x="352" y="539" on="0"/>
        <pt x="352" y="550" on="1"/>
        <pt x="352" y="556" on="0"/>
        <pt x="203" y="556" on="0"/>
        <pt x="173" y="541" on="1"/>
        <pt x="159" y="536" on="0"/>
        <pt x="119" y="466" on="1"/>
        <pt x="106" y="444" on="1"/>
        <pt x="92" y="444" on="0"/>
        <pt x="41" y="474" on="0"/>
        <pt x="41" y="482" on="1"/>
        <pt x="41" y="506" on="0"/>
        <pt x="62" y="602" on="0"/>
        <pt x="87" y="678" on="0"/>
        <pt x="91" y="678" on="1"/>
        <pt x="119" y="678" on="0"/>
        <pt x="177" y="653" on="0"/>
        <pt x="179" y="653" on="1"/>
        <pt x="269" y="666" on="0"/>
        <pt x="492" y="666" on="0"/>
        <pt x="510" y="660" on="1"/>
        <pt x="518" y="653" on="0"/>
        <pt x="539" y="605" on="0"/>
        <pt x="539" y="575" on="1"/>
        <pt x="539" y="572" on="0"/>
        <pt x="531" y="564" on="1"/>
        <pt x="469" y="494" on="0"/>
        <pt x="210" y="128" on="0"/>
        <pt x="210" y="106" on="1"/>
        <pt x="210" y="99" on="0"/>
        <pt x="377" y="99" on="0"/>
        <pt x="403" y="115" on="1"/>
        <pt x="419" y="129" on="0"/>
        <pt x="475" y="215" on="0"/>
        <pt x="484" y="241" on="1"/>
        <pt x="484" y="243" on="0"/>
        <pt x="501" y="243" on="0"/>
        <pt x="554" y="211" on="0"/>
      </contour>
    </TTGlyph>
    <TTGlyph name="Zcaron" xMin="20" yMin="-20" xMax="554" yMax="851">
      <contour>
        <pt x="319" y="785" on="1"/>
        <pt x="328" y="790" on="0"/>
        <pt x="382" y="841" on="0"/>
        <pt x="391" y="851" on="1"/>
        <pt x="400" y="851" on="0"/>
        <pt x="426" y="829" on="0"/>
        <pt x="428" y="820" on="1"/>
        <pt x="428" y="808" on="0"/>
        <pt x="372" y="732" on="0"/>
        <pt x="354" y="720" on="1"/>
        <pt x="338" y="720" on="0"/>
        <pt x="319" y="734" on="1"/>
        <pt x="298" y="720" on="0"/>
        <pt x="285" y="720" on="1"/>
        <pt x="266" y="732" on="0"/>
        <pt x="211" y="808" on="0"/>
        <pt x="211" y="820" on="1"/>
        <pt x="213" y="829" on="0"/>
        <pt x="238" y="851" on="0"/>
        <pt x="247" y="851" on="1"/>
        <pt x="255" y="842" on="0"/>
        <pt x="311" y="790" on="0"/>
      </contour>
      <contour>
        <pt x="554" y="199" on="1"/>
        <pt x="554" y="154" on="0"/>
        <pt x="514" y="-9" on="0"/>
        <pt x="505" y="-17" on="1"/>
        <pt x="502" y="-20" on="0"/>
        <pt x="491" y="-20" on="1"/>
        <pt x="469" y="-20" on="0"/>
        <pt x="422" y="-10" on="1"/>
        <pt x="407" y="-6" on="1"/>
        <pt x="399" y="-5" on="0"/>
        <pt x="366" y="-5" on="1"/>
        <pt x="53" y="-14" on="1"/>
        <pt x="43" y="-14" on="0"/>
        <pt x="20" y="42" on="0"/>
        <pt x="20" y="76" on="0"/>
        <pt x="21" y="80" on="1"/>
        <pt x="37" y="114" on="0"/>
        <pt x="204" y="340" on="0"/>
        <pt x="352" y="539" on="0"/>
        <pt x="352" y="550" on="1"/>
        <pt x="352" y="556" on="0"/>
        <pt x="203" y="556" on="0"/>
        <pt x="173" y="541" on="1"/>
        <pt x="159" y="536" on="0"/>
        <pt x="119" y="466" on="1"/>
        <pt x="106" y="444" on="1"/>
        <pt x="92" y="444" on="0"/>
        <pt x="41" y="474" on="0"/>
        <pt x="41" y="482" on="1"/>
        <pt x="41" y="506" on="0"/>
        <pt x="62" y="602" on="0"/>
        <pt x="87" y="678" on="0"/>
        <pt x="91" y="678" on="1"/>
        <pt x="119" y="678" on="0"/>
        <pt x="177" y="653" on="0"/>
        <pt x="179" y="653" on="1"/>
        <pt x="269" y="666" on="0"/>
        <pt x="492" y="666" on="0"/>
        <pt x="510" y="660" on="1"/>
        <pt x="518" y="653" on="0"/>
        <pt x="539" y="605" on="0"/>
        <pt x="539" y="575" on="1"/>
        <pt x="539" y="572" on="0"/>
        <pt x="531" y="564" on="1"/>
        <pt x="469" y="494" on="0"/>
        <pt x="210" y="128" on="0"/>
        <pt x="210" y="106" on="1"/>
        <pt x="210" y="99" on="0"/>
        <pt x="377" y="99" on="0"/>
        <pt x="403" y="115" on="1"/>
        <pt x="419" y="129" on="0"/>
        <pt x="475" y="215" on="0"/>
        <pt x="484" y="241" on="1"/>
        <pt x="484" y="243" on="0"/>
        <pt x="501" y="243" on="0"/>
        <pt x="554" y="211" on="0"/>
      </contour>
    </TTGlyph>
    <TTGlyph name="a" xMin="25" yMin="-57" xMax="444" yMax="452">
      <contour>
        <pt x="407" y="223" on="1"/>
        <pt x="407" y="98" on="0"/>
        <pt x="410" y="77" on="1"/>
        <pt x="418" y="22" on="0"/>
        <pt x="444" y="-2" on="1"/>
        <pt x="444" y="-13" on="0"/>
        <pt x="365" y="-57" on="0"/>
        <pt x="333" y="-57" on="1"/>
        <pt x="324" y="-57" on="0"/>
        <pt x="304" y="-4" on="0"/>
        <pt x="301" y="22" on="0"/>
        <pt x="300" y="22" on="1"/>
        <pt x="297" y="20" on="1"/>
        <pt x="244" y="-22" on="0"/>
        <pt x="102" y="-22" on="0"/>
        <pt x="25" y="47" on="0"/>
        <pt x="25" y="159" on="0"/>
        <pt x="74" y="236" on="0"/>
        <pt x="140" y="276" on="0"/>
        <pt x="180" y="288" on="1"/>
        <pt x="241" y="308" on="0"/>
        <pt x="276" y="308" on="1"/>
        <pt x="278" y="309" on="1"/>
        <pt x="278" y="358" on="0"/>
        <pt x="154" y="358" on="1"/>
        <pt x="105" y="358" on="0"/>
        <pt x="81" y="354" on="1"/>
        <pt x="80" y="354" on="1"/>
        <pt x="80" y="374" on="0"/>
        <pt x="105" y="434" on="0"/>
        <pt x="122" y="452" on="0"/>
        <pt x="185" y="452" on="1"/>
        <pt x="299" y="452" on="0"/>
        <pt x="407" y="365" on="0"/>
        <pt x="407" y="274" on="1"/>
      </contour>
      <contour>
        <pt x="296" y="159" on="1"/>
        <pt x="296" y="197" on="1"/>
        <pt x="296" y="219" on="0"/>
        <pt x="295" y="219" on="1"/>
        <pt x="228" y="219" on="0"/>
        <pt x="179" y="184" on="1"/>
        <pt x="148" y="162" on="0"/>
        <pt x="148" y="129" on="1"/>
        <pt x="148" y="108" on="0"/>
        <pt x="178" y="80" on="0"/>
        <pt x="239" y="80" on="0"/>
        <pt x="296" y="116" on="0"/>
      </contour>
    </TTGlyph>
    <TTGlyph name="aacute" xMin="25" yMin="-57" xMax="444" yMax="619">
      <contour>
        <pt x="407" y="223" on="1"/>
        <pt x="407" y="98" on="0"/>
        <pt x="410" y="77" on="1"/>
        <pt x="418" y="22" on="0"/>
        <pt x="444" y="-2" on="1"/>
        <pt x="444" y="-13" on="0"/>
        <pt x="365" y="-57" on="0"/>
        <pt x="333" y="-57" on="1"/>
        <pt x="324" y="-57" on="0"/>
        <pt x="304" y="-4" on="0"/>
        <pt x="301" y="22" on="0"/>
        <pt x="300" y="22" on="1"/>
        <pt x="297" y="20" on="1"/>
        <pt x="244" y="-22" on="0"/>
        <pt x="102" y="-22" on="0"/>
        <pt x="25" y="47" on="0"/>
        <pt x="25" y="159" on="0"/>
        <pt x="74" y="236" on="0"/>
        <pt x="140" y="276" on="0"/>
        <pt x="180" y="288" on="1"/>
        <pt x="241" y="308" on="0"/>
        <pt x="276" y="308" on="1"/>
        <pt x="278" y="309" on="1"/>
        <pt x="278" y="358" on="0"/>
        <pt x="154" y="358" on="1"/>
        <pt x="105" y="358" on="0"/>
        <pt x="81" y="354" on="1"/>
        <pt x="80" y="354" on="1"/>
        <pt x="80" y="374" on="0"/>
        <pt x="105" y="434" on="0"/>
        <pt x="122" y="452" on="0"/>
        <pt x="185" y="452" on="1"/>
        <pt x="299" y="452" on="0"/>
        <pt x="407" y="365" on="0"/>
        <pt x="407" y="274" on="1"/>
      </contour>
      <contour>
        <pt x="296" y="159" on="1"/>
        <pt x="296" y="197" on="1"/>
        <pt x="296" y="219" on="0"/>
        <pt x="295" y="219" on="1"/>
        <pt x="228" y="219" on="0"/>
        <pt x="179" y="184" on="1"/>
        <pt x="148" y="162" on="0"/>
        <pt x="148" y="129" on="1"/>
        <pt x="148" y="108" on="0"/>
        <pt x="178" y="80" on="0"/>
        <pt x="239" y="80" on="0"/>
        <pt x="296" y="116" on="0"/>
      </contour>
      <contour>
        <pt x="221" y="488" on="1"/>
        <pt x="212" y="488" on="0"/>
        <pt x="187" y="510" on="0"/>
        <pt x="185" y="519" on="1"/>
        <pt x="185" y="532" on="0"/>
        <pt x="240" y="608" on="0"/>
        <pt x="259" y="619" on="1"/>
        <pt x="275" y="619" on="0"/>
        <pt x="320" y="586" on="0"/>
        <pt x="320" y="574" on="1"/>
        <pt x="300" y="562" on="0"/>
        <pt x="231" y="500" on="0"/>
      </contour>
    </TTGlyph>
    <TTGlyph name="acircumflex" xMin="25" yMin="-57" xMax="444" yMax="619">
      <contour>
        <pt x="407" y="223" on="1"/>
        <pt x="407" y="98" on="0"/>
        <pt x="410" y="77" on="1"/>
        <pt x="418" y="22" on="0"/>
        <pt x="444" y="-2" on="1"/>
        <pt x="444" y="-13" on="0"/>
        <pt x="365" y="-57" on="0"/>
        <pt x="333" y="-57" on="1"/>
        <pt x="324" y="-57" on="0"/>
        <pt x="304" y="-4" on="0"/>
        <pt x="301" y="22" on="0"/>
        <pt x="300" y="22" on="1"/>
        <pt x="297" y="20" on="1"/>
        <pt x="244" y="-22" on="0"/>
        <pt x="102" y="-22" on="0"/>
        <pt x="25" y="47" on="0"/>
        <pt x="25" y="159" on="0"/>
        <pt x="74" y="236" on="0"/>
        <pt x="140" y="276" on="0"/>
        <pt x="180" y="288" on="1"/>
        <pt x="241" y="308" on="0"/>
        <pt x="276" y="308" on="1"/>
        <pt x="278" y="309" on="1"/>
        <pt x="278" y="358" on="0"/>
        <pt x="154" y="358" on="1"/>
        <pt x="105" y="358" on="0"/>
        <pt x="81" y="354" on="1"/>
        <pt x="80" y="354" on="1"/>
        <pt x="80" y="374" on="0"/>
        <pt x="105" y="434" on="0"/>
        <pt x="122" y="452" on="0"/>
        <pt x="185" y="452" on="1"/>
        <pt x="299" y="452" on="0"/>
        <pt x="407" y="365" on="0"/>
        <pt x="407" y="274" on="1"/>
      </contour>
      <contour>
        <pt x="230" y="554" on="1"/>
        <pt x="221" y="549" on="0"/>
        <pt x="165" y="497" on="0"/>
        <pt x="158" y="488" on="1"/>
        <pt x="149" y="488" on="0"/>
        <pt x="123" y="510" on="0"/>
        <pt x="121" y="519" on="1"/>
        <pt x="121" y="532" on="0"/>
        <pt x="176" y="608" on="0"/>
        <pt x="195" y="619" on="1"/>
        <pt x="210" y="619" on="0"/>
        <pt x="230" y="606" on="1"/>
        <pt x="249" y="619" on="0"/>
        <pt x="264" y="619" on="1"/>
        <pt x="283" y="608" on="0"/>
        <pt x="338" y="532" on="0"/>
        <pt x="338" y="519" on="1"/>
        <pt x="336" y="510" on="0"/>
        <pt x="310" y="488" on="0"/>
        <pt x="301" y="488" on="1"/>
        <pt x="296" y="495" on="0"/>
        <pt x="238" y="549" on="0"/>
      </contour>
      <contour>
        <pt x="296" y="159" on="1"/>
        <pt x="296" y="197" on="1"/>
        <pt x="296" y="219" on="0"/>
        <pt x="295" y="219" on="1"/>
        <pt x="228" y="219" on="0"/>
        <pt x="179" y="184" on="1"/>
        <pt x="148" y="162" on="0"/>
        <pt x="148" y="129" on="1"/>
        <pt x="148" y="108" on="0"/>
        <pt x="178" y="80" on="0"/>
        <pt x="239" y="80" on="0"/>
        <pt x="296" y="116" on="0"/>
      </contour>
    </TTGlyph>
    <TTGlyph name="acute" xMin="202" yMin="488" xMax="337" yMax="619">
      <contour>
        <pt x="238" y="488" on="1"/>
        <pt x="229" y="488" on="0"/>
        <pt x="204" y="510" on="0"/>
        <pt x="202" y="519" on="1"/>
        <pt x="202" y="532" on="0"/>
        <pt x="257" y="608" on="0"/>
        <pt x="276" y="619" on="1"/>
        <pt x="292" y="619" on="0"/>
        <pt x="337" y="586" on="0"/>
        <pt x="337" y="574" on="1"/>
        <pt x="317" y="562" on="0"/>
        <pt x="248" y="500" on="0"/>
      </contour>
    </TTGlyph>
    <TTGlyph name="adieresis" xMin="25" yMin="-57" xMax="444" yMax="598">
      <contour>
        <pt x="407" y="223" on="1"/>
        <pt x="407" y="98" on="0"/>
        <pt x="410" y="77" on="1"/>
        <pt x="418" y="22" on="0"/>
        <pt x="444" y="-2" on="1"/>
        <pt x="444" y="-13" on="0"/>
        <pt x="365" y="-57" on="0"/>
        <pt x="333" y="-57" on="1"/>
        <pt x="324" y="-57" on="0"/>
        <pt x="304" y="-4" on="0"/>
        <pt x="301" y="22" on="0"/>
        <pt x="300" y="22" on="1"/>
        <pt x="297" y="20" on="1"/>
        <pt x="244" y="-22" on="0"/>
        <pt x="102" y="-22" on="0"/>
        <pt x="25" y="47" on="0"/>
        <pt x="25" y="159" on="0"/>
        <pt x="74" y="236" on="0"/>
        <pt x="140" y="276" on="0"/>
        <pt x="180" y="288" on="1"/>
        <pt x="241" y="308" on="0"/>
        <pt x="276" y="308" on="1"/>
        <pt x="278" y="309" on="1"/>
        <pt x="278" y="358" on="0"/>
        <pt x="154" y="358" on="1"/>
        <pt x="105" y="358" on="0"/>
        <pt x="81" y="354" on="1"/>
        <pt x="80" y="354" on="1"/>
        <pt x="80" y="374" on="0"/>
        <pt x="105" y="434" on="0"/>
        <pt x="122" y="452" on="0"/>
        <pt x="185" y="452" on="1"/>
        <pt x="299" y="452" on="0"/>
        <pt x="407" y="365" on="0"/>
        <pt x="407" y="274" on="1"/>
      </contour>
      <contour>
        <pt x="296" y="159" on="1"/>
        <pt x="296" y="197" on="1"/>
        <pt x="296" y="219" on="0"/>
        <pt x="295" y="219" on="1"/>
        <pt x="228" y="219" on="0"/>
        <pt x="179" y="184" on="1"/>
        <pt x="148" y="162" on="0"/>
        <pt x="148" y="129" on="1"/>
        <pt x="148" y="108" on="0"/>
        <pt x="178" y="80" on="0"/>
        <pt x="239" y="80" on="0"/>
        <pt x="296" y="116" on="0"/>
      </contour>
      <contour>
        <pt x="188" y="568" on="0"/>
        <pt x="188" y="526" on="0"/>
        <pt x="156" y="494" on="0"/>
        <pt x="113" y="494" on="0"/>
        <pt x="85" y="522" on="0"/>
        <pt x="85" y="567" on="0"/>
        <pt x="116" y="598" on="0"/>
        <pt x="158" y="598" on="0"/>
      </contour>
      <contour>
        <pt x="375" y="568" on="0"/>
        <pt x="375" y="526" on="0"/>
        <pt x="344" y="494" on="0"/>
        <pt x="301" y="494" on="0"/>
        <pt x="273" y="522" on="0"/>
        <pt x="273" y="567" on="0"/>
        <pt x="304" y="598" on="0"/>
        <pt x="346" y="598" on="0"/>
      </contour>
    </TTGlyph>
    <TTGlyph name="ae" xMin="30" yMin="-58" xMax="664" yMax="452">
      <contour>
        <pt x="189" y="452" on="1"/>
        <pt x="337" y="452" on="0"/>
        <pt x="383" y="383" on="1"/>
        <pt x="439" y="437" on="0"/>
        <pt x="538" y="437" on="1"/>
        <pt x="585" y="437" on="0"/>
        <pt x="664" y="387" on="0"/>
        <pt x="664" y="262" on="0"/>
        <pt x="555" y="139" on="0"/>
        <pt x="461" y="108" on="1"/>
        <pt x="461" y="96" on="0"/>
        <pt x="506" y="81" on="0"/>
        <pt x="530" y="81" on="1"/>
        <pt x="604" y="81" on="0"/>
        <pt x="656" y="109" on="1"/>
        <pt x="659" y="109" on="0"/>
        <pt x="659" y="90" on="1"/>
        <pt x="659" y="32" on="0"/>
        <pt x="634" y="-1" on="1"/>
        <pt x="600" y="-24" on="0"/>
        <pt x="503" y="-24" on="1"/>
        <pt x="470" y="-24" on="0"/>
        <pt x="438" y="-16" on="1"/>
        <pt x="422" y="-30" on="0"/>
        <pt x="363" y="-58" on="0"/>
        <pt x="338" y="-58" on="1"/>
        <pt x="328" y="-58" on="0"/>
        <pt x="309" y="-4" on="0"/>
        <pt x="306" y="20" on="1"/>
        <pt x="305" y="23" on="0"/>
        <pt x="302" y="20" on="1"/>
        <pt x="249" y="-22" on="0"/>
        <pt x="106" y="-22" on="0"/>
        <pt x="30" y="47" on="0"/>
        <pt x="30" y="159" on="0"/>
        <pt x="79" y="236" on="0"/>
        <pt x="145" y="276" on="0"/>
        <pt x="184" y="288" on="1"/>
        <pt x="246" y="308" on="0"/>
        <pt x="281" y="308" on="1"/>
        <pt x="283" y="309" on="1"/>
        <pt x="283" y="358" on="0"/>
        <pt x="159" y="358" on="1"/>
        <pt x="113" y="358" on="0"/>
        <pt x="85" y="354" on="1"/>
        <pt x="85" y="374" on="0"/>
        <pt x="110" y="435" on="0"/>
        <pt x="127" y="452" on="0"/>
      </contour>
      <contour>
        <pt x="153" y="108" on="0"/>
        <pt x="183" y="80" on="0"/>
        <pt x="244" y="80" on="0"/>
        <pt x="301" y="116" on="0"/>
        <pt x="301" y="159" on="1"/>
        <pt x="301" y="197" on="1"/>
        <pt x="301" y="219" on="0"/>
        <pt x="300" y="219" on="1"/>
        <pt x="233" y="219" on="0"/>
        <pt x="184" y="184" on="1"/>
        <pt x="153" y="162" on="0"/>
        <pt x="153" y="129" on="1"/>
      </contour>
      <contour>
        <pt x="413" y="204" on="1"/>
        <pt x="414" y="191" on="1"/>
        <pt x="417" y="189" on="1"/>
        <pt x="453" y="191" on="0"/>
        <pt x="547" y="272" on="0"/>
        <pt x="547" y="318" on="1"/>
        <pt x="547" y="346" on="0"/>
        <pt x="477" y="346" on="0"/>
        <pt x="413" y="258" on="0"/>
      </contour>
    </TTGlyph>
    <TTGlyph name="agrave" xMin="25" yMin="-57" xMax="444" yMax="619">
      <contour>
        <pt x="407" y="223" on="1"/>
        <pt x="407" y="98" on="0"/>
        <pt x="410" y="77" on="1"/>
        <pt x="418" y="22" on="0"/>
        <pt x="444" y="-2" on="1"/>
        <pt x="444" y="-13" on="0"/>
        <pt x="365" y="-57" on="0"/>
        <pt x="333" y="-57" on="1"/>
        <pt x="324" y="-57" on="0"/>
        <pt x="304" y="-4" on="0"/>
        <pt x="301" y="22" on="0"/>
        <pt x="300" y="22" on="1"/>
        <pt x="297" y="20" on="1"/>
        <pt x="244" y="-22" on="0"/>
        <pt x="102" y="-22" on="0"/>
        <pt x="25" y="47" on="0"/>
        <pt x="25" y="159" on="0"/>
        <pt x="74" y="236" on="0"/>
        <pt x="140" y="276" on="0"/>
        <pt x="180" y="288" on="1"/>
        <pt x="241" y="308" on="0"/>
        <pt x="276" y="308" on="1"/>
        <pt x="278" y="309" on="1"/>
        <pt x="278" y="358" on="0"/>
        <pt x="154" y="358" on="1"/>
        <pt x="105" y="358" on="0"/>
        <pt x="81" y="354" on="1"/>
        <pt x="80" y="354" on="1"/>
        <pt x="80" y="374" on="0"/>
        <pt x="105" y="434" on="0"/>
        <pt x="122" y="452" on="0"/>
        <pt x="185" y="452" on="1"/>
        <pt x="299" y="452" on="0"/>
        <pt x="407" y="365" on="0"/>
        <pt x="407" y="274" on="1"/>
      </contour>
      <contour>
        <pt x="296" y="159" on="1"/>
        <pt x="296" y="197" on="1"/>
        <pt x="296" y="219" on="0"/>
        <pt x="295" y="219" on="1"/>
        <pt x="228" y="219" on="0"/>
        <pt x="179" y="184" on="1"/>
        <pt x="148" y="162" on="0"/>
        <pt x="148" y="129" on="1"/>
        <pt x="148" y="108" on="0"/>
        <pt x="178" y="80" on="0"/>
        <pt x="239" y="80" on="0"/>
        <pt x="296" y="116" on="0"/>
      </contour>
      <contour>
        <pt x="261" y="488" on="1"/>
        <pt x="251" y="500" on="0"/>
        <pt x="182" y="562" on="0"/>
        <pt x="162" y="574" on="1"/>
        <pt x="162" y="586" on="0"/>
        <pt x="207" y="619" on="0"/>
        <pt x="223" y="619" on="1"/>
        <pt x="242" y="608" on="0"/>
        <pt x="297" y="532" on="0"/>
        <pt x="297" y="519" on="1"/>
        <pt x="295" y="510" on="0"/>
        <pt x="270" y="488" on="0"/>
      </contour>
    </TTGlyph>
    <TTGlyph name="ampersand" xMin="40" yMin="-47" xMax="594" yMax="673">
      <contour>
        <pt x="486" y="325" on="1"/>
        <pt x="485" y="339" on="1"/>
        <pt x="513" y="339" on="0"/>
        <pt x="567" y="320" on="0"/>
        <pt x="580" y="311" on="1"/>
        <pt x="594" y="302" on="1"/>
        <pt x="594" y="166" on="0"/>
        <pt x="508" y="77" on="1"/>
        <pt x="536" y="38" on="0"/>
        <pt x="571" y="10" on="1"/>
        <pt x="572" y="9" on="0"/>
        <pt x="572" y="8" on="1"/>
        <pt x="572" y="-2" on="0"/>
        <pt x="493" y="-47" on="0"/>
        <pt x="464" y="-47" on="1"/>
        <pt x="430" y="-7" on="0"/>
        <pt x="416" y="12" on="1"/>
        <pt x="352" y="-25" on="0"/>
        <pt x="274" y="-25" on="1"/>
        <pt x="170" y="-25" on="0"/>
        <pt x="40" y="80" on="0"/>
        <pt x="40" y="182" on="1"/>
        <pt x="40" y="335" on="0"/>
        <pt x="188" y="409" on="1"/>
        <pt x="161" y="480" on="0"/>
        <pt x="161" y="526" on="1"/>
        <pt x="161" y="598" on="0"/>
        <pt x="279" y="673" on="0"/>
        <pt x="356" y="673" on="1"/>
        <pt x="407" y="670" on="0"/>
        <pt x="411" y="666" on="1"/>
        <pt x="426" y="637" on="0"/>
        <pt x="426" y="588" on="1"/>
        <pt x="426" y="579" on="0"/>
        <pt x="425" y="575" on="1"/>
        <pt x="397" y="579" on="0"/>
        <pt x="341" y="579" on="0"/>
        <pt x="285" y="549" on="0"/>
        <pt x="285" y="465" on="0"/>
        <pt x="391" y="241" on="0"/>
        <pt x="444" y="165" on="1"/>
        <pt x="465" y="192" on="0"/>
        <pt x="486" y="287" on="0"/>
      </contour>
      <contour>
        <pt x="157" y="143" on="0"/>
        <pt x="216" y="76" on="0"/>
        <pt x="328" y="76" on="0"/>
        <pt x="358" y="95" on="1"/>
        <pt x="285" y="205" on="0"/>
        <pt x="236" y="311" on="1"/>
        <pt x="208" y="302" on="0"/>
        <pt x="184" y="274" on="1"/>
        <pt x="157" y="241" on="0"/>
      </contour>
    </TTGlyph>
    <TTGlyph name="apple" xMin="0" yMin="-107" xMax="695" yMax="718">
      <contour>
        <pt x="477" y="718" on="1"/>
        <pt x="378" y="625" on="1"/>
        <pt x="364" y="628" on="0"/>
        <pt x="334" y="628" on="0"/>
        <pt x="317" y="625" on="1"/>
        <pt x="218" y="718" on="1"/>
        <pt x="283" y="718" on="1"/>
        <pt x="346" y="651" on="1"/>
        <pt x="411" y="718" on="1"/>
      </contour>
      <contour>
        <pt x="492" y="588" on="0"/>
        <pt x="695" y="383" on="0"/>
        <pt x="695" y="96" on="0"/>
        <pt x="489" y="-107" on="0"/>
        <pt x="348" y="-107" on="1"/>
        <pt x="250" y="-107" on="0"/>
        <pt x="88" y="-8" on="0"/>
        <pt x="0" y="151" on="0"/>
        <pt x="0" y="241" on="1"/>
        <pt x="0" y="388" on="0"/>
        <pt x="207" y="588" on="0"/>
      </contour>
      <contour>
        <pt x="473" y="-57" on="0"/>
        <pt x="645" y="120" on="0"/>
        <pt x="645" y="367" on="0"/>
        <pt x="467" y="539" on="0"/>
        <pt x="221" y="539" on="0"/>
        <pt x="50" y="359" on="0"/>
        <pt x="50" y="116" on="0"/>
        <pt x="227" y="-57" on="0"/>
      </contour>
      <contour>
        <pt x="504" y="131" on="1"/>
        <pt x="504" y="72" on="0"/>
        <pt x="404" y="12" on="0"/>
        <pt x="279" y="12" on="0"/>
        <pt x="191" y="55" on="1"/>
        <pt x="201" y="107" on="1"/>
        <pt x="273" y="62" on="0"/>
        <pt x="342" y="62" on="1"/>
        <pt x="386" y="62" on="0"/>
        <pt x="441" y="98" on="0"/>
        <pt x="441" y="130" on="1"/>
        <pt x="441" y="171" on="0"/>
        <pt x="338" y="220" on="1"/>
        <pt x="236" y="270" on="0"/>
        <pt x="213" y="310" on="1"/>
        <pt x="201" y="331" on="0"/>
        <pt x="201" y="356" on="1"/>
        <pt x="201" y="415" on="0"/>
        <pt x="290" y="470" on="0"/>
        <pt x="345" y="470" on="1"/>
        <pt x="394" y="470" on="0"/>
        <pt x="450" y="438" on="1"/>
        <pt x="475" y="424" on="0"/>
        <pt x="479" y="422" on="1"/>
        <pt x="466" y="375" on="1"/>
        <pt x="414" y="421" on="0"/>
        <pt x="349" y="421" on="1"/>
        <pt x="310" y="421" on="0"/>
        <pt x="261" y="387" on="0"/>
        <pt x="261" y="338" on="0"/>
        <pt x="302" y="301" on="0"/>
        <pt x="388" y="260" on="0"/>
        <pt x="453" y="232" on="0"/>
        <pt x="504" y="173" on="0"/>
      </contour>
    </TTGlyph>
    <TTGlyph name="aring" xMin="25" yMin="-57" xMax="444" yMax="620">
      <contour>
        <pt x="407" y="223" on="1"/>
        <pt x="407" y="98" on="0"/>
        <pt x="410" y="77" on="1"/>
        <pt x="418" y="22" on="0"/>
        <pt x="444" y="-2" on="1"/>
        <pt x="444" y="-13" on="0"/>
        <pt x="365" y="-57" on="0"/>
        <pt x="333" y="-57" on="1"/>
        <pt x="324" y="-57" on="0"/>
        <pt x="304" y="-4" on="0"/>
        <pt x="301" y="22" on="0"/>
        <pt x="300" y="22" on="1"/>
        <pt x="297" y="20" on="1"/>
        <pt x="244" y="-22" on="0"/>
        <pt x="102" y="-22" on="0"/>
        <pt x="25" y="47" on="0"/>
        <pt x="25" y="159" on="0"/>
        <pt x="74" y="236" on="0"/>
        <pt x="140" y="276" on="0"/>
        <pt x="180" y="288" on="1"/>
        <pt x="241" y="308" on="0"/>
        <pt x="276" y="308" on="1"/>
        <pt x="278" y="309" on="1"/>
        <pt x="278" y="358" on="0"/>
        <pt x="154" y="358" on="1"/>
        <pt x="105" y="358" on="0"/>
        <pt x="81" y="354" on="1"/>
        <pt x="80" y="354" on="1"/>
        <pt x="80" y="374" on="0"/>
        <pt x="105" y="434" on="0"/>
        <pt x="122" y="452" on="0"/>
        <pt x="185" y="452" on="1"/>
        <pt x="299" y="452" on="0"/>
        <pt x="407" y="365" on="0"/>
        <pt x="407" y="274" on="1"/>
      </contour>
      <contour>
        <pt x="296" y="159" on="1"/>
        <pt x="296" y="197" on="1"/>
        <pt x="296" y="219" on="0"/>
        <pt x="295" y="219" on="1"/>
        <pt x="228" y="219" on="0"/>
        <pt x="179" y="184" on="1"/>
        <pt x="148" y="162" on="0"/>
        <pt x="148" y="129" on="1"/>
        <pt x="148" y="108" on="0"/>
        <pt x="178" y="80" on="0"/>
        <pt x="239" y="80" on="0"/>
        <pt x="296" y="116" on="0"/>
      </contour>
      <contour>
        <pt x="296" y="581" on="0"/>
        <pt x="296" y="527" on="0"/>
        <pt x="255" y="486" on="0"/>
        <pt x="201" y="486" on="0"/>
        <pt x="164" y="522" on="0"/>
        <pt x="164" y="579" on="0"/>
        <pt x="204" y="620" on="0"/>
        <pt x="258" y="620" on="0"/>
      </contour>
      <contour>
        <pt x="259" y="565" on="0"/>
        <pt x="242" y="582" on="0"/>
        <pt x="219" y="582" on="0"/>
        <pt x="201" y="564" on="0"/>
        <pt x="201" y="539" on="0"/>
        <pt x="217" y="523" on="0"/>
        <pt x="241" y="523" on="0"/>
        <pt x="259" y="541" on="0"/>
      </contour>
    </TTGlyph>
    <TTGlyph name="asciicircum" xMin="15" yMin="126" xMax="276" yMax="283">
      <contour>
        <pt x="147" y="218" on="1"/>
        <pt x="138" y="213" on="0"/>
        <pt x="59" y="137" on="0"/>
        <pt x="52" y="128" on="1"/>
        <pt x="43" y="128" on="0"/>
        <pt x="17" y="150" on="0"/>
        <pt x="15" y="159" on="1"/>
        <pt x="15" y="172" on="0"/>
        <pt x="93" y="272" on="0"/>
        <pt x="112" y="283" on="1"/>
        <pt x="127" y="283" on="0"/>
        <pt x="147" y="270" on="1"/>
        <pt x="166" y="283" on="0"/>
        <pt x="181" y="283" on="1"/>
        <pt x="200" y="272" on="0"/>
        <pt x="276" y="170" on="0"/>
        <pt x="276" y="157" on="1"/>
        <pt x="274" y="148" on="0"/>
        <pt x="248" y="126" on="0"/>
        <pt x="239" y="126" on="1"/>
        <pt x="233" y="134" on="0"/>
        <pt x="155" y="213" on="0"/>
      </contour>
    </TTGlyph>
    <TTGlyph name="asciitilde" xMin="30" yMin="179" xMax="276" yMax="275">
      <contour>
        <pt x="205" y="181" on="0"/>
        <pt x="118" y="195" on="0"/>
        <pt x="68" y="195" on="0"/>
        <pt x="36" y="179" on="1"/>
        <pt x="30" y="187" on="0"/>
        <pt x="30" y="247" on="0"/>
        <pt x="36" y="253" on="1"/>
        <pt x="61" y="272" on="0"/>
        <pt x="114" y="272" on="0"/>
        <pt x="196" y="258" on="0"/>
        <pt x="248" y="258" on="0"/>
        <pt x="269" y="275" on="1"/>
        <pt x="276" y="275" on="0"/>
        <pt x="276" y="250" on="1"/>
        <pt x="276" y="214" on="0"/>
        <pt x="268" y="196" on="1"/>
        <pt x="248" y="181" on="0"/>
      </contour>
    </TTGlyph>
    <TTGlyph name="asterisk" xMin="20" yMin="471" xMax="229" yMax="692">
      <contour>
        <pt x="144" y="547" on="1"/>
        <pt x="147" y="477" on="1"/>
        <pt x="141" y="471" on="0"/>
        <pt x="125" y="471" on="1"/>
        <pt x="101" y="474" on="1"/>
        <pt x="106" y="547" on="1"/>
        <pt x="45" y="509" on="1"/>
        <pt x="38" y="510" on="0"/>
        <pt x="29" y="526" on="1"/>
        <pt x="20" y="548" on="1"/>
        <pt x="86" y="581" on="1"/>
        <pt x="22" y="614" on="1"/>
        <pt x="22" y="626" on="0"/>
        <pt x="28" y="636" on="1"/>
        <pt x="43" y="655" on="1"/>
        <pt x="106" y="614" on="1"/>
        <pt x="101" y="687" on="1"/>
        <pt x="108" y="692" on="0"/>
        <pt x="128" y="692" on="1"/>
        <pt x="147" y="689" on="1"/>
        <pt x="144" y="615" on="1"/>
        <pt x="204" y="654" on="1"/>
        <pt x="212" y="651" on="0"/>
        <pt x="222" y="633" on="1"/>
        <pt x="229" y="615" on="1"/>
        <pt x="163" y="581" on="1"/>
        <pt x="227" y="549" on="1"/>
        <pt x="227" y="539" on="0"/>
        <pt x="218" y="523" on="1"/>
        <pt x="206" y="508" on="1"/>
      </contour>
    </TTGlyph>
    <TTGlyph name="at" xMin="30" yMin="-230" xMax="962" yMax="673">
      <contour>
        <pt x="517" y="-113" on="1"/>
        <pt x="518" y="-116" on="0"/>
        <pt x="518" y="-148" on="0"/>
        <pt x="497" y="-215" on="0"/>
        <pt x="488" y="-223" on="1"/>
        <pt x="485" y="-228" on="0"/>
        <pt x="456" y="-230" on="1"/>
        <pt x="365" y="-230" on="0"/>
        <pt x="218" y="-178" on="0"/>
        <pt x="123" y="-93" on="0"/>
        <pt x="90" y="-36" on="1"/>
        <pt x="30" y="70" on="0"/>
        <pt x="30" y="204" on="1"/>
        <pt x="30" y="329" on="0"/>
        <pt x="100" y="446" on="1"/>
        <pt x="137" y="510" on="0"/>
        <pt x="244" y="610" on="0"/>
        <pt x="411" y="673" on="0"/>
        <pt x="612" y="673" on="0"/>
        <pt x="772" y="615" on="0"/>
        <pt x="871" y="525" on="0"/>
        <pt x="904" y="466" on="1"/>
        <pt x="962" y="358" on="0"/>
        <pt x="962" y="234" on="1"/>
        <pt x="962" y="116" on="0"/>
        <pt x="901" y="12" on="1"/>
        <pt x="871" y="-40" on="0"/>
        <pt x="767" y="-105" on="0"/>
        <pt x="702" y="-105" on="1"/>
        <pt x="647" y="-105" on="0"/>
        <pt x="604" y="-68" on="1"/>
        <pt x="566" y="-34" on="0"/>
        <pt x="562" y="35" on="1"/>
        <pt x="562" y="37" on="0"/>
        <pt x="560" y="37" on="0"/>
        <pt x="558" y="35" on="1"/>
        <pt x="505" y="-7" on="0"/>
        <pt x="363" y="-7" on="0"/>
        <pt x="286" y="61" on="0"/>
        <pt x="286" y="173" on="0"/>
        <pt x="335" y="250" on="0"/>
        <pt x="402" y="290" on="0"/>
        <pt x="441" y="303" on="1"/>
        <pt x="501" y="323" on="0"/>
        <pt x="538" y="323" on="1"/>
        <pt x="539" y="324" on="1"/>
        <pt x="539" y="373" on="0"/>
        <pt x="415" y="373" on="1"/>
        <pt x="366" y="373" on="0"/>
        <pt x="342" y="369" on="1"/>
        <pt x="341" y="369" on="1"/>
        <pt x="341" y="389" on="0"/>
        <pt x="367" y="450" on="0"/>
        <pt x="377" y="460" on="1"/>
        <pt x="377" y="463" on="0"/>
        <pt x="425" y="467" on="0"/>
        <pt x="446" y="467" on="1"/>
        <pt x="561" y="467" on="0"/>
        <pt x="669" y="378" on="0"/>
        <pt x="669" y="284" on="1"/>
        <pt x="668" y="258" on="1"/>
        <pt x="667" y="182" on="0"/>
        <pt x="667" y="82" on="0"/>
        <pt x="669" y="62" on="1"/>
        <pt x="676" y="2" on="0"/>
        <pt x="726" y="2" on="1"/>
        <pt x="760" y="2" on="0"/>
        <pt x="811" y="50" on="0"/>
        <pt x="824" y="88" on="1"/>
        <pt x="848" y="161" on="0"/>
        <pt x="848" y="226" on="1"/>
        <pt x="848" y="401" on="0"/>
        <pt x="659" y="578" on="0"/>
        <pt x="511" y="578" on="1"/>
        <pt x="416" y="578" on="0"/>
        <pt x="252" y="492" on="0"/>
        <pt x="146" y="318" on="0"/>
        <pt x="146" y="203" on="1"/>
        <pt x="146" y="47" on="0"/>
        <pt x="248" y="-45" on="1"/>
        <pt x="284" y="-77" on="0"/>
        <pt x="396" y="-117" on="0"/>
        <pt x="500" y="-117" on="0"/>
      </contour>
      <contour>
        <pt x="409" y="123" on="0"/>
        <pt x="439" y="95" on="0"/>
        <pt x="488" y="95" on="0"/>
        <pt x="523" y="105" on="0"/>
        <pt x="557" y="143" on="0"/>
        <pt x="557" y="173" on="1"/>
        <pt x="557" y="211" on="1"/>
        <pt x="557" y="233" on="0"/>
        <pt x="556" y="233" on="1"/>
        <pt x="516" y="233" on="0"/>
        <pt x="480" y="220" on="1"/>
        <pt x="409" y="193" on="0"/>
        <pt x="409" y="144" on="1"/>
      </contour>
    </TTGlyph>
    <TTGlyph name="atilde" xMin="25" yMin="-57" xMax="444" yMax="590">
      <contour>
        <pt x="407" y="223" on="1"/>
        <pt x="407" y="98" on="0"/>
        <pt x="410" y="77" on="1"/>
        <pt x="418" y="22" on="0"/>
        <pt x="444" y="-2" on="1"/>
        <pt x="444" y="-13" on="0"/>
        <pt x="365" y="-57" on="0"/>
        <pt x="333" y="-57" on="1"/>
        <pt x="324" y="-57" on="0"/>
        <pt x="304" y="-4" on="0"/>
        <pt x="301" y="22" on="0"/>
        <pt x="300" y="22" on="1"/>
        <pt x="297" y="20" on="1"/>
        <pt x="244" y="-22" on="0"/>
        <pt x="102" y="-22" on="0"/>
        <pt x="25" y="47" on="0"/>
        <pt x="25" y="159" on="0"/>
        <pt x="74" y="236" on="0"/>
        <pt x="140" y="276" on="0"/>
        <pt x="180" y="288" on="1"/>
        <pt x="241" y="308" on="0"/>
        <pt x="276" y="308" on="1"/>
        <pt x="278" y="309" on="1"/>
        <pt x="278" y="358" on="0"/>
        <pt x="154" y="358" on="1"/>
        <pt x="105" y="358" on="0"/>
        <pt x="81" y="354" on="1"/>
        <pt x="80" y="354" on="1"/>
        <pt x="80" y="374" on="0"/>
        <pt x="105" y="434" on="0"/>
        <pt x="122" y="452" on="0"/>
        <pt x="185" y="452" on="1"/>
        <pt x="299" y="452" on="0"/>
        <pt x="407" y="365" on="0"/>
        <pt x="407" y="274" on="1"/>
      </contour>
      <contour>
        <pt x="296" y="159" on="1"/>
        <pt x="296" y="197" on="1"/>
        <pt x="296" y="219" on="0"/>
        <pt x="295" y="219" on="1"/>
        <pt x="228" y="219" on="0"/>
        <pt x="179" y="184" on="1"/>
        <pt x="148" y="162" on="0"/>
        <pt x="148" y="129" on="1"/>
        <pt x="148" y="108" on="0"/>
        <pt x="178" y="80" on="0"/>
        <pt x="239" y="80" on="0"/>
        <pt x="296" y="116" on="0"/>
      </contour>
      <contour>
        <pt x="267" y="496" on="0"/>
        <pt x="220" y="510" on="0"/>
        <pt x="170" y="510" on="0"/>
        <pt x="138" y="494" on="1"/>
        <pt x="132" y="502" on="0"/>
        <pt x="132" y="562" on="0"/>
        <pt x="138" y="568" on="1"/>
        <pt x="163" y="587" on="0"/>
        <pt x="216" y="587" on="0"/>
        <pt x="258" y="573" on="0"/>
        <pt x="310" y="573" on="0"/>
        <pt x="331" y="590" on="1"/>
        <pt x="338" y="590" on="0"/>
        <pt x="338" y="564" on="1"/>
        <pt x="338" y="529" on="0"/>
        <pt x="330" y="511" on="1"/>
        <pt x="310" y="496" on="0"/>
      </contour>
    </TTGlyph>
    <TTGlyph name="b" xMin="50" yMin="-71" xMax="436" yMax="677">
      <contour>
        <pt x="57" y="144" on="1"/>
        <pt x="55" y="513" on="1"/>
        <pt x="55" y="638" on="0"/>
        <pt x="60" y="643" on="1"/>
        <pt x="72" y="655" on="0"/>
        <pt x="127" y="677" on="0"/>
        <pt x="177" y="677" on="0"/>
        <pt x="177" y="673" on="1"/>
        <pt x="175" y="663" on="0"/>
        <pt x="168" y="456" on="0"/>
        <pt x="169" y="431" on="1"/>
        <pt x="185" y="431" on="1"/>
        <pt x="296" y="431" on="0"/>
        <pt x="366" y="380" on="1"/>
        <pt x="394" y="359" on="0"/>
        <pt x="436" y="276" on="0"/>
        <pt x="436" y="221" on="1"/>
        <pt x="436" y="126" on="0"/>
        <pt x="282" y="-1" on="0"/>
        <pt x="170" y="-19" on="1"/>
        <pt x="170" y="-42" on="0"/>
        <pt x="169" y="-44" on="1"/>
        <pt x="156" y="-57" on="0"/>
        <pt x="91" y="-71" on="0"/>
        <pt x="50" y="-71" on="0"/>
        <pt x="50" y="-68" on="1"/>
        <pt x="57" y="-40" on="0"/>
      </contour>
      <contour>
        <pt x="172" y="91" on="1"/>
        <pt x="198" y="91" on="0"/>
        <pt x="254" y="108" on="0"/>
        <pt x="289" y="134" on="0"/>
        <pt x="318" y="190" on="0"/>
        <pt x="318" y="280" on="0"/>
        <pt x="255" y="328" on="0"/>
        <pt x="214" y="328" on="1"/>
        <pt x="168" y="325" on="1"/>
        <pt x="168" y="253" on="1"/>
        <pt x="168" y="118" on="0"/>
      </contour>
    </TTGlyph>
    <TTGlyph name="backslash" xMin="0" yMin="-51" xMax="560" yMax="706">
      <contour>
        <pt x="90" y="703" on="1"/>
        <pt x="560" y="-41" on="1"/>
        <pt x="533" y="-51" on="0"/>
        <pt x="486" y="-51" on="0"/>
        <pt x="473" y="-48" on="1"/>
        <pt x="0" y="696" on="1"/>
        <pt x="26" y="706" on="0"/>
        <pt x="75" y="706" on="0"/>
      </contour>
    </TTGlyph>
    <TTGlyph name="bar" xMin="51" yMin="-50" xMax="128" yMax="707">
      <contour>
        <pt x="51" y="-42" on="1"/>
        <pt x="51" y="694" on="1"/>
        <pt x="64" y="707" on="0"/>
        <pt x="89" y="707" on="1"/>
        <pt x="110" y="707" on="0"/>
        <pt x="124" y="701" on="0"/>
        <pt x="128" y="700" on="1"/>
        <pt x="128" y="-41" on="1"/>
        <pt x="119" y="-50" on="0"/>
        <pt x="104" y="-50" on="1"/>
        <pt x="86" y="-50" on="1"/>
        <pt x="73" y="-50" on="0"/>
        <pt x="61" y="-46" on="0"/>
        <pt x="57" y="-45" on="0"/>
        <pt x="56" y="-44" on="1"/>
        <pt x="53" y="-44" on="0"/>
      </contour>
    </TTGlyph>
    <TTGlyph name="braceleft" xMin="5" yMin="-108" xMax="237" yMax="755">
      <contour>
        <pt x="65" y="492" on="1"/>
        <pt x="64" y="637" on="1"/>
        <pt x="64" y="680" on="0"/>
        <pt x="66" y="683" on="1"/>
        <pt x="72" y="696" on="0"/>
        <pt x="171" y="755" on="0"/>
        <pt x="186" y="755" on="1"/>
        <pt x="218" y="748" on="0"/>
        <pt x="237" y="725" on="1"/>
        <pt x="165" y="668" on="0"/>
        <pt x="160" y="643" on="1"/>
        <pt x="157" y="543" on="0"/>
        <pt x="157" y="400" on="0"/>
        <pt x="160" y="382" on="1"/>
        <pt x="100" y="335" on="0"/>
        <pt x="100" y="323" on="1"/>
        <pt x="100" y="313" on="0"/>
        <pt x="145" y="277" on="1"/>
        <pt x="160" y="265" on="1"/>
        <pt x="157" y="246" on="0"/>
        <pt x="157" y="180" on="1"/>
        <pt x="160" y="4" on="1"/>
        <pt x="164" y="-18" on="0"/>
        <pt x="219" y="-64" on="1"/>
        <pt x="237" y="-79" on="1"/>
        <pt x="220" y="-100" on="0"/>
        <pt x="186" y="-108" on="1"/>
        <pt x="171" y="-108" on="0"/>
        <pt x="72" y="-49" on="0"/>
        <pt x="66" y="-37" on="1"/>
        <pt x="64" y="-33" on="0"/>
        <pt x="64" y="19" on="1"/>
        <pt x="65" y="153" on="1"/>
        <pt x="65" y="234" on="0"/>
        <pt x="61" y="262" on="1"/>
        <pt x="5" y="313" on="0"/>
        <pt x="5" y="323" on="1"/>
        <pt x="5" y="331" on="0"/>
        <pt x="47" y="372" on="1"/>
        <pt x="61" y="385" on="1"/>
        <pt x="65" y="412" on="0"/>
      </contour>
    </TTGlyph>
    <TTGlyph name="braceright" xMin="10" yMin="-108" xMax="242" yMax="755">
      <contour>
        <pt x="182" y="163" on="1"/>
        <pt x="183" y="14" on="1"/>
        <pt x="183" y="-29" on="0"/>
        <pt x="181" y="-37" on="1"/>
        <pt x="175" y="-49" on="0"/>
        <pt x="76" y="-108" on="0"/>
        <pt x="61" y="-108" on="1"/>
        <pt x="29" y="-102" on="0"/>
        <pt x="10" y="-79" on="1"/>
        <pt x="81" y="-22" on="0"/>
        <pt x="87" y="4" on="1"/>
        <pt x="89" y="103" on="0"/>
        <pt x="89" y="252" on="0"/>
        <pt x="87" y="265" on="1"/>
        <pt x="146" y="312" on="0"/>
        <pt x="146" y="323" on="1"/>
        <pt x="146" y="333" on="0"/>
        <pt x="102" y="370" on="1"/>
        <pt x="87" y="382" on="1"/>
        <pt x="89" y="394" on="0"/>
        <pt x="89" y="466" on="1"/>
        <pt x="87" y="643" on="1"/>
        <pt x="84" y="654" on="0"/>
        <pt x="46" y="695" on="0"/>
        <pt x="28" y="710" on="1"/>
        <pt x="10" y="725" on="1"/>
        <pt x="26" y="745" on="0"/>
        <pt x="61" y="755" on="1"/>
        <pt x="76" y="755" on="0"/>
        <pt x="175" y="696" on="0"/>
        <pt x="183" y="677" on="0"/>
        <pt x="183" y="633" on="1"/>
        <pt x="182" y="484" on="1"/>
        <pt x="182" y="414" on="0"/>
        <pt x="185" y="385" on="1"/>
        <pt x="242" y="333" on="0"/>
        <pt x="242" y="323" on="1"/>
        <pt x="242" y="319" on="0"/>
        <pt x="214" y="288" on="0"/>
        <pt x="200" y="275" on="1"/>
        <pt x="185" y="262" on="1"/>
        <pt x="182" y="233" on="0"/>
      </contour>
    </TTGlyph>
    <TTGlyph name="bracketleft" xMin="30" yMin="-108" xMax="203" yMax="755">
      <contour>
        <pt x="203" y="-79" on="1"/>
        <pt x="186" y="-100" on="0"/>
        <pt x="152" y="-108" on="1"/>
        <pt x="137" y="-108" on="0"/>
        <pt x="38" y="-49" on="0"/>
        <pt x="32" y="-37" on="1"/>
        <pt x="30" y="-33" on="0"/>
        <pt x="30" y="240" on="1"/>
        <pt x="30" y="442" on="1"/>
        <pt x="30" y="680" on="0"/>
        <pt x="32" y="683" on="1"/>
        <pt x="38" y="696" on="0"/>
        <pt x="137" y="755" on="0"/>
        <pt x="152" y="755" on="1"/>
        <pt x="184" y="748" on="0"/>
        <pt x="203" y="725" on="1"/>
        <pt x="132" y="668" on="0"/>
        <pt x="126" y="643" on="1"/>
        <pt x="124" y="414" on="0"/>
        <pt x="124" y="322" on="1"/>
        <pt x="126" y="4" on="1"/>
        <pt x="129" y="-8" on="0"/>
        <pt x="167" y="-49" on="0"/>
        <pt x="185" y="-64" on="1"/>
      </contour>
    </TTGlyph>
    <TTGlyph name="bracketright" xMin="10" yMin="-108" xMax="183" yMax="755">
      <contour>
        <pt x="10" y="725" on="1"/>
        <pt x="26" y="745" on="0"/>
        <pt x="61" y="755" on="1"/>
        <pt x="76" y="755" on="0"/>
        <pt x="175" y="696" on="0"/>
        <pt x="181" y="683" on="1"/>
        <pt x="183" y="677" on="0"/>
        <pt x="183" y="509" on="1"/>
        <pt x="183" y="111" on="1"/>
        <pt x="183" y="-33" on="0"/>
        <pt x="181" y="-37" on="1"/>
        <pt x="175" y="-49" on="0"/>
        <pt x="76" y="-108" on="0"/>
        <pt x="61" y="-108" on="1"/>
        <pt x="29" y="-102" on="0"/>
        <pt x="10" y="-79" on="1"/>
        <pt x="81" y="-22" on="0"/>
        <pt x="87" y="4" on="1"/>
        <pt x="89" y="232" on="0"/>
        <pt x="89" y="325" on="1"/>
        <pt x="87" y="643" on="1"/>
        <pt x="84" y="654" on="0"/>
        <pt x="46" y="695" on="0"/>
        <pt x="28" y="710" on="1"/>
      </contour>
    </TTGlyph>
    <TTGlyph name="breve" xMin="167" yMin="503" xMax="349" yMax="579">
      <contour>
        <pt x="298" y="579" on="1"/>
        <pt x="349" y="579" on="1"/>
        <pt x="349" y="550" on="0"/>
        <pt x="292" y="503" on="0"/>
        <pt x="218" y="503" on="0"/>
        <pt x="167" y="545" on="0"/>
        <pt x="167" y="579" on="1"/>
        <pt x="218" y="579" on="1"/>
        <pt x="218" y="564" on="0"/>
        <pt x="241" y="543" on="0"/>
        <pt x="273" y="543" on="0"/>
        <pt x="298" y="566" on="0"/>
      </contour>
    </TTGlyph>
    <TTGlyph name="brokenbar" xMin="51" yMin="-50" xMax="128" yMax="707">
      <contour>
        <pt x="51" y="283" on="1"/>
        <pt x="64" y="296" on="0"/>
        <pt x="100" y="296" on="0"/>
        <pt x="128" y="289" on="1"/>
        <pt x="128" y="-41" on="1"/>
        <pt x="119" y="-50" on="0"/>
        <pt x="104" y="-50" on="1"/>
        <pt x="86" y="-50" on="1"/>
        <pt x="73" y="-50" on="0"/>
        <pt x="61" y="-46" on="0"/>
        <pt x="57" y="-45" on="0"/>
        <pt x="56" y="-44" on="1"/>
        <pt x="53" y="-44" on="0"/>
        <pt x="51" y="-42" on="1"/>
      </contour>
      <contour>
        <pt x="51" y="379" on="1"/>
        <pt x="51" y="694" on="1"/>
        <pt x="64" y="707" on="0"/>
        <pt x="89" y="707" on="1"/>
        <pt x="110" y="707" on="0"/>
        <pt x="124" y="701" on="0"/>
        <pt x="128" y="700" on="1"/>
        <pt x="128" y="380" on="1"/>
        <pt x="119" y="371" on="0"/>
        <pt x="104" y="371" on="1"/>
        <pt x="86" y="371" on="1"/>
        <pt x="73" y="371" on="0"/>
        <pt x="61" y="375" on="0"/>
        <pt x="57" y="376" on="0"/>
        <pt x="56" y="376" on="1"/>
        <pt x="53" y="378" on="0"/>
      </contour>
    </TTGlyph>
    <TTGlyph name="bullet" xMin="40" yMin="129" xMax="215" yMax="308">
      <contour>
        <pt x="215" y="257" on="0"/>
        <pt x="215" y="185" on="0"/>
        <pt x="161" y="129" on="0"/>
        <pt x="89" y="129" on="0"/>
        <pt x="40" y="178" on="0"/>
        <pt x="40" y="254" on="0"/>
        <pt x="95" y="308" on="0"/>
        <pt x="165" y="308" on="0"/>
      </contour>
    </TTGlyph>
    <TTGlyph name="c" xMin="30" yMin="-29" xMax="363" yMax="444">
      <contour>
        <pt x="254" y="-29" on="1"/>
        <pt x="140" y="-29" on="0"/>
        <pt x="30" y="87" on="0"/>
        <pt x="30" y="175" on="1"/>
        <pt x="30" y="298" on="0"/>
        <pt x="195" y="444" on="0"/>
        <pt x="314" y="444" on="1"/>
        <pt x="337" y="444" on="0"/>
        <pt x="341" y="443" on="1"/>
        <pt x="347" y="438" on="0"/>
        <pt x="347" y="352" on="0"/>
        <pt x="335" y="343" on="1"/>
        <pt x="328" y="343" on="1"/>
        <pt x="251" y="343" on="0"/>
        <pt x="203" y="307" on="1"/>
        <pt x="183" y="292" on="0"/>
        <pt x="153" y="228" on="0"/>
        <pt x="153" y="138" on="0"/>
        <pt x="207" y="79" on="0"/>
        <pt x="267" y="79" on="1"/>
        <pt x="314" y="79" on="0"/>
        <pt x="350" y="97" on="1"/>
        <pt x="354" y="99" on="0"/>
        <pt x="355" y="99" on="1"/>
        <pt x="363" y="91" on="0"/>
        <pt x="363" y="-1" on="0"/>
        <pt x="352" y="-10" on="1"/>
        <pt x="319" y="-29" on="0"/>
      </contour>
    </TTGlyph>
    <TTGlyph name="caron" xMin="134" yMin="488" xMax="351" yMax="619">
      <contour>
        <pt x="242" y="553" on="1"/>
        <pt x="251" y="558" on="0"/>
        <pt x="305" y="609" on="0"/>
        <pt x="314" y="619" on="1"/>
        <pt x="323" y="619" on="0"/>
        <pt x="349" y="597" on="0"/>
        <pt x="351" y="588" on="1"/>
        <pt x="351" y="576" on="0"/>
        <pt x="295" y="500" on="0"/>
        <pt x="277" y="488" on="1"/>
        <pt x="261" y="488" on="0"/>
        <pt x="242" y="502" on="1"/>
        <pt x="221" y="488" on="0"/>
        <pt x="208" y="488" on="1"/>
        <pt x="189" y="500" on="0"/>
        <pt x="134" y="576" on="0"/>
        <pt x="134" y="588" on="1"/>
        <pt x="136" y="597" on="0"/>
        <pt x="161" y="619" on="0"/>
        <pt x="170" y="619" on="1"/>
        <pt x="178" y="610" on="0"/>
        <pt x="234" y="558" on="0"/>
      </contour>
    </TTGlyph>
    <TTGlyph name="ccedilla" xMin="30" yMin="-167" xMax="363" yMax="444">
      <contour>
        <pt x="255" y="-29" on="1"/>
        <pt x="247" y="-43" on="0"/>
        <pt x="247" y="-59" on="1"/>
        <pt x="262" y="-65" on="0"/>
        <pt x="293" y="-96" on="0"/>
        <pt x="293" y="-109" on="1"/>
        <pt x="293" y="-133" on="0"/>
        <pt x="230" y="-167" on="0"/>
        <pt x="200" y="-167" on="1"/>
        <pt x="197" y="-167" on="0"/>
        <pt x="187" y="-148" on="0"/>
        <pt x="187" y="-135" on="0"/>
        <pt x="188" y="-133" on="1"/>
        <pt x="208" y="-133" on="0"/>
        <pt x="239" y="-116" on="0"/>
        <pt x="239" y="-98" on="0"/>
        <pt x="217" y="-84" on="0"/>
        <pt x="206" y="-82" on="1"/>
        <pt x="194" y="-80" on="1"/>
        <pt x="194" y="-56" on="0"/>
        <pt x="209" y="-26" on="1"/>
        <pt x="118" y="-14" on="0"/>
        <pt x="30" y="97" on="0"/>
        <pt x="30" y="175" on="1"/>
        <pt x="30" y="298" on="0"/>
        <pt x="195" y="444" on="0"/>
        <pt x="314" y="444" on="1"/>
        <pt x="337" y="444" on="0"/>
        <pt x="341" y="443" on="1"/>
        <pt x="347" y="438" on="0"/>
        <pt x="347" y="352" on="0"/>
        <pt x="335" y="343" on="1"/>
        <pt x="328" y="343" on="1"/>
        <pt x="251" y="343" on="0"/>
        <pt x="203" y="307" on="1"/>
        <pt x="183" y="292" on="0"/>
        <pt x="153" y="228" on="0"/>
        <pt x="153" y="138" on="0"/>
        <pt x="207" y="79" on="0"/>
        <pt x="267" y="79" on="1"/>
        <pt x="314" y="79" on="0"/>
        <pt x="350" y="97" on="1"/>
        <pt x="354" y="99" on="0"/>
        <pt x="355" y="99" on="1"/>
        <pt x="363" y="91" on="0"/>
        <pt x="363" y="-1" on="0"/>
        <pt x="352" y="-10" on="1"/>
        <pt x="319" y="-29" on="0"/>
      </contour>
    </TTGlyph>
    <TTGlyph name="cedilla" xMin="187" yMin="-167" xMax="293" yMax="-19">
      <contour>
        <pt x="255" y="-29" on="1"/>
        <pt x="247" y="-43" on="0"/>
        <pt x="247" y="-59" on="1"/>
        <pt x="262" y="-65" on="0"/>
        <pt x="293" y="-96" on="0"/>
        <pt x="293" y="-109" on="1"/>
        <pt x="293" y="-133" on="0"/>
        <pt x="230" y="-167" on="0"/>
        <pt x="200" y="-167" on="1"/>
        <pt x="197" y="-167" on="0"/>
        <pt x="187" y="-148" on="0"/>
        <pt x="187" y="-135" on="0"/>
        <pt x="188" y="-133" on="1"/>
        <pt x="208" y="-133" on="0"/>
        <pt x="239" y="-116" on="0"/>
        <pt x="239" y="-98" on="0"/>
        <pt x="217" y="-84" on="0"/>
        <pt x="206" y="-82" on="1"/>
        <pt x="194" y="-80" on="1"/>
        <pt x="194" y="-51" on="0"/>
        <pt x="213" y="-19" on="1"/>
        <pt x="233" y="-19" on="0"/>
      </contour>
    </TTGlyph>
    <TTGlyph name="cent" xMin="30" yMin="30" xMax="367" yMax="600">
      <contour>
        <pt x="152" y="290" on="1"/>
        <pt x="152" y="214" on="0"/>
        <pt x="222" y="193" on="1"/>
        <pt x="222" y="421" on="1"/>
        <pt x="152" y="380" on="0"/>
      </contour>
      <contour>
        <pt x="222" y="533" on="1"/>
        <pt x="222" y="581" on="1"/>
        <pt x="241" y="600" on="0"/>
        <pt x="280" y="600" on="1"/>
        <pt x="281" y="600" on="1"/>
        <pt x="281" y="546" on="1"/>
        <pt x="305" y="549" on="0"/>
        <pt x="348" y="549" on="0"/>
        <pt x="351" y="548" on="1"/>
        <pt x="356" y="543" on="0"/>
        <pt x="356" y="448" on="0"/>
        <pt x="344" y="448" on="1"/>
        <pt x="339" y="448" on="1"/>
        <pt x="311" y="448" on="0"/>
        <pt x="281" y="442" on="1"/>
        <pt x="281" y="187" on="1"/>
        <pt x="322" y="190" on="0"/>
        <pt x="359" y="204" on="1"/>
        <pt x="367" y="196" on="0"/>
        <pt x="367" y="107" on="0"/>
        <pt x="357" y="95" on="1"/>
        <pt x="329" y="84" on="0"/>
        <pt x="281" y="81" on="1"/>
        <pt x="281" y="49" on="1"/>
        <pt x="264" y="32" on="0"/>
        <pt x="232" y="30" on="1"/>
        <pt x="222" y="30" on="1"/>
        <pt x="222" y="81" on="1"/>
        <pt x="124" y="89" on="0"/>
        <pt x="30" y="199" on="0"/>
        <pt x="30" y="378" on="0"/>
        <pt x="136" y="507" on="0"/>
      </contour>
    </TTGlyph>
    <TTGlyph name="circumflex" xMin="131" yMin="488" xMax="348" yMax="619">
      <contour>
        <pt x="240" y="554" on="1"/>
        <pt x="231" y="549" on="0"/>
        <pt x="175" y="497" on="0"/>
        <pt x="168" y="488" on="1"/>
        <pt x="159" y="488" on="0"/>
        <pt x="133" y="510" on="0"/>
        <pt x="131" y="519" on="1"/>
        <pt x="131" y="532" on="0"/>
        <pt x="186" y="608" on="0"/>
        <pt x="205" y="619" on="1"/>
        <pt x="220" y="619" on="0"/>
        <pt x="240" y="606" on="1"/>
        <pt x="260" y="619" on="0"/>
        <pt x="274" y="619" on="1"/>
        <pt x="293" y="608" on="0"/>
        <pt x="348" y="532" on="0"/>
        <pt x="348" y="519" on="1"/>
        <pt x="346" y="510" on="0"/>
        <pt x="320" y="488" on="0"/>
        <pt x="311" y="488" on="1"/>
        <pt x="306" y="495" on="0"/>
        <pt x="248" y="549" on="0"/>
      </contour>
    </TTGlyph>
    <TTGlyph name="colon" xMin="35" yMin="-6" xMax="152" yMax="427">
      <contour>
        <pt x="152" y="393" on="0"/>
        <pt x="152" y="345" on="0"/>
        <pt x="115" y="308" on="0"/>
        <pt x="67" y="308" on="0"/>
        <pt x="35" y="341" on="0"/>
        <pt x="35" y="391" on="0"/>
        <pt x="70" y="427" on="0"/>
        <pt x="118" y="427" on="0"/>
      </contour>
      <contour>
        <pt x="152" y="79" on="0"/>
        <pt x="152" y="31" on="0"/>
        <pt x="115" y="-6" on="0"/>
        <pt x="67" y="-6" on="0"/>
        <pt x="35" y="27" on="0"/>
        <pt x="35" y="78" on="0"/>
        <pt x="70" y="113" on="0"/>
        <pt x="118" y="113" on="0"/>
      </contour>
    </TTGlyph>
    <TTGlyph name="comma" xMin="27" yMin="-97" xMax="146" yMax="118">
      <contour>
        <pt x="146" y="43" on="1"/>
        <pt x="146" y="-21" on="0"/>
        <pt x="96" y="-92" on="0"/>
        <pt x="74" y="-97" on="1"/>
        <pt x="44" y="-97" on="0"/>
        <pt x="32" y="-74" on="1"/>
        <pt x="77" y="-42" on="0"/>
        <pt x="82" y="-1" on="1"/>
        <pt x="27" y="-1" on="0"/>
        <pt x="27" y="51" on="1"/>
        <pt x="27" y="79" on="0"/>
        <pt x="60" y="118" on="0"/>
        <pt x="117" y="118" on="0"/>
        <pt x="146" y="73" on="0"/>
      </contour>
    </TTGlyph>
    <TTGlyph name="copyright" xMin="30" yMin="160" xMax="345" yMax="476">
      <contour>
        <pt x="240" y="444" on="0"/>
        <pt x="136" y="444" on="0"/>
        <pt x="62" y="370" on="0"/>
        <pt x="62" y="266" on="0"/>
        <pt x="136" y="192" on="0"/>
        <pt x="240" y="192" on="0"/>
        <pt x="314" y="266" on="0"/>
        <pt x="314" y="370" on="0"/>
      </contour>
      <contour>
        <pt x="345" y="383" on="0"/>
        <pt x="345" y="253" on="0"/>
        <pt x="253" y="160" on="0"/>
        <pt x="123" y="160" on="0"/>
        <pt x="30" y="253" on="0"/>
        <pt x="30" y="383" on="0"/>
        <pt x="123" y="476" on="0"/>
        <pt x="253" y="476" on="0"/>
      </contour>
      <contour>
        <pt x="231" y="239" on="1"/>
        <pt x="219" y="230" on="0"/>
        <pt x="150" y="230" on="0"/>
        <pt x="104" y="281" on="0"/>
        <pt x="104" y="356" on="0"/>
        <pt x="154" y="407" on="0"/>
        <pt x="221" y="407" on="0"/>
        <pt x="229" y="399" on="1"/>
        <pt x="231" y="398" on="0"/>
        <pt x="231" y="370" on="0"/>
        <pt x="226" y="370" on="0"/>
        <pt x="209" y="376" on="0"/>
        <pt x="177" y="376" on="0"/>
        <pt x="139" y="350" on="0"/>
        <pt x="139" y="292" on="0"/>
        <pt x="170" y="261" on="0"/>
        <pt x="196" y="261" on="1"/>
        <pt x="216" y="261" on="0"/>
        <pt x="228" y="267" on="0"/>
        <pt x="232" y="268" on="1"/>
        <pt x="235" y="265" on="0"/>
        <pt x="235" y="243" on="0"/>
      </contour>
    </TTGlyph>
    <TTGlyph name="currency" xMin="30" yMin="110" xMax="438" yMax="528">
      <contour>
        <pt x="337" y="361" on="0"/>
        <pt x="277" y="420" on="0"/>
        <pt x="192" y="420" on="0"/>
        <pt x="133" y="361" on="0"/>
        <pt x="133" y="275" on="0"/>
        <pt x="192" y="216" on="0"/>
        <pt x="277" y="216" on="0"/>
        <pt x="337" y="275" on="0"/>
      </contour>
      <contour>
        <pt x="366" y="404" on="1"/>
        <pt x="392" y="366" on="0"/>
        <pt x="392" y="269" on="0"/>
        <pt x="366" y="231" on="1"/>
        <pt x="438" y="119" on="1"/>
        <pt x="415" y="110" on="0"/>
        <pt x="370" y="110" on="0"/>
        <pt x="357" y="113" on="1"/>
        <pt x="314" y="181" on="1"/>
        <pt x="280" y="160" on="0"/>
        <pt x="191" y="160" on="0"/>
        <pt x="153" y="182" on="1"/>
        <pt x="111" y="115" on="1"/>
        <pt x="98" y="112" on="0"/>
        <pt x="84" y="112" on="1"/>
        <pt x="53" y="112" on="0"/>
        <pt x="30" y="121" on="1"/>
        <pt x="101" y="233" on="1"/>
        <pt x="77" y="273" on="0"/>
        <pt x="77" y="366" on="0"/>
        <pt x="103" y="404" on="1"/>
        <pt x="30" y="519" on="1"/>
        <pt x="53" y="528" on="0"/>
        <pt x="98" y="528" on="0"/>
        <pt x="111" y="525" on="1"/>
        <pt x="155" y="454" on="1"/>
        <pt x="193" y="476" on="0"/>
        <pt x="277" y="476" on="0"/>
        <pt x="314" y="455" on="1"/>
        <pt x="357" y="523" on="1"/>
        <pt x="370" y="526" on="0"/>
        <pt x="384" y="526" on="1"/>
        <pt x="415" y="526" on="0"/>
        <pt x="438" y="517" on="1"/>
      </contour>
    </TTGlyph>
    <TTGlyph name="d" xMin="30" yMin="-36" xMax="449" yMax="677">
      <contour>
        <pt x="300" y="429" on="1"/>
        <pt x="298" y="577" on="1"/>
        <pt x="298" y="639" on="0"/>
        <pt x="301" y="642" on="1"/>
        <pt x="313" y="654" on="0"/>
        <pt x="368" y="677" on="0"/>
        <pt x="418" y="677" on="0"/>
        <pt x="418" y="673" on="1"/>
        <pt x="410" y="507" on="0"/>
        <pt x="410" y="133" on="0"/>
        <pt x="416" y="97" on="1"/>
        <pt x="423" y="43" on="0"/>
        <pt x="449" y="17" on="1"/>
        <pt x="449" y="7" on="0"/>
        <pt x="366" y="-36" on="0"/>
        <pt x="337" y="-36" on="1"/>
        <pt x="334" y="-36" on="0"/>
        <pt x="328" y="-28" on="1"/>
        <pt x="309" y="-3" on="0"/>
        <pt x="305" y="40" on="1"/>
        <pt x="305" y="43" on="0"/>
        <pt x="303" y="43" on="1"/>
        <pt x="300" y="41" on="1"/>
        <pt x="258" y="-19" on="0"/>
        <pt x="175" y="-19" on="1"/>
        <pt x="108" y="-19" on="0"/>
        <pt x="30" y="87" on="0"/>
        <pt x="30" y="153" on="1"/>
        <pt x="30" y="266" on="0"/>
        <pt x="170" y="425" on="0"/>
      </contour>
      <contour>
        <pt x="302" y="324" on="1"/>
        <pt x="302" y="326" on="0"/>
        <pt x="291" y="326" on="1"/>
        <pt x="287" y="326" on="1"/>
        <pt x="223" y="326" on="0"/>
        <pt x="150" y="244" on="0"/>
        <pt x="150" y="181" on="1"/>
        <pt x="150" y="144" on="0"/>
        <pt x="185" y="97" on="0"/>
        <pt x="256" y="97" on="0"/>
        <pt x="299" y="159" on="0"/>
        <pt x="299" y="177" on="1"/>
        <pt x="299" y="288" on="0"/>
      </contour>
    </TTGlyph>
    <TTGlyph name="dagger" xMin="20" yMin="-50" xMax="385" yMax="707">
      <contour>
        <pt x="163" y="-42" on="1"/>
        <pt x="163" y="517" on="1"/>
        <pt x="27" y="517" on="1"/>
        <pt x="20" y="528" on="0"/>
        <pt x="20" y="584" on="0"/>
        <pt x="28" y="594" on="1"/>
        <pt x="163" y="594" on="1"/>
        <pt x="163" y="694" on="1"/>
        <pt x="176" y="707" on="0"/>
        <pt x="201" y="707" on="1"/>
        <pt x="222" y="707" on="0"/>
        <pt x="236" y="701" on="0"/>
        <pt x="240" y="700" on="1"/>
        <pt x="240" y="594" on="1"/>
        <pt x="379" y="594" on="1"/>
        <pt x="385" y="583" on="0"/>
        <pt x="385" y="529" on="0"/>
        <pt x="377" y="517" on="1"/>
        <pt x="240" y="517" on="1"/>
        <pt x="240" y="-41" on="1"/>
        <pt x="231" y="-50" on="0"/>
        <pt x="216" y="-50" on="1"/>
        <pt x="198" y="-50" on="1"/>
        <pt x="185" y="-50" on="0"/>
        <pt x="173" y="-46" on="0"/>
        <pt x="169" y="-45" on="0"/>
        <pt x="168" y="-44" on="1"/>
        <pt x="164" y="-44" on="0"/>
      </contour>
    </TTGlyph>
    <TTGlyph name="daggerdbl" xMin="20" yMin="-50" xMax="385" yMax="707">
      <contour>
        <pt x="27" y="67" on="1"/>
        <pt x="20" y="78" on="0"/>
        <pt x="20" y="134" on="0"/>
        <pt x="28" y="144" on="1"/>
        <pt x="163" y="144" on="1"/>
        <pt x="163" y="517" on="1"/>
        <pt x="27" y="517" on="1"/>
        <pt x="20" y="528" on="0"/>
        <pt x="20" y="584" on="0"/>
        <pt x="28" y="594" on="1"/>
        <pt x="163" y="594" on="1"/>
        <pt x="163" y="694" on="1"/>
        <pt x="176" y="707" on="0"/>
        <pt x="201" y="707" on="1"/>
        <pt x="222" y="707" on="0"/>
        <pt x="236" y="701" on="0"/>
        <pt x="240" y="700" on="1"/>
        <pt x="240" y="594" on="1"/>
        <pt x="379" y="594" on="1"/>
        <pt x="385" y="583" on="0"/>
        <pt x="385" y="529" on="0"/>
        <pt x="377" y="517" on="1"/>
        <pt x="240" y="517" on="1"/>
        <pt x="240" y="144" on="1"/>
        <pt x="379" y="144" on="1"/>
        <pt x="385" y="133" on="0"/>
        <pt x="385" y="79" on="0"/>
        <pt x="377" y="67" on="1"/>
        <pt x="240" y="67" on="1"/>
        <pt x="240" y="-41" on="1"/>
        <pt x="231" y="-50" on="0"/>
        <pt x="216" y="-50" on="1"/>
        <pt x="198" y="-50" on="1"/>
        <pt x="185" y="-50" on="0"/>
        <pt x="173" y="-46" on="0"/>
        <pt x="169" y="-45" on="0"/>
        <pt x="168" y="-44" on="1"/>
        <pt x="164" y="-44" on="0"/>
        <pt x="163" y="-42" on="1"/>
        <pt x="163" y="67" on="1"/>
      </contour>
    </TTGlyph>
    <TTGlyph name="degree" xMin="10" yMin="473" xMax="168" yMax="633">
      <contour>
        <pt x="107" y="595" on="0"/>
        <pt x="73" y="595" on="0"/>
        <pt x="47" y="570" on="0"/>
        <pt x="47" y="533" on="0"/>
        <pt x="71" y="510" on="0"/>
        <pt x="105" y="510" on="0"/>
        <pt x="131" y="536" on="0"/>
        <pt x="131" y="570" on="0"/>
      </contour>
      <contour>
        <pt x="168" y="586" on="0"/>
        <pt x="168" y="522" on="0"/>
        <pt x="120" y="473" on="0"/>
        <pt x="54" y="473" on="0"/>
        <pt x="10" y="516" on="0"/>
        <pt x="10" y="584" on="0"/>
        <pt x="58" y="633" on="0"/>
        <pt x="122" y="633" on="0"/>
      </contour>
    </TTGlyph>
    <TTGlyph name="dieresis" xMin="94" yMin="494" xMax="384" yMax="598">
      <contour>
        <pt x="197" y="568" on="0"/>
        <pt x="197" y="526" on="0"/>
        <pt x="165" y="494" on="0"/>
        <pt x="122" y="494" on="0"/>
        <pt x="94" y="522" on="0"/>
        <pt x="94" y="567" on="0"/>
        <pt x="125" y="598" on="0"/>
        <pt x="167" y="598" on="0"/>
      </contour>
      <contour>
        <pt x="384" y="568" on="0"/>
        <pt x="384" y="526" on="0"/>
        <pt x="353" y="494" on="0"/>
        <pt x="310" y="494" on="0"/>
        <pt x="282" y="522" on="0"/>
        <pt x="282" y="567" on="0"/>
        <pt x="313" y="598" on="0"/>
        <pt x="355" y="598" on="0"/>
      </contour>
    </TTGlyph>
    <TTGlyph name="divide" xMin="30" yMin="124" xMax="510" yMax="540">
      <contour>
        <pt x="321" y="198" on="0"/>
        <pt x="321" y="156" on="0"/>
        <pt x="290" y="124" on="0"/>
        <pt x="247" y="124" on="0"/>
        <pt x="219" y="152" on="0"/>
        <pt x="219" y="197" on="0"/>
        <pt x="250" y="228" on="0"/>
        <pt x="292" y="228" on="0"/>
      </contour>
      <contour>
        <pt x="292" y="540" on="0"/>
        <pt x="321" y="510" on="0"/>
        <pt x="321" y="467" on="0"/>
        <pt x="290" y="435" on="0"/>
        <pt x="247" y="435" on="0"/>
        <pt x="219" y="463" on="0"/>
        <pt x="219" y="508" on="0"/>
        <pt x="250" y="540" on="0"/>
      </contour>
      <contour>
        <pt x="39" y="292" on="1"/>
        <pt x="30" y="302" on="0"/>
        <pt x="30" y="359" on="0"/>
        <pt x="41" y="369" on="1"/>
        <pt x="502" y="369" on="1"/>
        <pt x="510" y="358" on="0"/>
        <pt x="510" y="303" on="0"/>
        <pt x="500" y="292" on="1"/>
      </contour>
    </TTGlyph>
    <TTGlyph name="dollar" xMin="30" yMin="-79" xMax="496" yMax="716">
      <contour>
        <pt x="412" y="565" on="1"/>
        <pt x="384" y="566" on="1"/>
        <pt x="342" y="566" on="0"/>
        <pt x="306" y="561" on="1"/>
        <pt x="305" y="395" on="1"/>
        <pt x="381" y="368" on="0"/>
        <pt x="432" y="334" on="1"/>
        <pt x="496" y="290" on="0"/>
        <pt x="496" y="143" on="0"/>
        <pt x="393" y="30" on="0"/>
        <pt x="305" y="2" on="1"/>
        <pt x="305" y="-58" on="1"/>
        <pt x="284" y="-79" on="0"/>
        <pt x="248" y="-79" on="1"/>
        <pt x="242" y="-79" on="1"/>
        <pt x="242" y="-13" on="1"/>
        <pt x="195" y="-20" on="0"/>
        <pt x="156" y="-20" on="1"/>
        <pt x="79" y="-20" on="0"/>
        <pt x="43" y="-12" on="1"/>
        <pt x="30" y="0" on="0"/>
        <pt x="30" y="134" on="1"/>
        <pt x="30" y="188" on="0"/>
        <pt x="36" y="207" on="0"/>
        <pt x="96" y="232" on="0"/>
        <pt x="127" y="232" on="1"/>
        <pt x="130" y="119" on="0"/>
        <pt x="155" y="95" on="1"/>
        <pt x="165" y="87" on="0"/>
        <pt x="221" y="85" on="0"/>
        <pt x="242" y="88" on="1"/>
        <pt x="242" y="306" on="1"/>
        <pt x="117" y="354" on="0"/>
        <pt x="86" y="386" on="1"/>
        <pt x="44" y="427" on="0"/>
        <pt x="44" y="530" on="0"/>
        <pt x="144" y="628" on="0"/>
        <pt x="242" y="650" on="1"/>
        <pt x="242" y="694" on="1"/>
        <pt x="265" y="716" on="0"/>
        <pt x="300" y="716" on="1"/>
        <pt x="306" y="716" on="1"/>
        <pt x="306" y="660" on="1"/>
        <pt x="348" y="665" on="0"/>
        <pt x="427" y="665" on="0"/>
        <pt x="433" y="659" on="0"/>
        <pt x="433" y="649" on="1"/>
        <pt x="433" y="585" on="0"/>
      </contour>
      <contour>
        <pt x="376" y="207" on="1"/>
        <pt x="376" y="249" on="0"/>
        <pt x="305" y="281" on="1"/>
        <pt x="305" y="105" on="1"/>
        <pt x="376" y="139" on="0"/>
      </contour>
      <contour>
        <pt x="180" y="480" on="1"/>
        <pt x="180" y="447" on="0"/>
        <pt x="242" y="420" on="1"/>
        <pt x="242" y="546" on="1"/>
        <pt x="180" y="525" on="0"/>
      </contour>
    </TTGlyph>
    <TTGlyph name="dotaccent" xMin="50" yMin="462" xMax="183" yMax="597">
      <contour>
        <pt x="149" y="597" on="0"/>
        <pt x="183" y="561" on="0"/>
        <pt x="183" y="503" on="0"/>
        <pt x="138" y="462" on="0"/>
        <pt x="83" y="462" on="0"/>
        <pt x="50" y="497" on="0"/>
        <pt x="50" y="555" on="0"/>
        <pt x="94" y="597" on="0"/>
      </contour>
    </TTGlyph>
    <TTGlyph name="dotlessi" xMin="57" yMin="-51" xMax="200" yMax="405">
      <contour>
        <pt x="172" y="348" on="1"/>
        <pt x="170" y="186" on="1"/>
        <pt x="170" y="108" on="0"/>
        <pt x="179" y="35" on="0"/>
        <pt x="200" y="3" on="1"/>
        <pt x="200" y="-7" on="0"/>
        <pt x="118" y="-51" on="0"/>
        <pt x="89" y="-51" on="1"/>
        <pt x="80" y="-51" on="0"/>
        <pt x="62" y="9" on="0"/>
        <pt x="57" y="63" on="0"/>
        <pt x="57" y="373" on="0"/>
        <pt x="64" y="387" on="1"/>
        <pt x="87" y="405" on="0"/>
        <pt x="145" y="405" on="1"/>
        <pt x="168" y="405" on="0"/>
        <pt x="173" y="399" on="1"/>
      </contour>
    </TTGlyph>
    <TTGlyph name="e" xMin="30" yMin="-23" xMax="398" yMax="437">
      <contour>
        <pt x="281" y="318" on="1"/>
        <pt x="281" y="347" on="0"/>
        <pt x="250" y="347" on="1"/>
        <pt x="209" y="347" on="0"/>
        <pt x="147" y="263" on="0"/>
        <pt x="147" y="204" on="1"/>
        <pt x="147" y="190" on="0"/>
        <pt x="151" y="190" on="1"/>
        <pt x="187" y="191" on="0"/>
        <pt x="281" y="272" on="0"/>
      </contour>
      <contour>
        <pt x="368" y="0" on="1"/>
        <pt x="334" y="-23" on="0"/>
        <pt x="136" y="-23" on="0"/>
        <pt x="30" y="95" on="0"/>
        <pt x="30" y="292" on="0"/>
        <pt x="157" y="437" on="0"/>
        <pt x="272" y="437" on="1"/>
        <pt x="319" y="437" on="0"/>
        <pt x="398" y="387" on="0"/>
        <pt x="398" y="262" on="0"/>
        <pt x="289" y="140" on="0"/>
        <pt x="195" y="108" on="1"/>
        <pt x="195" y="96" on="0"/>
        <pt x="244" y="81" on="0"/>
        <pt x="268" y="81" on="1"/>
        <pt x="344" y="81" on="0"/>
        <pt x="388" y="108" on="1"/>
        <pt x="389" y="109" on="0"/>
        <pt x="393" y="109" on="0"/>
        <pt x="393" y="90" on="1"/>
        <pt x="393" y="32" on="0"/>
      </contour>
    </TTGlyph>
</ttFont>
